<?xml version="1.0" encoding="UTF-8"?>
<svg id="Layer_1" data-name="Layer 1" xmlns="http://www.w3.org/2000/svg" width="1024" height="1024" viewBox="0 0 1024 1024">
  <defs>
    <style>
      .cls-1 {
        fill: #f2c1fb;
      }

      .cls-2 {
        fill: #280e07;
      }

      .cls-3 {
        fill: #2b120e;
      }

      .cls-4 {
        fill: #3c251e;
      }

      .cls-5 {
        fill: #4c2e22;
      }

      .cls-6 {
        fill: #f3defb;
      }

      .cls-7 {
        fill: #ca9adb;
      }

      .cls-8 {
        fill: #321501;
      }

      .cls-9 {
        fill: #d5b4f6;
      }

      .cls-10 {
        fill: #fee695;
      }

      .cls-11 {
        fill: #f6ebf7;
      }

      .cls-12 {
        fill: #462d23;
      }

      .cls-13 {
        fill: #2d110a;
      }

      .cls-14 {
        fill: #290b07;
      }

      .cls-15 {
        fill: #4e2f20;
      }

      .cls-16 {
        fill: #270a04;
      }

      .cls-17 {
        fill: #2f150c;
      }

      .cls-18 {
        fill: #2e120a;
      }

      .cls-19 {
        fill: #1e0602;
      }

      .cls-20 {
        fill: #fee795;
      }

      .cls-21 {
        fill: #714a54;
      }

      .cls-22 {
        fill: #32130f;
      }

      .cls-23 {
        fill: #22100b;
      }

      .cls-24 {
        fill: #472d22;
      }

      .cls-25 {
        fill: #2d130c;
      }

      .cls-26 {
        fill: #310e02;
      }

      .cls-27 {
        fill: #fefad4;
      }

      .cls-28 {
        fill: #2a0f0d;
      }

      .cls-29 {
        fill: #ca9adc;
      }

      .cls-30 {
        fill: #feb7d1;
      }

      .cls-31 {
        fill: #462d22;
      }

      .cls-32 {
        fill: #482e22;
      }

      .cls-33 {
        fill: #250904;
      }

      .cls-34 {
        fill: #543322;
      }

      .cls-35 {
        fill: #f5daf9;
      }

      .cls-36 {
        fill: #280d01;
      }

      .cls-37 {
        fill: #260b08;
      }

      .cls-38 {
        fill: #250600;
      }

      .cls-39 {
        fill: #fdb7d0;
      }
    </style>
  </defs>
  <path class="cls-34" d="M224,173c5.75,2.47,12.8-2.85,18.99-1.99-.57,1.83-2.96.64-5.1,2.39-2.34,1.92-3.92,7.35-1.42,9.63.86.78,6.82,1.05,4.52,2.96-.28.23-6.29,2.85-6.65,2.87-1.53.08-4.48-4.16-6.81,1.18-2.68,6.13.74,4.27,3.4,5.5.67.31,2.4,2.12,2.06,2.46-.35.34-9,2.1-9.48,2.03-1.15-.16-.11-2.58-.54-2.99-1.29-1.21-5.2,1.48-6.6,1.66-1.27.16-2.82-.74-4.62-.49-4.12.57-2.28,3.22-2.76,3.8-.23.28-4-2.74-6.62-2.96-2.81-.24-4.73.99-6.92.99-6.57.01-9.53-4.83-8.1,5.28.17,1.19,1.95,2.35,1.74,4.1-.11.91-3.02,1.2-3.07,2.08-.02.29,3.02,3.38,2.76,5.05-.27,1.69-7.59,2.48-1.04,6.22,1.12.64,4.14,1.07,4.27,1.25.38.54-1.88,3.42-.01,3.98-1.91,3.26-6.98,12.93-6.73,16.34,10.99,30.35,37.29,56.07,71.73,53.66,0,0,0-13.01,0-13.01-23.98.47-61.79-26.01-44.82-52.31,10.52-16.31,36.68-17.11,54.45-19.55,124.53-17.1,252.46-21.1,377.9-30.05.99-.05,3.11-2.48,3.47-3.09,1.84-1.55,2.28-.1,3.5.96,8.33,7.23,15.8,15.16,23.5,23.04-60.03,2.71-121.23,8.22-181,12-8.05.65-16.86.4-24.99,1.01-.06,1.81,3.72.95,4.99.99-1.26,1.72-4.14.95-6,1,.34-3.55-.85-1.14-2.57-1.08-14.89.56-29.86,2.84-44.43,4.08-47.74,1.7-95.26,9.23-142.99,12.01,0,0,3.99.99,3.99.99-6.03,2.33-41.08,3.22-43.75,6.25-5.71,6.5,11.18,15.96,16.07,17.93,2.68,1.08,5.43,2.07,8.25,2.75,47.1-3.84,94.28-7.67,141.43-10.93,2.95,1.67,8.18,1.23,11.54,1.04,84.46-4.68,168.86-12.31,253.46-15.04-4.65,6.02.5,15.06-3.97,21.53-15.27,1.52-31.1,1.17-46.03,3.47,0,0-153.99,9.01-153.99,9.01l5.99.99-192,13-1.05,2.44c1.34-1.44-2.09,524.05,1.04,514.08,0,0,0-208.52,0-208.52,1.65,1.06,1,3.78,1.02,5.48,1.07,99.28-4.38,202.55-.09,301.13.08,1.89.95,2.71,1.07,3.38.11.61-2.57,2.28.49,2.01,85.54-6.82,171.49-8.28,256.97-16.05,1.82-.09,6.72-.36,8-.03,1.19.31-.26,4.25,2.03,3.06,1.54-.8,1.05-3.75,2.14-4.05,1.97-.55,11.08-.12,12.94,1,6.78,4.08-4.01,9.84,3.06,14.94.96.69,10.84,4.4,11.77,4.2,1.24-.27.8-2.96,1.85-3.84.33-.28,7.26-3.11,8.03-3.07,4.9.22,2.43,5.6,2.72,5.83.76.59,5.04-1.19,5,.99,0,0-108.99,6.02-108.99,6.02,0,0,4.99.99,4.99.99,0,0-32.52,2.98-32.52,2.98-56,1.37-111.99,8.61-167.95,10.05-34.31.88-61.99-.56-91.45-19.62-54.41-35.21-49.46-91.03-50.09-148.41-.15-22.08.11-93.5,0-114,0,0,0-295,0-295,.1-11.56-.91-23.67,1-35,.03,5.8-.24,11.71,0,17.51.05,1.21-.75,3.72.99,3.48.38-18.81-.46-37.71-.03-56.53.21-9.25,2.82-20.18.04-29.46,4.89-37.55,36.24-68.53,72-78ZM174,381c0,14.32,0,28.68,0,43h-1c-.03-5.14.21-10.37,0-15.51-.05-1.23.76-3.71-1-3.49v376h.99s.01-9,.01-9c0,0,1,0,1,0,.51,30.08-2.55,59.69,12.48,87.02,13.74,24.87,41.99,41.09,70.52,40.98V323c-35.96-.34-58.72-14.81-79-43-2.3-3.2-2.7-6.69-3-1h-1c0-.53.59-5.22-1.01-3.5.3,33.33-.38,66.68-.01,100.01.02,1.7-.63,4.43,1.02,5.48ZM539,896.99c3.44-.88,3.92,3.21,5.66,3.85,7.77,2.86,12.19-6.81,2.86-6.93-1.32-.02-9.69.54-8.52,3.08Z"/>
  <path class="cls-31" d="M516,144c42.14-2.15,84.21-6.05,126.47-6.03,4.51-2.68,6.41-6.85,11.21-9.79,8.73-5.33,21.76-6.61,31.83-7.17,6.43-.36,24.46,1.33,28.82-.18,1.99-.69,18.02-30.4,22.25-35.75,11.31-14.31,26.59-25.63,45.36-16.53,14.86,7.21,21.89,27.4,27.09,41.91.96,2.67,5.22,18.82,6.11,19.39,19.16,3.86,57.98,9.88,66.03,31.47,11.08,30.58-32.14,47.93-48.02,63.39-1.09,3.54,3.47,25.77,3.82,31.81,1.54,20.04.7,44.58-22.88,49.59-1,1.3-.11,28.55-.11,32.9,0,7.76-.84,16.57,1,24,.02,18.98,0,38.02,0,57,0,9.79-.84,20.51,1,30,0,1.67,0,3.33,0,5,0,0-2.99-144.01-2.99-144.01,0,0-7,.01-7,.01-.32.26,2.12,4.03-.52,4.98-2.5.9-1.07-2.56-1.49-2.99-.34-.35-9.28,1.54-9.56,1.94-1.16,1.63-.21,14.29-.4,17.64-.07,1.27-1.03,2.27-1.04,2.43,0,0,0-32.5,0-32.5,0,0-1.01.5-1.01.5-13.01-8.43-25.53-18.04-37.64-27.86-3.02-2.17-5.58-.82-8.64.08-23.1,6.85-52.26,34.1-73.72,6.77-2.91-7-5.71-14.15-4.99-22.01-15.68.62-31.35,2.05-47.01,3.01,0,0-1-1-1-1,14.93-2.3,30.77-1.95,46.03-3.47,4.47-6.47-.69-15.52,3.97-21.53.04-.06,1.17.12,1-.99-2.66-.05-5.34.03-8-.01l8.96-1.05c1.35-10.17,7.01-18.48,7.04-28.95,0-.11,1.74-.54,0-1.5-.9-.5-2-.53-3.01-.5-7.69-7.88-15.17-15.81-23.5-23.04-1.22-1.06-1.66-2.51-3.5-.96,2.5-4.24,1.19-7.49-2-11,.09-.95-1-2.42-1-3,0-.11,1.6-1.6,1-1.99-.44-.29-5.53.03-7,0-.47-1.57-5.16-7.15-6.03-7.54-2.53-1.15-4.75,1.21-6.54-.33-2.13-1.83-.82-5.52-2.39-6.68-1.17-.87-6.06-.72-8.29-1.71-1.97-.88-2.68-2.83-4.49-3.54-1.25-.48-4.03.01-4.28-.21-.13-.11-1.04-3.02,1.51-3.03,3.59-.02,8.61,3.09,9.86,2.86s3.44-3.13,2.64-3.82c-2.19-1.87-48.71,3.05-55.56,1.91-3.08,2.99-9.6.78-14.97,1.05-11.36.56-23.64.44-34.46,1.04ZM797,144c-2.62-2.24-3.06-2.7-4.48-6.03-8.65-23.28-14.51-80.47-42.94-33.89-4.26,6.52-17.23,33.52-22.64,35.36-8.36,2.85-34.42-.35-45.43.57-35.95,2.98-10.36,27.55,1.97,42,4.8,5.62,18.07,16,19.11,22.97,2.89,10.21-33.51,74.33,1.2,65.32,12.98-2.75,30.31-16.79,43.17-19.82,7.23-1.71,9.71.12,15.34,3.71,10.05,6.4,34.31,29.88,44.31,30.76,21.13,1.6,4.98-49.32,4.49-60.56-.69-7.43.53-9.23,5.98-13.81,9.01-8.64,59.12-32.22,40.91-46.59,1.19-1.55-1.27-2.68-2.3-3.21-17.34-8.91-40.26-10.28-58.7-16.79ZM644,139h-19c-.16,0-1.13,2.9-1,2.99.36.24,8.18,1.01,8.62.98,2.3-.15,1.85-2.64,3.09-2.99,2.15-.61,7.05,1.37,8.29-.98Z"/>
  <path class="cls-5" d="M516,144c10.82-.6,23.1-.48,34.46-1.04,5.37-.27,11.89,1.94,14.97-1.05,6.85,1.14,53.38-3.78,55.56-1.91.8.69-1.39,3.6-2.64,3.82s-6.26-2.89-9.86-2.86c-2.54.02-1.63,2.92-1.51,3.03.25.22,3.03-.28,4.28.21,1.81.7,2.51,2.66,4.49,3.54,2.23.99,7.11.84,8.29,1.71,1.56,1.16.26,4.85,2.39,6.68,1.79,1.53,4-.82,6.54.33.87.39,5.56,5.97,6.03,7.54-79.41-.48-160.72,9.56-239.99,15.01,0,0,4.99.99,4.99.99-45.2,4.02-91.79,8.21-137,14-20.38,2.61-37.92,3.39-56,14-1.75-3.1-.45-1.42-2.46-1-5.82,1.21-6.67,4.32-8.19,4.85-3.8,1.31-8.65-1.66-8.83,6.17,6.86,0,8.25-2.68,13.49-6.02-4.86,5.42-9.26,9.61-13,16-1.87-.57.39-3.44.01-3.98-.13-.18-3.15-.61-4.27-1.25-6.55-3.74.77-4.54,1.04-6.22.27-1.68-2.77-4.77-2.76-5.05.05-.88,2.96-1.17,3.07-2.08.22-1.75-1.57-2.91-1.74-4.1-1.43-10.1,1.53-5.27,8.1-5.28,2.19,0,4.11-1.23,6.92-.99,2.62.22,6.39,3.23,6.62,2.96.48-.57-1.36-3.23,2.76-3.8,1.8-.25,3.35.65,4.62.49,1.4-.18,5.32-2.87,6.6-1.66.43.41-.61,2.82.54,2.99.48.07,9.14-1.69,9.48-2.03s-1.39-2.14-2.06-2.46c-2.66-1.23-6.09.63-3.4-5.5,2.33-5.34,5.29-1.1,6.81-1.18.36-.02,6.38-2.63,6.65-2.87,2.3-1.91-3.66-2.18-4.52-2.96-2.5-2.28-.92-7.71,1.42-9.63,2.13-1.75,4.53-.56,5.1-2.39-6.2-.87-13.24,4.45-18.99,1.99,94.83-18.06,195.63-22.75,292-29Z"/>
  <path class="cls-34" d="M793,335c0-.15.97-1.16,1.04-2.43.18-3.35-.77-16.01.4-17.64.28-.4,9.22-2.29,9.56-1.94.42.43-1.01,3.9,1.49,2.99,2.64-.96.2-4.72.52-4.98,0,0,7-.01,7-.01,0,0,2.99,144.01,2.99,144.01-.67,116.04,1.58,239.13-1,355-2.51-2.41.04-19.95-1.04-20.96-.34-.32-2.89.29-3.99-.48-.8-.56-2.12-9.11-6.44-9.26-.41-.01-6.13,2.58-6.39,3.33-1.12,3.27.13,8.39-.22,11.69-.38,3.5-1.42,7.24-1.91,10.68-.27-9.14.37-18.37,0-27.51-.05-1.21.75-3.72-.99-3.48-.59,9.99.72,20.71.06,30.62-.12,1.77-1.04,3.01-1.07,3.38,3.26-144.13-.24-289.77,1.01-434.5-1.42-1.62-.98,1.11-1.01,1.98-.68,22.75.02,45.75,0,68.52-1.65-1.06-1-3.78-1.02-5.48-.53-34.52-.52-68.97,1.02-103.52Z"/>
  <path class="cls-15" d="M795,805c.49-3.44,1.54-7.18,1.91-10.68.36-3.3-.9-8.42.22-11.69.26-.75,5.98-3.35,6.39-3.33,4.32.15,5.64,8.7,6.44,9.26,1.11.77,3.66.16,3.99.48,1.08,1.01-1.47,18.56,1.04,20.96h1c-3.88,61.4-50.09,91.9-108.51,91.99l-215.49,13.01s-4.99-.99-4.99-.99l108.99-6.02c.04-2.19-4.24-.41-5-.99-.3-.23,2.18-5.61-2.72-5.83-.77-.03-7.7,2.8-8.03,3.07-1.05.88-.61,3.57-1.85,3.84-.93.2-10.82-3.51-11.77-4.2-7.07-5.1,3.73-10.86-3.06-14.94-1.86-1.12-10.97-1.55-12.94-1-1.09.31-.6,3.26-2.14,4.05-2.29,1.19-.84-2.75-2.03-3.06-1.28-.34-6.18-.06-8,.03-85.48,7.77-171.43,9.23-256.97,16.05-3.06.27-.38-1.4-.49-2.01,16.35-.57,32.68-2.05,49-3,82.06-4.8,164.01-9.26,246-15,2.96,1.67,8.18,1.22,11.54,1.04,52.11-2.87,105.01-6.44,156.47-14.06,0,0-1.01-.98-1.01-.98,9-3.82,18.45-7.15,26.33-13.17,4.75-3.63,6.35-6.99,9.67-10.83,12.85-11.1,13.86-26.1,16-42Z"/>
  <path class="cls-12" d="M878.69,309.2c12.93-4.1,14.64,17.92,19.14,26.47,8.21,15.6,17.61,14.26,29.1,22.9,13.68,10.29-8.76,16.08-15.25,20.61-5.43,3.78-9.92,9.04-13.19,14.81-3.05,5.37-9.18,25.63-12.72,27.28-12.02,5.61-14.93-15.05-18.6-22.93-3.2-6.9-6.06-12.01-12.24-16.76s-25.38-10.24-21.4-19.55c1.8-4.21,23.18-12.07,29.47-20.53,4.4-5.91,11.38-30.93,15.7-32.3ZM900.99,364.02c-.42-.69-11.57-6.63-12.5-10.01l-6.48-10c1.79,6.74-19.83,20.75-19.01,21.97.35.52,7.7,4.97,10.02,7.5,3.87,4.22,4.96,7.98,7.73,12.24,2.34,3.6,2.01-.24,3.2-2.22,1.6-2.67,3.11-5.55,5.07-7.97,3.42-4.21,8.26-6.23,10.92-9.08.63-.67,1.75-1.29,1.05-2.43Z"/>
  <path class="cls-26" d="M150,646c-.6-98.32-.85-196.69,0-295v295Z"/>
  <path class="cls-4" d="M152,251c2.78,9.29.17,20.21-.04,29.46-.43,18.82.41,37.72.03,56.53-1.74.23-.94-2.27-.99-3.48.45-26.51-2.03-56.41,1-82.51Z"/>
  <path class="cls-38" d="M150,760c-.31-28.64.19-57.35,0-86v86Z"/>
  <path class="cls-19" d="M816,810h-1l1-43c-.12,13.99.87,29.21,0,43Z"/>
  <path class="cls-34" d="M816,450c-1.84-9.49-1-20.21-1-30,1.84,9.49.99,20.21,1,30Z"/>
  <path class="cls-34" d="M815,363c-1.84-7.43-.99-16.24-1-24,1.84,7.42.99,16.24,1,24Z"/>
  <path class="cls-7" d="M175,279c-1.12,20.98.82,42.92.01,63.99,1.74.24.94-2.27.99-3.48.76-18.48-1.88-40.2,0-58.03.3-2.8.93-.22,2-1.48,20.28,28.19,43.04,42.66,79,43,0,0,0,577,0,577-28.53.1-56.77-16.11-70.52-40.98-11.89-21.51-11.92-42.13-12.48-66.02.81-62.28-1.63-463.12,1-514Z"/>
  <path class="cls-27" d="M678,206c-.04,10.48-5.69,18.78-7.04,28.95,0,0-8.96,1.05-8.96,1.05-85.83,1.67-172.26,9.7-258,15-47.14,3.26-94.32,7.1-141.43,10.93-7.07-1.22-30.67-12.34-24.32-20.68,2.67-3.04,37.72-3.92,43.75-6.25,46.35-3.75,92.67-8.06,139-12,15.43-1.31,31.58-3.56,47-4,1.86-.05,4.74.72,6-1,67.94-3.5,135.94-9.54,204-12Z"/>
  <path class="cls-29" d="M267,194c1.33,1.67,4.58,1.15,6.49.99,122.69-9.97,245.68-27.81,369.04-28.02,2.88.59,2.18,4.21,3.47,2.03,3.19,3.51,4.5,6.76,2,11-.36.61-2.47,3.04-3.47,3.09-125.43,8.95-253.37,12.95-377.9,30.05-17.77,2.44-43.93,3.24-54.45,19.55-16.96,26.3,20.84,52.78,44.82,52.31,0,0,0,13.01,0,13.01-34.43,2.43-60.76-23.35-71.73-53.66-.25-3.42,4.82-13.08,6.73-16.34,16.97-28.58,45.06-30.42,75-34Z"/>
  <path class="cls-11" d="M620,263c15.65-.96,31.33-2.38,47.01-3.01-.71,7.85,2.09,15,4.99,22.01-2.02-2.57-2.8-2.94-4.03-6.47-1.44-4.11-1.25-12.92-4.47-13.53-127.54,7.24-255.07,16.02-382.5,25v615c12.43-.92,25.02-2.35,37.46-3.04,3.36-.19,8.59-.63,11.54,1.04-16.32.95-32.65,2.43-49,3-.12-.68-.99-1.49-1.07-3.38-4.29-98.59,1.16-201.86.09-301.13-2.79-103.6-.13-209.21-1.02-313.48,94.19-6.04,248.53-16.88,341-22Z"/>
  <path class="cls-37" d="M279,593v208.52s-1.01,1.98-1.01,1.98l-.04-516.05c3.1,88.92-.03,206.92,1.05,305.56Z"/>
  <path class="cls-1" d="M174,793c-1.16-137.27.09-274.71,0-412,0-5.99,0-12.01,0-18,0,0,0,430,0,430Z"/>
  <path class="cls-8" d="M173,424s0,348,0,348c0,0-.01,8.99-.01,8.99-2.72,2.16-.12-376.12-.99-375.99,1.76-.23.95,2.26,1,3.49.21,5.14-.03,10.37,0,15.51Z"/>
  <path class="cls-21" d="M174,772c-2.8,2.09-.08-348.07-1-348,0,0,1,0,1,0,.03,115.94-1.28,232.08,0,348Z"/>
  <path class="cls-13" d="M572,240v2c-52.18,2.94-104.33,7.15-156.46,10.04-3.36.19-8.59.63-11.54-1.04,55.95-3.87,112-7.91,168-11Z"/>
  <path class="cls-22" d="M619,262l1,1c-49.65,3.03-99.31,6.43-149,9l-5.99-.99,153.99-9.01Z"/>
  <path class="cls-18" d="M421,222s0,1,0,1c-46.33,3.94-92.65,8.25-139,12l-3.99-.99c47.74-2.78,95.26-10.31,142.99-12.01Z"/>
  <path class="cls-25" d="M675,204c1.01-.03,2.1,0,3.01.5,1.74.96,0,1.39,0,1.5-36.68,1.48-73.36,3.8-110,6v-1c34.88-2.15,71.99-6.13,107-7Z"/>
  <path class="cls-17" d="M662,236c2.66.04,5.34-.04,8,.01.17,1.11-.96.93-1,.99-32.38.54-64.73,3.18-97,5v-2c29.26-1.61,60.92-4.45,90-4Z"/>
  <path class="cls-36" d="M174,279c.57,33.96-.16,68.03,0,102-1.65-1.06-1-3.78-1.02-5.48-.36-33.33.31-66.68.01-100.01,1.6-1.72,1,2.96,1.01,3.5Z"/>
  <path class="cls-2" d="M568,211v1c-24.36,1.47-48.68,3.38-73,5l-1-1c24.3-1.95,49.29-3.48,74-5Z"/>
  <path class="cls-1" d="M178,280c-1.07,1.26-1.71-1.32-2,1.48-1.88,17.83.76,39.55,0,58.03-.05,1.22.75,3.72-.99,3.48.81-21.08-1.13-43.02-.01-63.99.3-5.69.7-2.2,3,1Z"/>
  <path class="cls-15" d="M539,896.99c-1.17-2.55,7.2-3.1,8.52-3.08,9.33.13,4.9,9.8-2.86,6.93-1.74-.64-2.21-4.73-5.66-3.85Z"/>
  <path class="cls-16" d="M468,219c-15.42.44-31.57,2.69-47,4v-1c14.57-1.24,29.54-3.51,44.43-4.08,1.72-.07,2.91-2.47,2.57,1.08Z"/>
  <path class="cls-16" d="M494,216l1,1c-6.8.45-14.27,1.19-21,1-1.27-.04-5.05.82-4.99-.99,8.14-.61,16.94-.37,24.99-1.01Z"/>
  <path class="cls-9" d="M672,282c21.46,27.33,50.62.07,73.72-6.77,3.06-.91,5.62-2.26,8.64-.08,11.37,9.62,23.71,17.99,35.64,26.86,1.42,167.74.25,335.89,2.04,503.54-.95,14.9-5.13,28.87-13.04,41.46-3.32,3.84-4.92,7.2-9.67,10.83-7.88,6.02-17.33,9.35-26.33,13.17-54.57,10.33-111.58,9.56-167,14-85.76,4.73-172.01,13.3-257.54,13.96-12.44.69-25.03,2.11-37.46,3.04,0,0,0-615,0-615,127.42-8.98,254.96-17.76,382.5-25,3.22.62,3.03,9.42,4.47,13.53,1.23,3.53,2.01,3.89,4.03,6.47ZM663.78,437.29c-11.22,1.11-25.77,11.07-17.78,23.22,6.32,9.61,17.74.34,27.42,1.59,9.54,1.23,24.84,19.2,32.46,4.28,9.39-19.97-27.79-30.86-42.1-29.09ZM688,592c-14.75,17.22-18.54,32.7,2.09,47.41,31.88,22.73,83.85,4.94,66.67-39.67-9.84-25.55-40.81-28.34-61.76-14.74,15.33-19.34,16.09-47.61.51-67.01-18.23-22.71-51.13-19.07-65.68,5.34-24.54,41.18,11.52,95.73,58.17,68.67ZM410.8,526.3c-15.08.94-30.19,7.31-40.31,18.69-6.7,7.53-14.91,22.92-3.01,30.03s20.13-7.87,28.83-13.21c13.37-8.21,25.48-8.9,38.99-.61,8.98,5.51,19.13,24.09,30.7,12.3,10.49-10.7-2.66-27.38-11.52-34.47-11.81-9.46-28.72-13.65-43.68-12.72ZM352.76,594.26c-12.64,1.58-27.62,10.53-32.23,22.77-18.12,48.05,63.02,68.8,80.65,27.65,14.73-34.38-17.12-54.33-48.42-50.42ZM569.34,597.34c-3.06,2.95-4.95,10.31-7.51,13.99-7.62,10.98-26.13,12.23-36.77,5.1-10.06-6.74-9.61-23.67-24.36-20.22-13.03,3.05-4.67,20.12.78,26.79,22.67,27.75,72.94,24.69,84.29-11.74,4.19-13.45-7.24-22.77-16.43-13.93Z"/>
  <path class="cls-20" d="M797,144c1.52,1.3,1.17,1.73,3.75,2.74,15.03,5.9,44.93,6.98,57.25,17.26,18.25,14.32-31.95,37.98-40.91,46.59-5.44,4.58-6.67,6.38-5.98,13.81.52,11.41,16.64,62.09-4.49,60.56-10-.89-34.26-24.37-44.31-30.76-5.64-3.59-8.12-5.42-15.34-3.71-12.86,3.04-30.2,17.07-43.17,19.82-34.7,9.03,1.69-55.14-1.2-65.32-1.05-6.97-14.32-17.35-19.11-22.97-12.33-14.45-37.92-39.02-1.97-42,11.02-.91,37.07,2.28,45.43-.57,5.4-1.84,18.37-28.85,22.64-35.36,28.4-46.52,34.27,10.47,42.94,33.89,1.41,3.32,1.86,3.79,4.48,6.03Z"/>
  <path class="cls-6" d="M792,303c.17,168.01,1.57,336.71,1,505-1.21,12.54-3.29,22.65-9,34-1.12,1.56-3.8,3.61-5,5,7.91-12.59,12.09-26.56,13.04-41.46-2.09-153.13.02-306.75-2.08-460-.23-14.51.52-29.02.04-43.54.56.42,1.39.62,2,1Z"/>
  <path class="cls-35" d="M645,166c0,.58,1.09,2.05,1,3-1.3,2.19-.59-1.44-3.47-2.03-123.36.21-246.35,18.05-369.04,28.01-1.9.16-5.15.69-6.49-.99,121.11-14.63,242.7-23.1,364.46-29.04,4.03-.19,9.87-.63,13.54,1.04Z"/>
  <path class="cls-3" d="M639,164c1.47.04,6.56-.28,7,0,.6.39-1,1.88-1,1.99-3.67-1.67-9.51-1.23-13.54-1.04-75.88,3.66-151.8,8.31-227.46,15.04l-4.99-.99c79.25-5.45,160.62-15.49,239.99-15.01Z"/>
  <path class="cls-23" d="M858,164c-12.32-10.28-42.22-11.36-57.25-17.26-2.58-1.01-2.23-1.44-3.75-2.74,18.45,6.5,41.37,7.88,58.7,16.79,1.03.53,3.49,1.66,2.3,3.21Z"/>
  <path class="cls-14" d="M793,335c-.44,10.14-.76,21.09-1,31v-63l1.01-.5v32.5Z"/>
  <path class="cls-5" d="M644,139c-1.24,2.35-6.15.37-8.29.98-1.24.35-.79,2.84-3.09,2.99-.43.03-8.25-.74-8.62-.98-.13-.09.84-2.99,1-2.99h19Z"/>
  <path class="cls-34" d="M211,208c-1.87,1.1-4.01,2.73-6,4-5.24,3.34-6.62,6.01-13.49,6.02.18-7.83,5.03-4.87,8.83-6.17,1.53-.53,2.38-3.64,8.19-4.85,2.01-.42.72-2.09,2.46,1Z"/>
  <path class="cls-33" d="M793,773c.16-132.49-.32-265.05,0-397.52.03-.87-.41-3.6,1.01-1.98-2.07,132.89,3.35,267.32-1.01,399.5Z"/>
  <path class="cls-33" d="M795,805c-2.04,14.24-2.38,25-11,37,5.71-11.35,7.79-21.46,9-34,.04-.37.96-1.61,1.07-3.38.66-9.91-.65-20.62-.06-30.62,1.74-.23.94,2.27.99,3.48.37,9.14-.27,18.37,0,27.51Z"/>
  <path class="cls-28" d="M743,871l1.01.98c-51.47,7.62-104.36,11.19-156.47,14.06-3.36.18-8.58.63-11.54-1.04,55.43-4.44,112.42-3.68,167-14Z"/>
  <path class="cls-10" d="M900.99,364.02c.7,1.14-.42,1.75-1.05,2.43-2.66,2.85-7.5,4.87-10.92,9.08-1.96,2.42-3.47,5.3-5.07,7.97-1.19,1.98-.86,5.82-3.2,2.22-2.77-4.25-3.86-8.02-7.73-12.24-2.32-2.53-9.67-6.98-10.02-7.5-.82-1.22,20.81-15.23,19.01-21.97l6.48,10c.94,3.38,12.08,9.32,12.5,10.01Z"/>
  <path class="cls-24" d="M695,585c-42.83,41.87-93.05-15.39-65.17-61.67,14.55-24.41,47.44-28.05,65.68-5.34,15.58,19.4,14.82,47.67-.51,67.01ZM671.34,524.34c-11.9,11.34,7.67,28.38,17.21,15.7,8.75-11.63-7.41-25.04-17.21-15.7Z"/>
  <path class="cls-39" d="M352.76,594.26c31.29-3.91,63.15,16.03,48.42,50.42-17.63,41.14-98.77,20.4-80.65-27.65,4.61-12.23,19.6-21.19,32.23-22.77Z"/>
  <path class="cls-30" d="M688,592c17.67-21.83,58.22-20.74,68.76,7.74,17.19,44.61-34.78,62.4-66.67,39.67-20.63-14.71-16.84-30.19-2.09-47.41Z"/>
  <path class="cls-32" d="M410.8,526.3c14.96-.93,31.86,3.26,43.68,12.72,8.86,7.09,22.01,23.78,11.52,34.47-11.56,11.79-21.71-6.79-30.7-12.3-13.52-8.29-25.63-7.6-38.99.61-8.7,5.34-17.31,20.1-28.83,13.21s-3.69-22.5,3.01-30.03c10.12-11.38,25.23-17.75,40.31-18.69Z"/>
  <path class="cls-12" d="M569.34,597.34c9.19-8.84,20.62.49,16.43,13.93-11.35,36.43-61.62,39.49-84.29,11.74-5.45-6.67-13.81-23.74-.78-26.79,14.75-3.46,14.3,13.47,24.36,20.22,10.64,7.13,29.15,5.88,36.77-5.1,2.56-3.69,4.44-11.05,7.51-13.99Z"/>
  <path class="cls-31" d="M663.78,437.29c8.33-.83,18.89,1.49,26.58,4.86,9.34,4.09,21.55,12.4,15.52,24.23-7.62,14.93-22.91-3.05-32.46-4.28-9.68-1.25-21.1,8.02-27.42-1.59-7.99-12.14,6.56-22.1,17.78-23.22Z"/>
</svg>