<?xml version="1.0" encoding="UTF-8"?>
<svg id="Layer_1" data-name="Layer 1" xmlns="http://www.w3.org/2000/svg" viewBox="0 0 1024 1024">
  <defs>
    <style>
      .cls-1 {
        fill: #2b0e09;
      }

      .cls-2 {
        fill: #120201;
      }

      .cls-3 {
        fill: #240b06;
      }

      .cls-4 {
        fill: #2e1e1b;
      }

      .cls-5 {
        fill: #fcf6f8;
      }

      .cls-6 {
        fill: #fdf4ee;
      }

      .cls-7 {
        fill: #583121;
      }

      .cls-8 {
        fill: #30120f;
      }

      .cls-9 {
        fill: #2b1611;
      }

      .cls-10 {
        fill: #fdf3ed;
      }

      .cls-11 {
        fill: #220603;
      }

      .cls-12 {
        fill: #fbb7e5;
      }

      .cls-13 {
        fill: #100200;
      }

      .cls-14 {
        fill: #2d0c06;
      }

      .cls-15 {
        fill: #f8c5eb;
      }

      .cls-16 {
        fill: #d1a2db;
      }

      .cls-17 {
        fill: #2b100c;
      }

      .cls-18 {
        fill: #1f0704;
      }

      .cls-19 {
        fill: #2a0b06;
      }

      .cls-20 {
        fill: #34150c;
      }

      .cls-21 {
        fill: #270904;
      }

      .cls-22 {
        fill: #f6e5ef;
      }

      .cls-23 {
        fill: #270c08;
      }

      .cls-24 {
        fill: #261207;
      }

      .cls-25 {
        fill: #573121;
      }

      .cls-26 {
        fill: #220f04;
      }

      .cls-27 {
        fill: #1e0602;
      }

      .cls-28 {
        fill: #230803;
      }

      .cls-29 {
        fill: #130100;
      }

      .cls-30 {
        fill: #2c130e;
      }

      .cls-31 {
        fill: #1e0604;
      }

      .cls-32 {
        fill: #221512;
      }

      .cls-33 {
        fill: #0c0001;
      }

      .cls-34 {
        fill: #220804;
      }

      .cls-35 {
        fill: #1b0301;
      }

      .cls-36 {
        fill: #f7c5eb;
      }

      .cls-37 {
        fill: #2e0e09;
      }

      .cls-38 {
        fill: #220904;
      }

      .cls-39 {
        fill: #381816;
      }

      .cls-40 {
        fill: #fcf0f6;
      }

      .cls-41 {
        fill: #e4acdf;
      }

      .cls-42 {
        fill: #edc0e8;
      }

      .cls-43 {
        fill: #edbfe8;
      }

      .cls-44 {
        fill: #fbf4f8;
      }

      .cls-45 {
        fill: #2c1713;
      }

      .cls-46 {
        fill: #2b0c08;
      }

      .cls-47 {
        fill: #fcf0f5;
      }

      .cls-48 {
        fill: #fe93b4;
      }

      .cls-49 {
        fill: #faeaf4;
      }

      .cls-50 {
        fill: #240a04;
      }

      .cls-51 {
        fill: #280a05;
      }

      .cls-52 {
        fill: #dca7dc;
      }

      .cls-53 {
        fill: #280e08;
      }

      .cls-54 {
        fill: #070000;
      }

      .cls-55 {
        fill: #230b07;
      }

      .cls-56 {
        fill: #2c110c;
      }

      .cls-57 {
        fill: #32130b;
      }

      .cls-58 {
        fill: #fcf4f9;
      }

      .cls-59 {
        fill: #2b0f0c;
      }

      .cls-60 {
        fill: #2c0d09;
      }

      .cls-61 {
        fill: #1f0502;
      }

      .cls-62 {
        fill: #260703;
      }

      .cls-63 {
        fill: #c99eda;
      }

      .cls-64 {
        fill: #120301;
      }
    </style>
  </defs>
  <path class="cls-25" d="M448,286c24.6-.05,152.62,0,174.52-.02,1.7.02,4.43-.63,5.48,1.02-5.47.03-11.04-.22-16.51,0-1.22.05-3.72-.75-3.48.99,13.22-.61,26.98,1.31,39.99-.99,43.25.46,91.74.93,134.48,6.02,86.35,8.86,88.02,66.43,86.52,138.98,1.06,54.14.39,108.32.98,162.52.02,1.7-.63,4.43,1.02,5.48,0,7.42.84,15.93-1,23-.03-4.48.18-9.03,0-13.51-.05-1.21.75-3.72-.99-3.48.6,9.51-1.3,19.74.99,28.99-1.47,91.01-3.95,142.97-109,149-1.61-1.65-5.39-1.19-7.54-1.03-51.7,3.71-103.63,5.37-155.46,6.04-54.56.02-110.1,1.92-164.5-1-8.79-.11-65.72.55-73.5-1-7.66-.18-16.65-.7-24,1-32.66-1.08-68.21-1.86-100.36-7.14-67.72-11.13-74.8-48.54-78.64-109.86,1.64-5.48,1.26-12.8,1.05-18.55-2.49-67.65-1.93-135.25-2.03-202.97-.02-1.7.63-4.43-1.02-5.48,1.29-75.77-5.77-139.45,86.63-150.87,41.56-5.14,89.28-5.67,131.37-6.13,14.02,2.3,28.77.38,42.99.99.23-1.74-2.27-.94-3.48-.99-6.8-.28-13.71.03-20.51,0,1.06-1.65,3.78-1,5.48-1.02,16.83-.18,33.7.02,50.52.02ZM210,325c-2.05,1.23-10.47,7.87-10.89,9.71-.42,1.84,5.3,9.1,6.89,11.29,5.88,8.08,9.85,10.74,17,17,51.4,44.01,110.29,99.6,168,134,.24.07.32,1.8,1,.49,3-5.82,2.64-19.22,8.48-25.51l12.52-16.98c2.57-2.25,6.12-5.31,9-7,.61,2.01,2.99,0,4.01-.49,19.31-9.06,37.83-8.61,57.62-1.64,1.28.45,3.4,2.22,4.37.13,3.42,1.62,7.83,4.35,10.91,6.59,2.5,1.82,13.22,12.27,14.6,12.16.91-.07,6.39-6.42,8.02-7.71,2.29-1.82,4.12-2.65,6.47-4.04,24.04-14.17,48.56-16.65,73.99-4.49,1.02.49,3.41,2.49,4.01.49,17.04,10.74,26.45,31.25,27.01,50.99,1.67.27.95-1.89.99-2.99,1.24.51.24,3.72,2,2.5,55.46-38.59,114.33-89.69,165-134.5,7.89-6.98,17.3-13.79,23-23,.67-1.08,3.53-5.61,3.63-5.97,1.09-3.89-9.49-9.72-12.63-11.03,0,0,0-1,0-1,2.11-.68-.48-1.77-2-2.51-25.81-12.54-102.29-10.68-133.54-11.45-111.82-2.77-224.08-2.64-335.92,0-34.47.81-101.48-1.03-131.59,12.41-.47.21-4.15,1.85-1.95,2.55ZM186,358c-1.17.08-2.16.84-3,1-.07.01-.41-1.1-.98-1.02-4.87,23.8-4.14,48.33-4.98,72.55-2.95,84.31-5.27,178,2.98,261.94.31,3.11.7,8.23,2.98,10.52,9.15-9.09,18.05-18.76,27-28,.42,2,2.54-1.04,3-1.5,5.41-5.42,10.1-11.09,15-16.5,15.13-17.16,31.76-31.33,48.5-47,.46-.46,3.5-2.58,1.5-3,31.3-30.23,63.34-59.68,95.06-89.47,2.47-2.6-2.3-4.97-4.06-6.53-25.26-22.39-57.6-43.3-84.47-65.03s-52.57-44.42-78.53-66.97c-.98-1.2-1.96-2.94-3-4,2-.42-1.03-2.53-1.5-3-2.23-1.93-14.97-17.36-15.5-14ZM842,359c-5.34,2.02-14.12,13.01-18.99,17.51-52.29,48.33-109.16,91.42-165.01,135.49,0,0-5.37,2.94-5.37,2.94,0,0-.16,2.09-.16,2.09,27.32,25.33,54.27,51.08,81.52,76.48,1.52,1.42,3.69,2.26,5.01,3.49,1.53,1.87,3.35,4.34,5,6-2,.42,1.04,2.54,1.5,3,10.66,10.74,40.14,43.28,50.5,48,14.89,16.14,30.17,35.57,46,50,2.05-.08,2.64-5.9,2.87-7.63,4.23-31.73,3.39-66.83,4.09-98.91,1.29-58.94,2.57-119.08.08-178-.74-17.62-1-43.7-5.93-60.09-.81-2.69-.32-.67-1.11-.38ZM547,467c-11.6,6.18-17.51,16.66-25.97,25.53-12.7,13.3-16.28-1.48-24.51-10.54-11.85-13.04-25.25-22.48-43.89-20.86-16.79,1.46-34.32,15.34-38.62,31.87-11.46,49.89,45.26,87.86,81.7,110.8,19.13,10.78,20.24,8.71,38.21-2.39,24.79-15.3,54.8-40.27,71.09-64.41,10.2-15.12,12.13-33.53,5.32-50.82-.39-.99-.73-3.64-2.32-2.18-4.63-9.37-16.74-19.57-27-22,4.84.23-.43-2-2.5-2h-17c-1.48,0-10.49,3.52-12.55,4.45-.46.21-4.15,1.84-1.95,2.55ZM387,536c-49.35,45.28-99.07,90.33-146,138-15.71,16.96-36.29,37.74-49.84,55.66-.64,3.69,11.79,14.73,14.84,17.35.07.06-1.28.46.53,1.83,16.61,12.52,96,16.19,119.47,17.17,96.32,4.03,195.06,2.4,291.46.96,19.79-.37,196.46-1.07,194.54-15.96,1.49-1.71,3.51-1.92,5-3,3.54-2.57,14.4-11.26,15.47-14.99.83-2.89-10.97-16.41-13.5-19.48-34.39-41.26-72.27-78.96-111.96-115.04-24.35-22.66-49.12-44.89-73.53-67.48-2.01-.46-1.24.61-1.71,1.27-2.02,2.82-3.19,7.9-4.78,10.73-16.43,29.24-48.02,55.97-76,74-.63-2.18-2.83.24-3.71.79-29.27,18.42-35.41,18.76-65.38,1.8-.97-.55-3.26-2.7-3.91-.59-16-9.65-31.23-21.43-45-34,0,0-4-5.5-4-5.5-3.66-3.67-7.33-7.33-11-11-.46-.46-2.58-3.5-3-1.5-4.13-4.82-8.03-9.69-11.41-15.09-2.13-3.4-9.61-19.8-10.56-20.46-1.86-1.28-5.08,3.7-6.02,4.54Z"/>
  <path class="cls-9" d="M871,600c-1.65-1.06-1-3.78-1.02-5.48-.59-54.19.08-108.38-.98-162.52h1c1.79,56.51,1.05,111.51,1,168Z"/>
  <path class="cls-4" d="M761,784c-40.89,4.07-83.85,4.96-125,5-6.74,0-14.62-.85-21,1-5.65,0-11.35,0-17,0v-1c51.82-.67,103.75-2.33,155.46-6.04,2.15-.15,5.93-.61,7.54,1.04Z"/>
  <path class="cls-20" d="M157,671c-3.01-60.59-2.1-121.34-2-182,0,0,1,0,1,0,.01,54.6.06,108.93,2.05,163.45.21,5.75.59,13.07-1.05,18.55Z"/>
  <path class="cls-32" d="M598,789v1c-51.68.02-102.43,0-154,0v-1c51.23.53,102.77.66,154,0Z"/>
  <path class="cls-54" d="M590,286h-142c47.32,0,94.68-.02,142,0Z"/>
  <path class="cls-25" d="M155,489c-.22,32.62-.33,65.38,0,98v-121c-.08,7.65.05,15.35,0,23Z"/>
  <path class="cls-45" d="M444,789s0,1,0,1c-5.32,0-10.68,0-16,0-9.49-1.84-20.21-.99-30-1-12.64,0-25.37.26-38,0v-2c7.94,1.56,64.3.89,73.5,1,2.4,0,6.92.96,10.5,1Z"/>
  <path class="cls-35" d="M156,489h-1c.05-7.65-.08-15.35,0-23s-.12-14.68,0-22c1.65,1.06,1,3.78,1.02,5.48.14,13.16-.02,26.36-.02,39.52Z"/>
  <path class="cls-29" d="M392,287c6.8.03,13.71-.28,20.51,0,1.22.05,3.72-.75,3.48.99-14.23-.61-28.97,1.31-42.99-.99,6.32-.07,12.68-.03,19,0Z"/>
  <path class="cls-64" d="M628,287c6.65-.04,13.35-.07,20,0-13.01,2.29-26.77.38-39.99.99-.23-1.74,2.27-.94,3.48-.99,5.47-.22,11.04.03,16.51,0Z"/>
  <path class="cls-13" d="M360,787v2c-7.94-.16-16.02-.74-24-1,7.35-1.7,16.34-1.18,24-1Z"/>
  <path class="cls-25" d="M428,790c-9.79,0-20.51.84-30-1,9.79,0,20.51-.84,30,1Z"/>
  <path class="cls-2" d="M870,623c.03,3.99.06,8.02,0,12-2.29-9.26-.39-19.49-.99-28.99,1.74-.23.94,2.27.99,3.48.18,4.48-.03,9.03,0,13.51Z"/>
  <path class="cls-25" d="M636,789c-6.37,1.85-14.26.99-21,1,6.38-1.85,14.26-.99,21-1Z"/>
  <path class="cls-33" d="M870,432h-1c-.12-6.33-.75-14.03,1-20,.25,6.64-.21,13.36,0,20Z"/>
  <path class="cls-36" d="M728,618c2.58,2.97,5.23,6.23,8,9-2,.42,1.04,2.54,1.5,3,6.24,6.24,40.4,41.99,44.5,43,.64.16,1.33.76,2,1,11.58,12.78,23.92,26.1,34.97,39.53,2.53,3.07,14.33,16.59,13.5,19.48-1.08,3.73-11.93,12.42-15.47,14.99l-30.79,7.71c-172.36,14.47-346.86,11.06-519.69,3.28,0,0-52.51-7.99-52.51-7.99-2.75-1.05-5.27-2.87-8-4-3.05-2.62-15.48-13.66-14.84-17.35,13.75-17.99,34.07-38.65,49.84-55.65,47.06-47.02,96.77-93.31,146-138,1.86.66,2.35.47,3.1,2.47,6.01,16.17,9.11,23.04,20.39,36.54,17.71,21.19,67.47,61.13,93.51,68.99,16.33,4.93,30.97-5.56,44.52-13.98,32.34-20.73,75.14-56.44,87.3-93.71.05-1.18-1.87-3.29-2.32-3.29-1.72,0-3.09,10.8-6.5,9.98,1.59-2.82,2.76-7.91,4.78-10.73.47-.66-.3-1.73,1.71-1.27,31.44,28.98,63.35,57.76,94.51,86.99ZM373,642c-15.68,19.74-12.08,50.66,9,65,18.29,12.34,41.27,3.58,51-15,19.59-40.23-25.42-89.54-60-50ZM595,644c-10.44,15.58-10.66,34.95-1,51,11.88,19.73,39.27,24.81,55,7,14.51-11.63,15.29-38.07,7.18-53.68-13.04-25.1-45.11-28.29-61.18-4.32ZM477,708c15.56,20.43,52.29,23.27,69,3,2.08-1.78,3.38-2.5,5-5,3.89-6.01,8.51-20.61-1.73-22.8-11.59-2.49-11.54,13.96-20.27,17.8-16.71,7.77-27.11,5.49-39-8-5-19.83-30.41-8.01-13,15Z"/>
  <path class="cls-15" d="M815,325c3.14,1.3,13.72,7.14,12.63,11.03-.1.36-2.96,4.9-3.63,5.97,0,0-23,23-23,23-50.67,44.82-109.54,95.92-165,134.5-1.75,1.22-.75-1.99-2-2.5.36-9.77-3.71-21.45-10-29-3.99-7.44-10.84-14.42-18-19-22.92-14.64-56.9-13.25-78,4-2.35,1.38-4.17,2.21-6.47,4.04-1.63,1.29-7.11,7.64-8.02,7.71-1.38.11-12.1-10.34-14.6-12.16-3.08-2.24-7.48-4.97-10.91-6.59-23.68-11.13-55.48-9.51-75,9-12.28,10.75-20.69,25.42-22,42-57.71-34.39-116.61-90-168-134,0,0-17-17-17-17-1.59-2.19-7.31-9.45-6.89-11.29,1.38-2.79,9.59-9.34,12.89-10.71.97,2.09,3.09.33,4.37-.13,26.01-9.25,73.53-9.87,102.09-10.91,114.83-4.19,233.24-2.33,348,.08,38.84.81,114.36-2.23,148.54,11.96Z"/>
  <path class="cls-42" d="M190,365c-.86,1.91-.6,2.42.3,4.11,6.94,13.14,34.58,36.67,46.69,47.4,41.04,36.38,84.91,68.45,128.4,101.63,1.48,1.13,1.5,2.76,1.63,2.86.35.25,4.76-3.87,4.9-4.64.39-2.18-4.66-3.56-2.92-5.36,1.76,1.56,6.53,3.93,4.06,6.53-62.77,58.44-125.49,116.83-184.06,179.47,0,0-.5-.98-.5-.98,0,0-4.49,3.98-4.49,3.98-4.95-49.46-4.63-98.86-4.96-148.54-.38-55.92-2.24-117.16,2.97-172.95.33-3.5,1.25-15.32,2.47-17.53,1.35-2.43,4.88,3.41,5.52,4.02Z"/>
  <path class="cls-43" d="M847,457c1.55,72.96,1.51,151.92-4.01,224.49-.51,6.68-1.21,14.05-2.99,20.51-15.28-14.06-29.73-32.59-44-48-18.3-19.75-37.31-38.64-57-57-1.32-1.23-3.49-2.07-5.01-3.49-27.25-25.4-54.2-51.15-81.52-76.48l.16-2.09,5.37-2.94c-.28,1.38-3.98,4.02-3.98,4.5,0,.38,4.62,5.46,5.93,4.04,40.28-29.7,80.31-60.17,118.07-93.03,22.33-19.44,44.27-39.54,62.99-62.51,3.75,30.43,5.35,61.55,6,92Z"/>
  <path class="cls-48" d="M547,467c23.48-11.92,47.67-6.34,61,17,8.41,17.02,5.14,36.58-3,53-16.28,24.15-46.29,49.11-71.09,64.41-17.98,11.09-19.08,13.17-38.21,2.38-23.65-13.33-59.94-41.45-73.7-64.8,2-.61,0-2.99-.49-4.01-3.48-7.27-6.55-13.29-7.39-21.61,0,0-.13-20.37-.13-20.37,4.3-16.53,21.83-30.42,38.62-31.87,18.64-1.62,32.04,7.82,43.89,20.86,8.23,9.06,11.82,23.84,24.51,10.54,8.47-8.87,14.38-19.35,25.97-25.53Z"/>
  <path class="cls-63" d="M842,359c.07.65-.1,1.37,0,2-1.37.64-1.15,2.75-1,4-51.95,60.59-117.68,107.69-181.05,155.55-1.31,1.42-5.93-3.66-5.93-4.05,55.18-47.36,115.92-89.65,168.99-139.99,4.87-4.5,13.65-15.49,18.99-17.51Z"/>
  <path class="cls-52" d="M206,379c25.96,22.56,51.77,45.33,78.53,66.97s59.21,42.63,84.47,65.03c-1.74,1.8,3.31,3.18,2.92,5.36-.14.77-4.55,4.89-4.9,4.64-.13-.1-.15-1.73-1.63-2.86-43.49-33.17-87.36-65.25-128.4-101.63-7.63-7.16-51.01-42.95-46.99-51.51,5.21,4.95,10.83,9.51,16,14Z"/>
  <path class="cls-41" d="M415,567c18.27,20.16,39.81,37.74,63,52,22.05,13.3,31.94,20.44,57,8,2.2.71-1.48,2.35-1.95,2.55-2.95,1.33-6.84,3.22-9.78,4.22-2.7.92-10.87,1.82-11.28,2.23-2.01,1.99,5.1,5.57,2.04,7.52-3.15,2.01-7.32-1.61-10.03.47-26.04-7.86-75.8-47.79-93.51-68.99-11.28-13.5-14.38-20.37-20.39-36.54-.74-2-1.24-1.81-3.1-2.47.94-.84,4.16-5.82,6.02-4.54.95.65,8.43,17.06,10.56,20.46,3.39,5.39,7.29,10.27,11.41,15.09Z"/>
  <path class="cls-16" d="M504,644c2.72-2.08,6.88,1.54,10.03-.47,3.06-1.95-4.04-5.53-2.04-7.52.41-.4,8.58-1.3,11.28-2.23,2.93-1.01,6.83-2.89,9.78-4.22.46-.21,4.15-1.85,1.95-2.55,34.35-20.22,71.87-48.93,92-84,3.41.82,4.78-9.98,6.5-9.98.45,0,2.37,2.11,2.32,3.29-12.14,37.26-54.97,72.99-87.3,93.71-13.55,8.42-28.19,18.91-44.52,13.98Z"/>
  <path class="cls-21" d="M815,324c-17.01-7.14-36.2-8.59-54.52-9.98-38.7-2.95-78.22-2.34-117.02-2.98-102.78-1.67-207.25-3.23-310-.08-29.38,1.09-99.61.99-123.46,14.04-2.2-.71,1.48-2.34,1.95-2.55,30.11-13.44,97.12-11.59,131.59-12.41,111.84-2.64,224.1-2.77,335.92,0,31.25.77,107.73-1.09,133.54,11.45,1.52.74,4.11,1.82,2,2.51Z"/>
  <path class="cls-44" d="M817,748c-1.49,1.08-3.5,1.29-5,3-25.5,7.85-53.84,10.26-80.51,11.99-86.77,5.6-177.89,3.49-264.95,2.98-81.31-1.84-173.79,6.27-252.54-14.96,0,0,52.51,7.99,52.51,7.99,172.83,7.77,347.33,11.19,519.69-3.28,0,0,30.79-7.71,30.79-7.71Z"/>
  <path class="cls-58" d="M815,324v1c-34.18-14.19-109.69-11.15-148.54-11.96-114.76-2.41-233.17-4.27-348-.08-28.56,1.04-76.08,1.67-102.09,10.91-1.28.46-3.4,2.22-4.37.13,23-11.58,93.3-12.18,121.46-13.04,102.75-3.15,207.22-1.59,310,.08,38.8.63,78.33.02,117.02,2.98,18.32,1.4,37.51,2.84,54.52,9.98Z"/>
  <path class="cls-62" d="M812,751c2.49,14.82-175.32,15.62-194.54,15.96-96.41,1.44-195.14,3.07-291.46-.96,0,0,0-1,0-1,134.35.82,271.27,4.9,405.49-2.01,26.68-1.72,55.01-4.14,80.51-11.99Z"/>
  <path class="cls-40" d="M186,358c4.87,6.41,11.42,11.31,17,17,1.04,1.06,2.02,2.8,3,4-5.17-4.49-10.79-9.05-16-14-.64-.61-4.17-6.45-5.52-4.02-9.19,61.15-5.29,128.7-5.44,190.48.34,49.67.01,99.08,4.97,148.54l4.49-3.98.49.98s-6,6-6,6c-9.59-102.39-10.07-217-2.99-319.49.63-8.18,2.21-16.36,2.99-24.51.84-.16,1.83-.92,3-1Z"/>
  <path class="cls-14" d="M183,359c-.78,8.16-2.36,16.33-2.99,24.51-7.09,102.53-6.6,217.06,2.98,319.49-2.28-2.29-2.67-7.41-2.98-10.52-8.25-83.94-5.93-177.63-2.98-261.94.85-24.23.11-48.75,4.98-72.55.57-.08.91,1.03.98,1.02Z"/>
  <path class="cls-51" d="M842,704c9.08-81.13,7.67-166.46,6-248-.55-32.45-1.48-64.92-6-97,.79-.3.3-2.32,1.11.37,4.93,16.38,5.19,42.47,5.93,60.09,2.49,58.92,1.21,119.06-.08,178-.7,32.08.14,67.18-4.09,98.91-.23,1.73-.82,7.55-2.87,7.63Z"/>
  <path class="cls-49" d="M842,704c-1.24.05-1.45-1.5-2-2,1.77-6.47,2.48-13.83,2.99-20.51,5.53-72.56,5.56-151.53,4.01-224.49l1-1c1.67,81.55,3.08,166.86-6,248Z"/>
  <path class="cls-19" d="M214,751c25.37,9.72,83.48,12.92,112,14v1c-23.47-.98-102.85-4.65-119.47-17.17-1.81-1.37-.46-1.77-.53-1.83,2.73,1.13,5.25,2.95,8,4Z"/>
  <path class="cls-1" d="M606,449c-.61,2-2.99,0-4.01-.49-25.43-12.16-49.94-9.68-73.99,4.49,21.1-17.25,55.08-18.64,78-4Z"/>
  <path class="cls-57" d="M551,617c-29.88,20.68-42.95,22.07-73,2,.66-2.11,2.94.04,3.91.59,29.96,16.96,36.11,16.62,65.38-1.8.88-.55,3.07-2.98,3.71-.79Z"/>
  <path class="cls-47" d="M796,654c-1.03-.57-1.93-1.52-3-2-15.55-17.09-32.74-32.63-49-49-1.65-1.66-3.47-4.13-5-6,19.69,18.36,38.7,37.25,57,57Z"/>
  <path class="cls-31" d="M784,674c-.67-.24-1.36-.84-2-1-14.57-16.07-30.71-30.66-46-46-2.77-2.77-5.42-6.03-8-9,19.28,18.05,38.24,36.39,56,56Z"/>
  <path class="cls-46" d="M488,446c-.97,2.1-3.09.32-4.37-.13-19.79-6.97-38.31-7.41-57.62,1.64-1.03.48-3.4,2.49-4.01.49,19.57-11.5,45.61-11.67,66-2Z"/>
  <path class="cls-61" d="M793,652c-7.91-3.53-38.68-37.19-47.5-46-.46-.46-3.5-2.58-1.5-3,16.26,16.37,33.45,31.91,49,49Z"/>
  <path class="cls-26" d="M605,537c8.14-16.42,11.41-35.98,3-53,1.59-1.46,1.93,1.19,2.32,2.18,6.81,17.29,4.88,35.7-5.32,50.82Z"/>
  <path class="cls-59" d="M413,455l-12.52,16.98c-5.84,6.29-5.48,19.69-8.48,25.51-.67,1.31-.76-.42-1-.49,1.31-16.58,9.72-31.25,22-42Z"/>
  <path class="cls-12" d="M422,539c-8.13-13.79-12.1-30.23-8-46l.13,20.37c.84,8.33,3.91,14.34,7.39,21.61.49,1.02,2.49,3.41.49,4.01Z"/>
  <path class="cls-50" d="M270,645l-29,29c9.53-10.33,18.73-19.44,29-29Z"/>
  <path class="cls-24" d="M547,467c-2.2-.71,1.48-2.34,1.95-2.55,2.06-.93,11.07-4.45,12.55-4.45h17c2.07,0,7.34,2.23,2.5,2-10.85-2.57-24.21-.22-34,5Z"/>
  <path class="cls-28" d="M801,365l23-23c-5.7,9.21-15.11,16.02-23,23Z"/>
  <path class="cls-23" d="M634,497c-.04,1.1.68,3.26-.99,2.99-.02-11.12-3.82-22.3-9.01-31.99,6.29,7.55,10.36,19.23,10,29Z"/>
  <path class="cls-34" d="M259,626c5.68-6.97,12.57-12.79,19-19,2,.42-1.04,2.54-1.5,3-5.74,5.74-11.77,10.77-17.5,16Z"/>
  <path class="cls-38" d="M433,585c-6.29-5.74-12.45-11.52-18-18,.42-2,2.54,1.04,3,1.5,3.67,3.67,7.34,7.33,11,11l4,5.5Z"/>
  <path class="cls-18" d="M210,675c5.87-6.11,11.37-12.65,18-18-4.9,5.41-9.59,11.08-15,16.5-.46.46-2.58,3.5-3,1.5Z"/>
  <path class="cls-11" d="M203,375c-5.58-5.69-12.13-10.59-17-17,.48-3.44,13.8,12.66,15.5,14,.47.47,3.5,2.58,1.5,3Z"/>
  <path class="cls-27" d="M223,363c-7.15-6.26-11.12-8.92-17-17l17,17Z"/>
  <path class="cls-25" d="M649,702c-16.84,13.5-41.89,12.32-54-7-5.53-8.82-7.12-23.04-5.74-33.24l5.74-17.76c16.07-23.97,48.14-20.78,61.18,4.32,8.11,15.61,7.33,42.05-7.18,53.68ZM631,648c-11.3,11.56,3.43,26.3,15,15l.5.98c9.19-9.57-3.92-24.54-14.88-17.86-1.25.76-2.35,1.73-.61,1.88Z"/>
  <path class="cls-25" d="M428,642l5.71,13.79c1.9,6.7,2.89,13.59,2.16,20.59l-2.88,15.63c-.89,1.89-2.7,4.28-4,6l-10.31,8.19c-6.84,3.84-14.23,5.57-22.08,4.69l-14.61-3.89c-3.22-2.11-8.78-7.81-11-11l-5.72-19.78c-.82-6.39-.32-12.83,1.44-19l6.28-15.22c14.86-19.06,40.19-19.14,55,0ZM407,648c-5.96,7.7-5.68,11.03,1,18,.05.05-1.11.74-.08,1.43,9.17,6.13,23.39-7.47,14.61-18.45-3.6-4.51-12.04-6.79-16.05-1.98-.99,1.19.56.97.53,1.01Z"/>
  <path class="cls-7" d="M551,706c-10.94,12.77-26.74,18.44-43.49,16.99,0,0-15.51-2.99-15.51-2.99-5.52-2.56-11.42-7.08-15-12,0,0-3.9-11.59-3.9-11.59-1.58-7.73,1.7-13.71,10.19-11.19,3.61,1.07,3.53,5.62,5.26,7.88.71.93,1.4-.16,1.45-.1,11.89,13.49,22.29,15.77,39,8,.09-.04.75,1.15,1.91.56,7.12-3.66,8.34-18.48,17.15-17.14,5.97.91,6.51,6.95,5.7,11.84-.57,3.46-4.1,6.52-2.76,9.74Z"/>
  <path class="cls-56" d="M649,702c-15.73,17.81-43.12,12.73-55-7h1c12.11,19.32,37.16,20.5,54,7Z"/>
  <path class="cls-5" d="M782,673c-4.1-1.01-38.26-36.76-44.5-43-.46-.46-3.5-2.58-1.5-3,15.29,15.34,31.43,29.93,46,46Z"/>
  <path class="cls-39" d="M371,696c-11.18-16.11-10.01-38.6,2-54l-6.28,15.22c-1.76,6.16-2.26,12.61-1.44,19l5.72,19.78Z"/>
  <path class="cls-8" d="M546,711c-12.4,15.51-36.83,16.97-54,9l15.51,2.99c14.65,1.2,27.37-2.52,38.49-11.99Z"/>
  <path class="cls-37" d="M595,695h-1c-9.66-16.05-9.44-35.42,1-51l-5.74,17.76c-1.38,10.2.21,24.42,5.74,33.24Z"/>
  <path class="cls-30" d="M433,692l2.88-15.63c.73-6.99-.26-13.88-2.16-20.59l-5.71-13.79c10.89,14.07,12.49,34.01,5,50Z"/>
  <path class="cls-17" d="M551,706c-1.34-3.22,2.18-6.28,2.76-9.74.81-4.89.27-10.93-5.7-11.84-8.81-1.34-10.03,13.48-17.15,17.14-1.16.59-1.82-.6-1.91-.56,8.73-3.84,8.68-20.29,20.27-17.8,10.25,2.2,5.62,16.79,1.73,22.8Z"/>
  <path class="cls-55" d="M429,698c-11.29,14.96-30.91,19.56-47,9l14.61,3.89c7.85.88,15.24-.86,22.08-4.69l10.31-8.19Z"/>
  <path class="cls-60" d="M490,693c-.05-.05-.74,1.03-1.45.1-1.73-2.26-1.65-6.81-5.26-7.88-8.49-2.52-11.77,3.47-10.19,11.19l3.9,11.59c-2.21-3.04-5.55-8.93-5.94-12.61-1.58-15.24,15.86-16.92,18.94-2.39Z"/>
  <path class="cls-22" d="M848,456l-1,1c-.65-30.45-2.25-61.57-6-92-.15-1.25-.37-3.36,1-4,5.12,31.4,5.16,63.25,6,95Z"/>
  <path class="cls-10" d="M646,663c-11.57,11.3-26.3-3.44-15-15,10.4-6.78,21.75,4.73,15,15Z"/>
  <path class="cls-3" d="M646,663c6.75-10.27-4.6-21.78-15-15-1.73-.16-.64-1.12.61-1.88,10.97-6.67,24.07,8.3,14.88,17.86l-.5-.98Z"/>
  <path class="cls-6" d="M408,666c-6.68-6.97-6.96-10.3-1-18,20.98-9.84,23.24,24.64,1,18Z"/>
  <path class="cls-53" d="M408,666c22.24,6.64,19.98-27.84-1-18,.03-.05-1.52.18-.53-1.01,4.01-4.8,12.45-2.52,16.05,1.98,8.78,10.99-5.44,24.58-14.61,18.45-1.03-.69.13-1.38.08-1.43Z"/>
</svg>