<?xml version="1.0" encoding="UTF-8"?>
<svg id="Layer_1" data-name="Layer 1" xmlns="http://www.w3.org/2000/svg" width="1024" height="1024" viewBox="0 0 1024 1024">
  <defs>
    <style>
      .cls-1 {
        fill: #653627;
      }

      .cls-2 {
        fill: #410400;
      }

      .cls-3 {
        fill: #c6b0f1;
      }

      .cls-4 {
        fill: #fedc68;
      }

      .cls-5 {
        fill: #fd9ae6;
      }

      .cls-6 {
        fill: #7ff0e4;
      }

      .cls-7 {
        fill: #c6b0f0;
      }

      .cls-8 {
        fill: #2c0200;
      }
    </style>
  </defs>
  <path class="cls-1" d="M834,480v38c69.78,23.9,92.68,110.08,79.7,176.2-15.96,89.2-96.21,162.42-189.21,129.21-2.73.1-11.21,5.94-16.99,6.59-23.52,2.64-47.91-14.5-58.05-34.96-9.17-18.5-8.32-34.3-4.99-54.08,9.84-58.52,27.76-128.15,43.02-185.98,9.89-37.47,26.23-67.37,70.99-63.97,12.48.95,17.2,8.86,16.56-7.56-.9-23.28-5.63-46.55-9.56-69.43-25.34-9.6-33.98-37.39-49.06-57.94-92.48-126.11-319.13-125.07-410.83,1.01-14.39,19.78-22.73,47.24-47.39,56.11-4.39,26.76-8.42,53.61-9.2,80.8,45.5-12.37,75.73,11.77,85.92,55.58,16.51,57.01,32.31,126.01,43.59,184.41,4.56,23.6,7.63,40.61-3.99,63.03s-40.36,39.78-64.78,30.74c-2.95-1.09-7.72-4.74-10.1-4.72-179.29,65.11-268.56-246.64-109.64-304.04,1.92-1.76,1.35-33.15,0-38,.75-21.77,3.93-42.93,8.31-64.19.76-3.7,5.54-18.56,5.29-20.34-.09-.63-5.62-8.11-6.78-10.79-10.63-24.46,8.79-67.93,20.66-90.7,120.3-230.8,535.91-209.33,609.02,50.02,4.16,14.75,7.25,26.19.98,40.98-1.38,3.25-6.47,10.02-6.44,12.39.06,6.14,6.23,23.39,7.67,31.43,2.84,15.91,4.67,34.04,5.3,50.2ZM507.82,154.27c-117.79.94-229.88,52.22-280,163.06-5.45,12.05-16.84,39.86-16.45,52.36.47,15.14,19.95,28.63,34.14,28.32,18.64-.42,34.72-37.51,44.67-51.31,103.26-140.74,352.43-139.07,448.44,9.18,15.33,22.38,26.56,56.82,60.69,34.95,24.69-15.82,9.11-44.6.15-65.79-50.32-118.95-166.8-171.77-291.64-170.77ZM804.99,409c-.73-.53-7.65,3.43-9.45,4.04-4.21,1.43-11.41.86-11.49,5.32s3.71,15.81,4.63,21.47c3.65,22.33,4.81,44.81,4.51,67.49,1.41,4.65,17.35,4.22,21.8,5.7.59-15.96,1.33-31.52,0-47.49-.54-6.41-7.66-54.81-10-56.51ZM241,416.01s-22-6.01-22-6.01c-7.94,32.5-13.22,65.96-9.95,99.57-.04,1.69-1.24,4.29-1.05,4.43.96.7,21.73-1.48,21.78-6.71,1.66-30.67,2.96-61.54,11.22-91.27ZM268.76,509.26c-12.91,1.55-30.58,9.6-31.74,24.26,7.96,44.85,20.96,89.04,31.5,133.47,8.97,37.85,15.47,85.15,27.02,120.98,14.63,45.41,64.71,17.37,68.35-18.6,2.39-23.65-15.3-84.17-21.36-110.39-8.25-35.7-17.21-87.31-29.74-120.26-6.56-17.24-24.95-31.75-44.02-29.47ZM746.78,509.29c-15.88,1.85-30.55,15.47-35.8,30.19-12.42,48.99-24.45,98.19-35.49,147.51-4.94,22.08-17.43,63.47-14.21,84.23,5.33,34.33,49.1,60.18,67.46,19.02,17.17-83.81,37.33-166.92,58.15-249.85,3.69-20.92-22.91-33.1-40.11-31.1ZM149,743c24.85,47.27,79.38,86.46,134,63.98-26.48-84.57-37.96-176.08-64-261.48,0,0,0-14.5,0-14.5-43.09,7.39-71.34,31.16-84.77,72.73-15.62,48.34-9.39,95.37,14.77,139.27ZM749,783c-2.1,8.8-3.3,18.05-8,25.99,110.96,30.4,183.33-112.12,149.46-204.95-12.64-39.72-42.28-67.2-84.45-72.04.54,5.3-.5,9.91-1.5,15.01-6.74,34.48-18.04,70.31-26.21,104.79-10.34,43.59-18.92,87.66-29.3,131.2Z"/>
  <path class="cls-1" d="M914.36,314.64c1.91,1.94,7.53,6.17,9.95,7.55,7.33,4.19,21.53,4.49,19.5,16.05-1.45,8.23-12.28,9.08-18.5,12.57-8.17,4.59-16.13,13.52-19.8,22.2-3.32,7.87-2.69,26.12-10.47,28.54-13.99,4.35-12.09-17.74-15.33-26.77s-11.25-18.98-19.41-23.59c-6.88-3.89-18.05-3.53-20.39-11.69-3.22-11.26,11.47-13.66,18.41-17.69,9.58-5.57,16.69-13.79,20.86-24.14,3.42-8.5,3.02-24.53,16.1-21.47,6.27,1.47,7.63,18.49,10.24,24.77,1.83,4.4,5.53,10.29,8.84,13.66ZM918.99,336.01c-12.74-5.23-21.87-16.82-27.5-29.01-2.48,10.32-9.83,17.76-18.18,23.81-1.37.99-8.17,4.24-8.32,4.7-.53,1.65,9.3,5.37,10.47,7.52,7.52,6.45,12.98,13.9,17.04,22.96,2.82-8.58,8.28-16.05,15.03-21.96l11.46-8.02Z"/>
  <path class="cls-2" d="M834,518v-38c.49,12.62-.36,25.37,0,38Z"/>
  <path class="cls-8" d="M190,519c.32-12.63-.44-25.38,0-38,1.35,4.85,1.92,36.24,0,38Z"/>
  <path class="cls-3" d="M507.82,154.27c124.85-1,241.33,51.82,291.64,170.77,8.96,21.19,24.54,49.96-.15,65.79-34.12,21.87-45.36-12.57-60.69-34.95-96-148.24-345.2-149.92-448.45-9.18-9.95,13.81-26.03,50.9-44.67,51.31-14.19.32-33.67-13.18-34.14-28.32-.39-12.5,11-40.31,16.45-52.36,50.12-110.83,162.21-162.12,280-163.06Z"/>
  <path class="cls-7" d="M268.76,509.26c19.07-2.29,37.46,12.22,44.02,29.47,12.53,32.95,21.48,84.56,29.74,120.26,6.06,26.22,23.75,86.73,21.36,110.39-3.63,35.97-53.72,64.01-68.35,18.6-11.55-35.83-18.04-83.14-27.02-120.98-10.53-44.43-23.53-88.62-31.5-133.47,1.16-14.66,18.83-22.71,31.74-24.26Z"/>
  <path class="cls-3" d="M746.78,509.29c17.19-2,43.8,10.19,40.11,31.1-20.82,82.93-40.98,166.04-58.15,249.85-18.36,41.15-62.13,15.3-67.46-19.02-3.23-20.76,9.26-62.15,14.21-84.23,11.04-49.32,23.07-98.52,35.49-147.51,5.25-14.72,19.92-28.34,35.8-30.19Z"/>
  <path class="cls-3" d="M149,743c-43.68-72.21-28.17-198.57,70-212,0,0,0,14.5,0,14.5,22.7,78.13,36.94,158.59,56,237.5-48.11,19.25-94.39-3.42-126-40ZM202.76,621.26c-3.3.44-7.46,2-10.44,3.56s-9.13,7.83-10.03,8.05c-1.35.32-11.93-4.09-16.73-3.9-8.7.34-19.17,7-23.75,14.34-17.64,28.31,15.06,62.71,37.29,77.1,3.87,2.51,18.57,11,22.39,10.61,21.03-19.15,39.44-52.52,36.24-82.23-2.11-17.61-17.13-29.87-34.96-27.52Z"/>
  <path class="cls-3" d="M876,742c-30.82,37.03-79.33,60.52-127,41,10.37-43.55,18.96-87.61,29.3-131.2,8.18-34.48,19.47-70.3,26.21-104.79,1-5.1,2.04-9.71,1.5-15.01,42.17,4.84,71.82,32.33,84.45,72.04,15.38,48.33,9.48,94.07-14.46,137.96ZM811.74,621.25c-37.12,5.78-24.96,54.5-13.6,77.12,2.48,4.95,21.11,33.67,25.17,33.47,1.74-.09,11.37-5.07,13.71-6.31,21.36-11.34,52.91-39.51,50.97-66.01-1.03-14.05-14.43-30.6-29.44-30.53-4.87.02-15.22,4.81-16.06,4.74-.94-.07-4.96-4.99-6.58-6.13-7.15-5.07-15.29-7.73-24.17-6.34Z"/>
  <path class="cls-6" d="M275,783c.89,3.68,8.75,22.97,8,23.99-54.63,22.47-109.14-16.71-134-63.99,31.61,36.58,77.89,59.25,126,40Z"/>
  <path class="cls-6" d="M876,742c-25.06,49.28-78.72,84.27-135,66.99,4.7-7.94,5.9-17.19,8-25.99,47.67,19.52,96.18-3.97,127-41Z"/>
  <path class="cls-3" d="M241,416.01c-8.27,29.72-9.56,60.59-11.22,91.27-.05,5.24-20.81,7.41-21.78,6.71-.18-.13,1.01-2.74,1.05-4.43-3.27-33.6,2.01-67.07,9.95-99.57,0,0,22,6.01,22,6.01Z"/>
  <path class="cls-3" d="M804.99,409c2.34,1.71,9.46,50.1,10,56.51,1.34,15.97.6,31.52,0,47.49-4.45-1.47-20.39-1.05-21.8-5.7.3-22.68-.86-45.15-4.51-67.49-.92-5.66-4.71-16.9-4.63-21.47s7.27-3.88,11.49-5.32c1.8-.61,8.72-4.57,9.45-4.04Z"/>
  <path class="cls-4" d="M918.99,336.01l-11.46,8.02c-6.75,5.91-12.21,13.38-15.03,21.96-4.06-9.06-9.51-16.51-17.04-22.96-1.18-2.16-11-5.87-10.47-7.52.15-.45,6.95-3.71,8.32-4.7,8.35-6.04,15.71-13.48,18.18-23.81,5.63,12.19,14.76,23.78,27.5,29.01Z"/>
  <path class="cls-1" d="M202.76,621.26c17.83-2.35,32.85,9.91,34.96,27.52,3.2,29.69-15.21,63.11-36.24,82.23-3.81.4-18.52-8.1-22.39-10.61-22.23-14.39-54.93-48.79-37.29-77.1,4.57-7.34,15.05-14,23.75-14.34,4.8-.19,15.38,4.22,16.73,3.9.91-.22,7.11-6.52,10.03-8.05s7.14-3.12,10.44-3.56ZM215.65,640.35c-2.9-2.8-8.32-2.94-12.09-2.29-7.56,1.31-14.15,14.77-14.57,21.93-6.81-7.89-19.66-20.81-30.5-12.01-18.08,14.69,10.06,43.75,22.03,52.99,1.97,1.52,15.98,10.85,16.99,10.78,2.62-.19,14-17.83,15.67-21.07,6.72-13.01,14.72-38.51,2.47-50.34Z"/>
  <path class="cls-1" d="M811.74,621.25c8.88-1.38,17.02,1.27,24.17,6.34,1.62,1.15,5.64,6.06,6.58,6.13.84.07,11.19-4.72,16.06-4.74,15.01-.07,28.41,16.48,29.44,30.53,1.94,26.5-29.61,54.67-50.97,66.01-2.34,1.24-11.97,6.22-13.71,6.31-4.06.21-22.68-28.52-25.17-33.47-11.36-22.62-23.52-71.33,13.6-77.12ZM836.01,659.99c-2.12-12.26-12.88-29.88-26.95-19.43-14.04,10.43-2.87,39.7,3.77,52.11,1.63,3.04,11.43,18.73,13.82,19.17.88.16,8.76-4.48,10.27-5.42,14.12-8.79,49.03-40.38,29.57-57.42-11.24-9.73-23.14,2.36-30.48,10.98Z"/>
  <path class="cls-5" d="M215.65,640.35c12.25,11.82,4.25,37.32-2.47,50.34-1.67,3.24-13.05,20.88-15.67,21.07-1,.07-15.01-9.26-16.99-10.78-11.97-9.24-40.11-38.3-22.03-52.99,10.84-8.8,23.68,4.11,30.5,12.01.42-7.16,7.01-20.62,14.57-21.93,3.78-.66,9.19-.51,12.09,2.29Z"/>
  <path class="cls-5" d="M836.01,659.99c7.34-8.62,19.24-20.72,30.48-10.99,19.46,17.04-15.45,48.62-29.57,57.42-1.51.94-9.39,5.59-10.27,5.42-2.39-.45-12.19-16.13-13.82-19.17-6.64-12.41-17.8-41.68-3.77-52.11,14.07-10.45,24.83,7.17,26.95,19.43Z"/>
</svg>