<?xml version="1.0" encoding="UTF-8"?>
<svg id="Layer_1" data-name="Layer 1" xmlns="http://www.w3.org/2000/svg" width="1024" height="1024" viewBox="0 0 1024 1024">
  <defs>
    <style>
      .cls-1 {
        fill: #571c0f;
      }

      .cls-2 {
        fill: #fef0a6;
      }

      .cls-3 {
        fill: #3d0900;
      }

      .cls-4 {
        fill: #6e4632;
      }

      .cls-5 {
        fill: #68422f;
      }

      .cls-6 {
        fill: #c9f7f1;
      }

      .cls-7 {
        fill: #cdf7f2;
      }

      .cls-8 {
        fill: #ce9fda;
      }

      .cls-9 {
        fill: #441a20;
      }

      .cls-10 {
        fill: #b3c79e;
      }

      .cls-11 {
        fill: #febe58;
      }

      .cls-12 {
        fill: #6e4633;
      }

      .cls-13 {
        fill: #6e4733;
      }

      .cls-14 {
        fill: #b4e5cd;
      }

      .cls-15 {
        fill: #fed66d;
      }
    </style>
  </defs>
  <path class="cls-4" d="M625,222c62.86-76.62,170.01-72.32,248.91-23.41,8.81,5.46,27.54,15.96,28.13,26.95-29.45,73-113.72,129.71-194.04,122.47,175.1,178.5,7.6,480.14-219.8,505.69-206.55,35.04-400.2-99.62-242.33-303.34,49.74-135.68,129.1-279.94,294.13-274.36,1.28,2.4,7.58,1.65,8,2.01-1.78,5.18-.08,12.44,1.45,18.05.31,1.07,2.87,3.7,2.55,3.93-1.03.75-21.68-1.11-25.55-1.04-13.12.24-27.09,2.79-40.02,5l.57,1.05c-137.24,25.59-179.24,168.42-231.82,277.68-213.62,307.32,448.99,367.01,498.82-21.68.05,1.11-.69,3.26.99,2.99,2.5-26.76,3.56-53.87-1.02-80.48l-.97.48c-10.61-64.58-52.59-121.06-109-153,2.21-.76-1.48-2.28-1.97-2.53-2.02-1.04-24.86-11.38-24.03-12.46.4-.52,10.62-5.74,11.76-5.83,2.73-.21,4.24,2.07,6.67,1.82.4-.04,7.24-2.31,7.59-2.49,2.69-1.37-3.47-5.09-6.39-4.57-3.09,6.64-2.58-2.74-1.62-3.94.52-.65,13.36,6.74,14.98,7.51,1.02.49,3.41,2.49,4.01.49,10.77,5.18,15.76,8.19,28,11l-.57,1.05c34.05,8.08,64.19,6.54,96.51-6.61.31-.13,5.68-1.57,3.06-2.44,37.89-16.35,72.22-47.37,92.9-82.67.14-1.48-.78-1.5-1.52-2.2-65.88-48.45-170.75-58.84-228.38,7.87-1.2-2.1-3.46,3.53-4.99,2-.26-.26.11-5.29-4.55-4.65-1.28.18-2.4,3.35-4.94,2.64-1.82-.51-2.03-4.53-1.06-6.03,1.93-2.98,4.31,2.03,5.03,2.01,3.85-.08-3.17-8.51-3.69-8.81-1.59-.9-4.1,1.22-5.81-.17Z"/>
  <path class="cls-13" d="M281.77,198.2c32.43,1.14,5.13,62.92,73.45,79.08,9.89,3.06,24.86,1.9,24.86,17.22.78,24.42-52.47,9.05-71.56,52.52-4.84,10.13-7.6,29.76-12.68,37.32-4.37,6.5-12.37,8.41-19.19,4.51-8.6-4.92-11.22-26.96-15.17-36.83-16.67-48.09-67.54-31.76-71.53-57.55-.44-15.23,16.04-14.76,26.04-17.97,61.82-17.44,37.79-67.53,65.78-78.3ZM335.99,294.01c-24.24-6.46-45.54-27.55-51-52.01-8.33,20.75-23.18,41.09-44.71,49.77-2.3.98-9.58,1.21-4.87,3.33,23.83,7.53,40.67,27.86,49.1,50.89,7.11-24.48,28.33-42.92,51.49-51.98Z"/>
  <path class="cls-5" d="M561,213c6.33,21.93,14.97,43.57,13.11,66.9l23.89,5.1c-.96-8.41,3.63-17.17,2.91-25.37-.67-7.64-7.8-23.86-11.9-30.62,1.41-3.62,7.5,13.35,8.74,14.8.66,1.35-.63,2.75,2.26,2.19-1.86-4.72.61-8.16.88-11.44.13-1.62-1.77-4.91-.76-6.44.4-.6,3.3-.55,3.74-1.27.82-1.32-1.03-5.81,2.6-5.86,5.36-.06,6.52,10.3,8.54,8,1.22-1.39-4.53-6.11-1.99-7.99,5.76,14.57,3.77,12.04,12,1,1.71,1.39,4.22-.73,5.81.17.53.3,7.55,8.72,3.69,8.81-.72.02-3.1-4.99-5.03-2.01-.97,1.5-.76,5.52,1.06,6.03,2.53.71,3.66-2.47,4.94-2.64,4.65-.64,4.29,4.39,4.55,4.65,1.53,1.53,3.79-4.1,4.99-2-9.11,10.04-19.96,27.81-24,39.99,33.94-19.33,77.75-38.09,117.63-41.86,6.62-.68,15.17-2.57,20.42,2.32,6.36,5.91,4.25,17.79-4.01,20.09-7.69,2.14-19.61,2.13-28.22,3.78-35.11,6.69-64.74,19.64-95.82,36.69-.86,1.12,22.07,12.06,24,12.99-.61,2-2.99,0-4.01-.49-1.62-.77-14.45-8.17-14.98-7.51-.96,1.2-1.47,10.59,1.62,3.94,2.92-.52,9.08,3.21,6.39,4.57-.36.18-7.19,2.45-7.59,2.49-2.43.25-3.94-2.04-6.67-1.82-1.14.09-11.36,5.31-11.76,5.83-.83,1.08,22.01,11.41,24.03,12.46.49.25,4.18,1.77,1.97,2.53-46.59-26.39-104.21-36.69-157-26l-.57-1.05c12.93-2.21,26.9-4.76,40.02-5,3.86-.07,24.51,1.79,25.55,1.04.32-.23-2.24-2.86-2.55-3.93-1.53-5.6-3.22-12.9-1.45-18.05-.42-.36-6.72.39-8-2.01,2.13,0,10.15,1.85,11,1s-.45-17.16-1-20l1.14-.66.87,12.65,4.8-10.77c-.31-5.26-3.45-14.77-2.82-19.65,7.16-8.74-2.01-22.06,7.01-25.58ZM596,308.99c.31-.24-3.54-4.76-3.83-6.75-.5-3.45,2.76-7.52-.67-10.22-2.31,3.08-8.03,2.94-10.44,4.54-1.47.97-1.63,3.65-3.78,4.29-1.79.54-6.99-.93-8.28.15-1.88,1.57.5,1.7,1.46,2.03,2.39.82,24.51,6.76,25.54,5.96Z"/>
  <path class="cls-4" d="M613,221c-2.53,1.88,3.22,6.61,1.99,7.99-2.02,2.29-3.18-8.07-8.54-8-3.63.04-1.78,4.54-2.6,5.86-.44.71-3.34.66-3.74,1.27-1.01,1.54.89,4.82.76,6.44-.27,3.28-2.74,6.71-.88,11.44-2.89.56-1.6-.84-2.26-2.19-1.26-1.47-7.29-18.38-8.74-14.8-6.3-10.41-15.49-20.14-28.5-21.02-2.79-.19,0,3.3.5,5.02-8.99,3.45.13,16.88-7.01,25.58-.63,4.88,2.51,14.39,2.82,19.65,0,0-4.8,10.77-4.8,10.77l-.87-12.65-1.14.66c-3.04-15.57-16.85-43.48-14.91-57.41,1.84-13.19,15.72-17.41,27.39-16.57,22.86,1.65,39.93,19.14,50.52,37.98Z"/>
  <path class="cls-3" d="M780,536c-1.67-6.81-1.68-16.1,0-23,.31,7.36.23,15.62,0,23Z"/>
  <path class="cls-15" d="M644,331c84.41,45.73,127.53,146.92,108,240l-2-1.49c-63.21,203.1-317.15,296.04-499,207.49-65.01-59.1-41.44-131.67,4.18-194.33,31.98-57.51,48.37-121.13,86.01-175.99,62.71-99.73,200.65-137.23,302.81-75.69ZM453.73,350.24c-15.3,2.58-54.12,33.25-66.26,44.73s-42.12,46.17-44.21,61.78c-3.53,26.37,29.32,39.35,46.17,17.18,14.3-18.83,20.85-33.19,40.04-49.96,14.24-12.44,31.28-19.4,44.85-30.15,21.03-16.64,5.15-47.93-20.59-43.59ZM598.76,519.26c-52.12,7.08-48.11,109.72,12.63,102.63,61.66-7.19,56.77-112.06-12.63-102.63ZM388.79,520.3c-59.14,5.38-54.29,110.74,6.69,104.69,61.61-6.11,57.33-110.51-6.69-104.69ZM464.77,618.19c-31.05,10.19,10.23,54.86,44.24,44.32,13.35-3.07,51.43-25.08,35.04-41.05-13.07-12.73-21.01,8.62-29.36,13.74-34.99,16.12-32.97-18.51-49.92-17.01Z"/>
  <path class="cls-14" d="M809,196c21.8,5.56,46.53,17.72,64.38,31.13.75.7,1.66.71,1.52,2.2-20.33,34.54-53.77,65.47-90.9,81.67-.95-2.06-3.09-.36-4.37.12-22.16,8.28-39.92,13.31-64.11,11.87-8.16-.49-17.7-3.95-25.51-1.99-2.28-.41-4.71-.47-7-1-12.24-2.81-17.23-5.82-28-11-1.93-.93-24.86-11.87-24-12.99,31.08-17.06,60.7-30.01,95.82-36.69,8.62-1.64,20.53-1.63,28.22-3.78,8.26-2.3,10.37-14.19,4.01-20.09-5.25-4.88-13.8-3-20.42-2.32-39.86,3.77-83.71,22.54-117.63,41.86,10.05-28.14,33.49-54.5,60-68.99,45.24-17.43,80.04-22.29,128-10Z"/>
  <path class="cls-11" d="M752,571c-31.87,220.82-324.48,345.21-501,206,181.86,88.55,435.79-4.41,499-207.49l2,1.49Z"/>
  <path class="cls-6" d="M809,196c-47.95-12.29-82.77-7.43-128,10,40.1-22.92,84.61-21.97,128-10Z"/>
  <path class="cls-7" d="M784,311c-29.01,14.06-62.75,16.25-94,10,7.81-1.96,17.35,1.5,25.51,1.99,24.19,1.44,41.95-3.59,64.11-11.87,1.29-.48,3.43-2.18,4.37-.12Z"/>
  <path class="cls-1" d="M782,312c2.62.87-2.75,2.32-3.06,2.44-32.32,13.15-62.46,14.69-96.51,6.61l.57-1.05c35.75,6.98,64.94,7.08,99-8Z"/>
  <path class="cls-9" d="M753,484l.97-.48c4.59,26.6,3.52,53.71,1.02,80.48-1.68.26-.94-1.89-.99-2.99,2.4-24.97,3.42-52.1-1-77Z"/>
  <path class="cls-8" d="M335.99,294.01c-23.18,9.08-44.36,27.49-51.49,51.98-8.43-23.03-25.27-43.36-49.1-50.89-4.7-2.11,2.57-2.34,4.87-3.33,21.53-8.69,36.38-29.02,44.71-49.77,5.46,24.46,26.76,45.55,51,52.01Z"/>
  <path class="cls-10" d="M589,229c4.1,6.77,11.23,22.99,11.9,30.62.72,8.2-3.87,16.97-2.91,25.37l-23.89-5.1c1.86-23.32-6.77-44.97-13.11-66.9-.49-1.71-3.29-5.21-.5-5.02,13.01.87,22.2,10.61,28.5,21.02Z"/>
  <path class="cls-4" d="M596,308.99c-1.03.81-23.16-5.13-25.54-5.96-.95-.33-3.34-.45-1.46-2.03,1.29-1.08,6.49.39,8.28-.15,2.15-.65,2.31-3.32,3.78-4.29,2.41-1.59,8.13-1.46,10.44-4.54,3.43,2.7.17,6.77.67,10.22.29,1.99,4.13,6.51,3.83,6.75Z"/>
  <path class="cls-2" d="M453.73,350.24c25.74-4.34,41.62,26.95,20.59,43.59-13.57,10.74-30.62,17.7-44.85,30.15-19.19,16.78-25.73,31.14-40.04,49.96-16.85,22.17-49.7,9.2-46.17-17.18,2.09-15.61,32.25-50.48,44.21-61.78s50.96-42.15,66.26-44.73Z"/>
  <path class="cls-12" d="M388.79,520.3c64.02-5.82,68.3,98.58,6.69,104.69-60.98,6.05-65.84-99.32-6.69-104.69ZM403.77,541.2c-16.88,2.12-14.83,29.35,3.6,27.76,18.22-1.57,15.92-30.21-3.6-27.76Z"/>
  <path class="cls-12" d="M598.76,519.26c69.4-9.43,74.29,95.43,12.63,102.63-60.74,7.09-64.75-95.55-12.63-102.63ZM616.71,538.21c-13.37,3-12.6,25.44,2.8,26.79,22.87,2,20.87-32.09-2.8-26.79Z"/>
  <path class="cls-4" d="M464.77,618.19c16.87-1.56,14.99,33.14,49.92,17.01,8.34-5.12,16.29-26.47,29.36-13.74,16.39,15.97-21.7,37.98-35.04,41.05-34.03,10.54-75.28-34.14-44.24-44.32Z"/>
  <path class="cls-4" d="M737,324c-6.1,1.68-14.81,1.68-21,0,6.56.22,14.52.43,21,0Z"/>
</svg>