<?xml version="1.0" encoding="UTF-8"?>
<svg id="Layer_1" data-name="Layer 1" xmlns="http://www.w3.org/2000/svg" width="1024" height="1024" viewBox="0 0 1024 1024">
  <defs>
    <style>
      .cls-1 {
        fill: #fdc759;
      }

      .cls-2 {
        fill: #77aeda;
      }

      .cls-3 {
        fill: #925342;
      }

      .cls-4 {
        fill: #917399;
      }

      .cls-5 {
        fill: #f7be77;
      }

      .cls-6 {
        fill: #fcaccf;
      }

      .cls-7 {
        fill: #915242;
      }

      .cls-8 {
        fill: #99dfe5;
      }

      .cls-9 {
        fill: #522826;
      }

      .cls-10 {
        fill: #d2abee;
      }

      .cls-11 {
        fill: #6a4168;
      }

      .cls-12 {
        fill: #835377;
      }

      .cls-13 {
        fill: #63395e;
      }

      .cls-14 {
        fill: #ce9be0;
      }

      .cls-15 {
        fill: #7c506c;
      }

      .cls-16 {
        fill: #d5a1ea;
      }

      .cls-17 {
        fill: #fcaaca;
      }

      .cls-18 {
        fill: #94e0a5;
      }

      .cls-19 {
        fill: #af84d4;
      }

      .cls-20 {
        fill: #bdbdea;
      }

      .cls-21 {
        fill: #b597d7;
      }

      .cls-22 {
        fill: #fc9bc4;
      }

      .cls-23 {
        fill: #724a71;
      }

      .cls-24 {
        fill: #7ab5cb;
      }

      .cls-25 {
        fill: #f36865;
      }

      .cls-26 {
        fill: #8c7da9;
      }

      .cls-27 {
        fill: #905141;
      }

      .cls-28 {
        fill: #fca9cc;
      }

      .cls-29 {
        fill: #f9c357;
      }

      .cls-30 {
        fill: #fcaece;
      }

      .cls-31 {
        fill: #d7a3eb;
      }

      .cls-32 {
        fill: #89da9e;
      }

      .cls-33 {
        fill: #8fd7b2;
      }

      .cls-34 {
        fill: #7c6282;
      }

      .cls-35 {
        fill: #cfb2ed;
      }

      .cls-36 {
        fill: #fa9ac1;
      }

      .cls-37 {
        fill: #89677a;
      }

      .cls-38 {
        fill: #593d57;
      }

      .cls-39 {
        fill: #aa8abf;
      }

      .cls-40 {
        fill: #9c71ad;
      }

      .cls-41 {
        fill: #90d89d;
      }

      .cls-42 {
        fill: #744c6d;
      }

      .cls-43 {
        fill: #522823;
      }

      .cls-44 {
        fill: #d5a0ea;
      }

      .cls-45 {
        fill: #d4a3ed;
      }

      .cls-46 {
        fill: #ceb1ee;
      }

      .cls-47 {
        fill: #633652;
      }

      .cls-48 {
        fill: #8d7fa2;
      }

      .cls-49 {
        fill: #98dfe6;
      }

      .cls-50 {
        fill: #703f57;
      }

      .cls-51 {
        fill: #fc9ec0;
      }

      .cls-52 {
        fill: #8f6d61;
      }

      .cls-53 {
        fill: #8d5064;
      }

      .cls-54 {
        fill: #e996df;
      }

      .cls-55 {
        fill: #d1aeed;
      }

      .cls-56 {
        fill: #8f78c2;
      }

      .cls-57 {
        fill: #845171;
      }

      .cls-58 {
        fill: #96dfe6;
      }

      .cls-59 {
        fill: #b4684b;
      }

      .cls-60 {
        fill: #693f6b;
      }

      .cls-61 {
        fill: #cc9de2;
      }

      .cls-62 {
        fill: #fde292;
      }

      .cls-63 {
        fill: #d5a0eb;
      }

      .cls-64 {
        fill: #fcabcf;
      }

      .cls-65 {
        fill: #ceaeef;
      }

      .cls-66 {
        fill: #552921;
      }

      .cls-67 {
        fill: #edafec;
      }

      .cls-68 {
        fill: #d4a0ea;
      }

      .cls-69 {
        fill: #fcadcc;
      }

      .cls-70 {
        fill: #53292e;
      }

      .cls-71 {
        fill: #fde596;
      }

      .cls-72 {
        fill: #a77b97;
      }

      .cls-73 {
        fill: #fc9ac3;
      }

      .cls-74 {
        fill: #fde495;
      }

      .cls-75 {
        fill: #945544;
      }

      .cls-76 {
        fill: #935e5b;
      }

      .cls-77 {
        fill: #fc98bf;
      }

      .cls-78 {
        fill: #af8bdb;
      }

      .cls-79 {
        fill: #a27fce;
      }

      .cls-80 {
        fill: #d5a1eb;
      }

      .cls-81 {
        fill: #90537f;
      }

      .cls-82 {
        fill: #915342;
      }

      .cls-83 {
        fill: #caaee7;
      }

      .cls-84 {
        fill: #c195dc;
      }

      .cls-85 {
        fill: #d7a4ed;
      }

      .cls-86 {
        fill: #cdb2ee;
      }

      .cls-87 {
        fill: #a385d6;
      }

      .cls-88 {
        fill: #fca8ca;
      }

      .cls-89 {
        fill: #8a5256;
      }

      .cls-90 {
        fill: #7aaebc;
      }

      .cls-91 {
        fill: #fc9cbc;
      }

      .cls-92 {
        fill: #fdc3d3;
      }

      .cls-93 {
        fill: #b58dd5;
      }

      .cls-94 {
        fill: #986360;
      }

      .cls-95 {
        fill: #d6a2ec;
      }

      .cls-96 {
        fill: #9178c2;
      }

      .cls-97 {
        fill: #fccf63;
      }

      .cls-98 {
        fill: #fc98c1;
      }

      .cls-99 {
        fill: #b3684b;
      }

      .cls-100 {
        fill: #99dfe6;
      }

      .cls-101 {
        fill: #98dfe7;
      }

      .cls-102 {
        fill: #755177;
      }

      .cls-103 {
        fill: #7a4f73;
      }

      .cls-104 {
        fill: #a2566c;
      }

      .cls-105 {
        fill: #f492d6;
      }

      .cls-106 {
        fill: #47231d;
      }

      .cls-107 {
        fill: #935342;
      }

      .cls-108 {
        fill: #b56a86;
      }

      .cls-109 {
        fill: #ecafec;
      }

      .cls-110 {
        fill: #9b7d53;
      }

      .cls-111 {
        fill: #fcadcd;
      }

      .cls-112 {
        fill: #8e5143;
      }

      .cls-113 {
        fill: #8f79c4;
      }

      .cls-114 {
        fill: #d5a2ed;
      }

      .cls-115 {
        fill: #eeb1ed;
      }

      .cls-116 {
        fill: #cbadef;
      }

      .cls-117 {
        fill: #814f6a;
      }

      .cls-118 {
        fill: #687b8d;
      }

      .cls-119 {
        fill: #fb9cc2;
      }

      .cls-120 {
        fill: #9985b3;
      }

      .cls-121 {
        fill: #fcabce;
      }

      .cls-122 {
        fill: #b18cd3;
      }

      .cls-123 {
        fill: #7b5586;
      }

      .cls-124 {
        fill: #745081;
      }

      .cls-125 {
        fill: #542a2f;
      }

      .cls-126 {
        fill: #b28ddb;
      }

      .cls-127 {
        fill: #fde496;
      }

      .cls-128 {
        fill: #fcf1e7;
      }

      .cls-129 {
        fill: #8e7ac4;
      }

      .cls-130 {
        fill: #d0b1ee;
      }

      .cls-131 {
        fill: #fa9ec1;
      }

      .cls-132 {
        fill: #fc9cc2;
      }

      .cls-133 {
        fill: #8b6c81;
      }

      .cls-134 {
        fill: #9874a0;
      }

      .cls-135 {
        fill: #82516d;
      }

      .cls-136 {
        fill: #4b251f;
      }

      .cls-137 {
        fill: #f69155;
      }

      .cls-138 {
        fill: #ae8adc;
      }

      .cls-139 {
        fill: #cda9ef;
      }

      .cls-140 {
        fill: #fca5c8;
      }

      .cls-141 {
        fill: #905242;
      }

      .cls-142 {
        fill: #fcaacf;
      }

      .cls-143 {
        fill: #98e0e7;
      }

      .cls-144 {
        fill: #ae8cdb;
      }

      .cls-145 {
        fill: #8f7297;
      }

      .cls-146 {
        fill: #d5a2ec;
      }

      .cls-147 {
        fill: #905241;
      }

      .cls-148 {
        fill: #512822;
      }

      .cls-149 {
        fill: #a887d9;
      }

      .cls-150 {
        fill: #d396dc;
      }

      .cls-151 {
        fill: #d1a5ee;
      }

      .cls-152 {
        fill: #4f2721;
      }

      .cls-153 {
        fill: #522922;
      }

      .cls-154 {
        fill: #b294d8;
      }

      .cls-155 {
        fill: #ad89da;
      }

      .cls-156 {
        fill: #7c5e89;
      }

      .cls-157 {
        fill: #674166;
      }

      .cls-158 {
        fill: #98dfe4;
      }

      .cls-159 {
        fill: #935546;
      }

      .cls-160 {
        fill: #f77991;
      }

      .cls-161 {
        fill: #fcdd83;
      }

      .cls-162 {
        fill: #6e4567;
      }

      .cls-163 {
        fill: #8ad698;
      }

      .cls-164 {
        fill: #bad080;
      }

      .cls-165 {
        fill: #fbe399;
      }

      .cls-166 {
        fill: #a888db;
      }

      .cls-167 {
        fill: #f09dc9;
      }

      .cls-168 {
        fill: #97dfe7;
      }

      .cls-169 {
        fill: #8982ad;
      }

      .cls-170 {
        fill: #c091cd;
      }

      .cls-171 {
        fill: #7b739f;
      }

      .cls-172 {
        fill: #dc7ac7;
      }

      .cls-173 {
        fill: #ccabea;
      }

      .cls-174 {
        fill: #7e4e6a;
      }

      .cls-175 {
        fill: #fdadcd;
      }

      .cls-176 {
        fill: #6f4773;
      }

      .cls-177 {
        fill: #7c4b59;
      }

      .cls-178 {
        fill: #fb9aba;
      }

      .cls-179 {
        fill: #a897d2;
      }

      .cls-180 {
        fill: #fde494;
      }

      .cls-181 {
        fill: #9f6d97;
      }

      .cls-182 {
        fill: #e78ac6;
      }

      .cls-183 {
        fill: #82588c;
      }

      .cls-184 {
        fill: #fde08d;
      }

      .cls-185 {
        fill: #fdf0e5;
      }

      .cls-186 {
        fill: #8f5140;
      }

      .cls-187 {
        fill: #5f2f26;
      }

      .cls-188 {
        fill: #b4694c;
      }

      .cls-189 {
        fill: #fcca5e;
      }

      .cls-190 {
        fill: #8f5246;
      }

      .cls-191 {
        fill: #fbd362;
      }

      .cls-192 {
        fill: #fca4c6;
      }

      .cls-193 {
        fill: #fcaed0;
      }

      .cls-194 {
        fill: #977b58;
      }

      .cls-195 {
        fill: #fca8cb;
      }

      .cls-196 {
        fill: #8f699e;
      }

      .cls-197 {
        fill: #94dfa7;
      }

      .cls-198 {
        fill: #f0a6de;
      }

      .cls-199 {
        fill: #79b4c8;
      }

      .cls-200 {
        fill: #ccadf0;
      }

      .cls-201 {
        fill: #99e0e7;
      }

      .cls-202 {
        fill: #75587d;
      }

      .cls-203 {
        fill: #673a35;
      }

      .cls-204 {
        fill: #d7a3ee;
      }

      .cls-205 {
        fill: #8a5f80;
      }

      .cls-206 {
        fill: #592b22;
      }

      .cls-207 {
        fill: #724976;
      }

      .cls-208 {
        fill: #daa6ef;
      }

      .cls-209 {
        fill: #a0cce3;
      }

      .cls-210 {
        fill: #6eb099;
      }

      .cls-211 {
        fill: #79496c;
      }

      .cls-212 {
        fill: #b489d9;
      }

      .cls-213 {
        fill: #a084d6;
      }

      .cls-214 {
        fill: #d5a0e9;
      }

      .cls-215 {
        fill: #ea984e;
      }

      .cls-216 {
        fill: #d6a0ea;
      }

      .cls-217 {
        fill: #d2a8ec;
      }

      .cls-218 {
        fill: #ceb2ee;
      }

      .cls-219 {
        fill: #fcaace;
      }

      .cls-220 {
        fill: #d0b0eb;
      }

      .cls-221 {
        fill: #7f5072;
      }

      .cls-222 {
        fill: #7c5f84;
      }

      .cls-223 {
        fill: #f496c2;
      }

      .cls-224 {
        fill: #935443;
      }

      .cls-225 {
        fill: #94dedc;
      }

      .cls-226 {
        fill: #fceca2;
      }

      .cls-227 {
        fill: #764e73;
      }

      .cls-228 {
        fill: #7a496e;
      }

      .cls-229 {
        fill: #84c4e6;
      }

      .cls-230 {
        fill: #955861;
      }

      .cls-231 {
        fill: #d9a3eb;
      }

      .cls-232 {
        fill: #765492;
      }

      .cls-233 {
        fill: #fde597;
      }

      .cls-234 {
        fill: #ba95f2;
      }
    </style>
  </defs>
  <path class="cls-9" d="M532,78c78.97-5.25,157.67,58.34,166,138h19c2.6-13.29-2.89-30.51-8-43,1.89-2.54,1.82,5.72,4,2.99.72-.91-2.24-4.92,0-5.99,3.49,7.78,6.44,18.25,9,26,.78,5.5-1.16,14.5-.02,19.3.29,1.21,6.54,3.1,7.02,5.7-.14.55,2.86,4.41-.49,3.99-1.72-7.29-5.67-5.25-7.68-9.82-1.17-.52-4.35,1.34-4.83,2.34-.88,1.83,4.03,2.42,5.5,3.48,2.12,1.72,7.75,6.6,4.49,9.01-1.4-5.92-5.09-8.51-11-9-1.04-1.66-3.8-1-5.49-1.02-16.53-.17-23.67-1.12-22.5,18.51.66,10.97,2.86,15.33,14.5,16.5,24.33,1.03,23.53-1.63,25.5-23.98l1.98,1.99c-1-4.15,2.61-5.76,4.01-7.99-1.72,4.32-2.66,6.29-3,11-3.75-2.64-1.05,1.93-1.28,3.36-.5,3.04-2.58,10.11-4.29,12.56-3.85,6.57-7.58,2.08-10.42,5.06,7.53-.7,13.43,3.23,19.32,7.18.48.32,3.78,2.27,1.67,2.83-13.3-9.75-18.82-9.34-34-9,3.22,7.31-8.97,11.78-14.01,16.49-28.97,29.81-39.1,91.56-8.99,123.51-2.04,2.63-3.21-3.72-4.99-1.99-1.65,2.5,5.08,3.44,3.99,5.99-38.12-30.24-22.45-101.75,8.53-131.97,2.25-1.97,11.47-7.13,11.28-9.55-.08-1.04-9.81-7.68-11.74-5.99-5.52,5.62-13.6,7.69-19.11,12.96-30.84,31.3-46.42,100.96-7.95,131.55-10.54,7.09-20.86,15.42-34,17.01.82,4.81,19.68,13.16,20,14.51,1.38,5.91-17.6,7.93-21.5,7.47-12.53-1.46-14.89-17.74-18.16-18.84-4.3-1.45-14.44,1.49-16.76,5.92-1.92,3.66-4.29,23.83-2.12,26.97,3.87,5.58,27.08-5.23,33.15-5.94,90.14-10.54,61.25,128.68,69.66,180.12,1.93,11.78,7.03,18.44,11.2,28.8,10.34,25.71,15.37,51.97,21.03,79.02,15.74-.28,25.49,8.15,23.48,24.25,11.18,7.49,11.51,14.99,8.1,27.62,12.45,2.51,25.92,5.53,37.66,9.85,10.88,2.08,15.98,1.86,26.58,7.42,11.74,6.16,16.4,13.34,24.73,22.27,9.12,9.21,1.67,16.91-7.04,16.54,7.89,21.36-57.87-2.4-67.99-2-.6,2.59.76,1.75,1.89,2.58,4.09,3.02,11.13,6.38,12.04,11.97,3.79,23.16-28.54,6.52-38.71,4.72-19.77-1.77-35.25-3.3-52.63-14.19-10.99,16.03-31.23,28.22-50.87,24.1-25.88,20.08-66.56,19.57-91.28-2.2-30.74.99-57.31,9.73-88.23-.7-4.07-.52-27.41-15.52-25.22-9.28-3.58-2.26-2.8,3-2.95,4.91.58.43,3.34.37,4.58.92,1.32.59,1.35,1.57,1.65,1.75,1.6.96,4.43-.89.72,4.41-3.44-4.62-7.09-7.21-13-4l-3-2c2.61-1.19,5.15-1.8,8-2,.54-11.11-8.31-12.72-14.52-19.98-5.63-6.59-11.53-21.34-19.76-24.24-9.09-3.21-3.85,1.86-6.66,5.8-4.47,6.27-19.38,6.45-26.06,4.43-.67.68,4.27,8.48,4.99,10,.55,2.25-1.29,2.28-3,3-1.23-2.31-7.1-14.1-8.01-14.54-1.54-.74-8.73.38-9.57,1.48-1.84,7.03,6.57,4.78,10.95,8.19,6.9,5.69,3.84,18.5-5.37,18.87l-3-2c20.09-6.17,4.77-28.77-22-6v-3s-2,0-2,0c3.72-4.15,13.07-8.23,17.08-10.63,2.17-10.35-17.63-14.22-24.09-6.87-2.96,3.37-5.32,12.03-5.99,16.51-2.05-2.2.47-3.97-3-4,.4-9.17,6-14.25,12-20l14,1c9.5,5.88,14.49,1.36,24.49,2.02,6.17.41,23.17,5.61,23.56-4.54.36-9.43-5.23-19.07-13.15-23.87-10.65-6.45-21.55-3.83-33.18-7.42-1.96.3-6.47,5.8-8.71,7.81l-.92-.47,1.91-5.53-2.99,1c39.39-36.36-77.6-128.6-88-60-2.91.08-1.31-1.71-6,1,2.79-10.27,5.69-23.24,16.1-28.4,2.05-.97,7.57-1.6,8.66-2.85,9.08-24.29,24.19-56.82,49.24-67.74-80.15-41.86-116.05,34.71-78,100.99-.36.28,1.2,3.47-4,1-38.66-59-10.13-141.25,69.99-114-2.23-6.8-5.12-14.48-5.87-21.62-.43-4.07.68-10.45-.1-13.67-11.28-8.04-17.82-23.83-13.52-37.71.71-2.35,3.12-5.81,3.26-6.66-3.58-17.12-5.76-19.24,7.23-32.81.04-2.45-6.24-13.88-6.87-19.14-3.09-26.65,7.28-74.9,39.47-78.31,2.38-1.82,3.31-8.55,6.42-10.08,1.76-.99,4.76.24,6.08-1.42,2.23-4.04-2.59-2.92,1.92-7.58.98.1,3.12,2.19,4,3-9.74,8.25-13.54,20.58-18.99,31.51,8.04,2.64,2.58,10.63,3.22,13.87,8.87,9.34,3.66,19.22.05,28.39-1.15,3.9-5.59,19.35-5.27,22.23,50.02,58.39,171.01,9.29,151-72-12.25-53.31-76.26-63.12-117-35l-.98-.5c3.01-1.59,1.28-3.86-1.02-3.5v-2c2.09.99,3.88,1.89,5-.99-3.4-1.62-11.26-3.77-6-8.01,3.13,6.95,8.22,9.99,13.92,3.34.38-1.27-7.39-20.91-7.92-25.34-2.37-23.62,2.41-49.28,12.99-70.51-2.19-1.63-4.47,1.34-5.99,2.51-2.35-2.06.76-6.01,0-9h.97c.02.73.25,1.88,1.02,2s11.22-5.76,13.59-5.97c-2.25-11.4,3.36-22.06,5.41-33.03,4.74-5.16,6.68-9.95,6.5-17l-4.5,5c19.51-36.99,31.67-74.16,69-98,2.07-.29,5.09-.33,7-1l2,3c-28.32,11.41-70.26,64.31-59.51,94.99,20.82-35.7,50.59-64.87,86.21-85.8,5.63-2.75,12.32-5.27,13.3-12.2.24-.35.74-.63,1-1,3.17,2.06-5.82,10.16-1.49,10.99,3.49.84.71-11.04,5.49-9.99.5,2.16-.91,2.92-1.75,4.73-1.25,4.54,1.47,2.89,4.26,5.26,16.48,13.97,28.6,39.17,43.98,56.02,9.14,10.01,34.82,33.6,47.48,36.55,7.9-4.29-4.08-35.16-6.97-42.57,1.86-.87,2.96.79,4-2,15.61,30.85,27.06,56.26,57.68,75.82,29.84,21.39,21.29-13.54,15.33-30.83-2.2-12.05-5.97-24.85-11-36,.01-1.35-.44-2.3.99-2-.31,3.29,1.85,2.63,3.01,0,10.57,21.27,15.32,45.56,18.01,69,9.97-1.03.2-21.06,1-26.41.38-3.74,3.53-4.58,4.48-6.61-7.18-69.38-75.66-129.01-145.49-130.98.8-3.84,2.5-3.17,6-3,72.4,5.25,130.23,60.78,146.01,130,.56.55,2.11.72,1.78-1.27-11.14-76.81-82.56-135.28-159.79-132.73l-.67-.81-4.33-.2c-.62-2.21,1.02-2.31,3-3ZM471,148c-14.57,10.51-32.37,25.86-43.98,39.52-9.45,11.12-15.4,24.94-26.02,34.98l18-10.5c9.44-2.89,26.68-2.37,31.87,7.63,7.47,14.38-14.03,2.82-18.36,2.38-18.35-1.88-26.09,8.1-38.51,18-1.37-.26-3.05,2.46-3.01-.49.02-1.16,2.43.34,2-1.49-7.85-1.95,5.11-10.21,7-14.01-7.67,1.43-5.19-10.17-6.5-15.01-19.13,29.95-11.23,66.17-7.51,98.5,2.09,22.25-11.08,34.9-7.91,55.4,28.23-4.68,49.56-2.31,72.36,14.99,7.96.34,1.86-4.47,4.05-8.9.82-1.67,3.11-2.46,4.91-1.94,3.57,1.04-.88,4.92-.29,7.24,1.15,4.51,24.57,10.13,29.38,10.13,10.18,0,31.77-8.15,26.5-21.42,12.45,2.58,3.31,13.89-3.07,18.43-7.57,5.38-18.65,8.04-27.84,7.66-1.12,7.76-4.41,20.2-13.09,21.93-.39.52,1.68,4.99,1.91,6.55.45,3.04.38,15.3,2.83,16.41,51.32,11.67,102.9-7.05,145.18-35.55,22.86-19.17,15.96-11.98,9.06-38.44.75-8.13-.54-17.22.01-25.49,1.43-21.55,11.76-46.55,24.99-63.51,1.2-1.54,7.45-5.09,5.58-8.02-20.45-10.83-41.08-30.56-53.08-50.98-2.06,5.75-.17,13.64-7.5,16-28.94-10.98-51.6-36.09-69.82-60.68-5.29-7.21-22.13-36.43-30.69-36.41-3.57,0-24.23,14.02-28.5,17.1ZM374.99,268c-19.56,17.55-23.46,64.96-13.74,89.24,2.55,6.52,3.3,12.09,11.79,7.09-1.52-15.55,1.89-29.27,8.42-43.18l-6.47-53.15ZM467.18,404.82c8.67.98,12.36-9.83,10.34-16.84-3.58-1.55-21.11-9.31-23.51-5.97l13.17,22.81ZM611,412.99c5.88,1.71,38.02-8.32,36.93-14.36-.11-.59-7.35-8.73-8.3-8.56l-28.63,22.92ZM349,527c12.38-15.8-7.89-10.32-15.51-18.99.2,5.04-.72,9.22-1.49,13.99-2.94-2.14-1.52-5.97-2.47-9.03-2.68-8.68-10.12-13.59-16.05-19.96l-.48,1.98-5,1.01c-.9-1.04,3.62-20.03,4.49-23,2.64-9.02,13.58-25.36,3.15-30.92-11.91,9.18-14.92,25.93-23.63,36.92-.21-10.78,6.58-24.75,13.48-33.01,4.13-4.94,11.97-8.35,11.21-15.37s-8.4-1.52-11.24,1.34c-6.81,6.89-10.14,17.85-14.97,26.06-.76,1.29.18,2.52-2.48,1.97,1.61-15.31,11.88-32.32,25.5-38.99,1-1.72.22-5.06,2.5-6.99-21.86,3.37-30.66,32.62-32.88,51.61-2.39,20.53,1.03,21.79,7.34,39.42,3.6,32.12,36.98,50.73,58.54,21.96ZM621.8,418.22c-2.31-1.35-8.61,1.39-11.79-.22,3.01,15.19,13.38,16.7,26.99,13.99-2.3-3.49-6.7-4.67-10.01-7.48-1.7-1.44-4.84-6.08-5.19-6.29ZM581.99,427.01c-20.94,8.35-42.24,15.18-65,16-1.68,25.67,40.81,12.45,53.31,4.8,10.05-6.06,10.4-8.95,11.69-20.8ZM514,443c-13.43.62-26.72-1.3-39.98-2.98l-3.02,15.98c5.75-1.03,11.13,1.57,16.51,1.99,3.77.3,23.99-.56,25.48-3.73.64-1.36,1.5-10.76,1.01-11.26ZM578.99,448c-14.74,10.08-33.53,15.96-51.49,13.98-3.3-.27-18.05-5.04-9.53,4.53,15.58,12.58,47.48,1.97,61.82-7.71,1.21-2.05-1.74-8-.81-10.8ZM594,550c-.29,4.91,10.68,17.14,13.5,22.01,1.08,1.86-1.9.64-2.5,1.99-19.37-12.46-19.76-50.82-46.85-50.34-20.99,1.65-55.36,20.93-69.18,36.81-6.11,7.02-10.14,9.36-.97,14.53,2.17,1.22,2.92.61,4,1,.48,7.94-3.62,7.84,4,14l-7-1.5c24.62,24.97,65.42,34.35,99.44,32.45,9.18-1.46,20.99-27.19,22.32-35.68-.76-16.38-2.5-31.13-4.76-47.26l5,1.99c13.14,77.95,18.24,149.97,54.52,221.98,4.43,8.79,4.21,8.84,14.71,7.74,10.73-1.12,26.52-6.96,33.77-15.23,11.57-10.89-17.44-93.06-25.16-107.82-20.72-50.87,6.76-136.48-25.41-178.59-12.64-16.54-38.88-20.64-57.42-12.59-6.88,2.99-14.98,23.83-17.74,31.26-3.55,9.51-11.83,33.04-8.71,42.2,0,0,14.46,21.04,14.46,21.04ZM596,457c-2.25,0-4.54-.53-6.57.92-12.88,16.76-22.06,40.07-29.43,60.06,5.51-1.12,9.07,1.98,13.99,3.01,2.84-15.73,7.74-31.73,14.15-46.36,1.21-2.75,9.21-16.27,7.86-17.64ZM350,632c2.6,1.46,13.03,5.43,14.96,4.54,15.79-15.88,33.25-30.43,46.02-49.01-19.58-33.28-2.49-66.13,28.52-83.53,16.8-14.2,31.42-30.95,50.49-42.5-5.3-.26-15.13-3.32-20-1-2.41,1.15-4.24,9.1-6,12-11.85,19.57-36.72,34.96-58,42-8.25,2.73-11.7.67-17.97,8.03-3.9,4.56-6.75,10.94-12.85,13.67,4.5,19.89,3,22.26-6.18,39.35.54,10.38,4.46,26.25,1,36.45h-2.99c.64-3.76-.62-30.74-4.49-30.97-20.19,14.85-46.3,16.68-68.5,4.98-.71,8.67,2.01,29.68,9.47,35.02,11.98,6.25,33.37,10.04,46.53,10.97ZM503.73,461.21c-16.64,4.08-48.11,33.78-57.7,44.29,0,.32,2.9,3.14,3.69,3.36,4.33,1.22,5.96-4.01,8.39-6.26,11.61-10.76,23.45-21.33,35.98-31.02,2.13-1.86,19.2-10.26,9.65-10.38ZM560,474c-13.73,3.45-27.59,4.32-40.99-.99-.3,2.17,1.95,3.05,2.54,4.95,2.1,6.81-.69,6.19,5.46,12.04,12.15,7.65,3.35,7.01-4.03,12.47-2.81,3.15-3.11,13.34-9.99,11.14-2.81-.89-3-4.41-5.46-4.65-3.22-.32-7.3,3.53-11.45,3.58-6.99.08.51-12.53.65-15.19.19-3.45-3.85-5.91-2.59-9.68.71-2.12,13.59-6.03,17.33-11.71,2.12-3.22,4.03-9.69-1.73-8.83-18.63,9.81-38.2,29.69-54.24,43.9-1.73,3.55,2.09,6.27,3.68,9.3,6.67,12.71,13.4,25.63,16.84,39.66,4.32-7.01,9.89-25.17,19.99-23.98-2.57,5.16-14.61,19.37-13.5,23.98,18.89-22.02,44.79-35.78,73.02-41.98,5.54-18.86,13.34-37.27,24.48-53.52-1.29-2.11-17.17,8.28-19.99,9.5ZM514.99,507c-2.09-5.16,7.79-10.66,8.01-11.53.35-1.43-9.08-8.68-6.01-13.47-4.82,4.21-10.85,6.5-16.99,8.01,5.8,5.11,2.54,8.74,1,14.98,9.38-1.83,6.21-1.2,13.99,2ZM412,573c1.68,5.01,8.92,22.09,14.62,22.72,15.03-.91,33.55-4.51,40.38-19.72,1.41.49,2.1-1.28,3-2,1.55-1.01,4.23-1.77,4-3.39-2.61-11.63-18-53.51-27.63-58.48-6.47-3.34-14.04,3.51-18.9,7.84-17.15,15.29-22.87,30.95-15.47,53.03ZM360.11,519.13c-4.4,25.26-40.39,34.48-59.13,18.39-8.47-7.17-10.73-15.58-14.49-25.49-11.2,8.4-10.24,17.99-2.72,28.7,19.73,30.72,78.85,27.67,84.27-12.19-.03-.67-1.2-8.21-1.48-8.55-.98-1.18-5.69-1.53-6.46-.86ZM384,517.01l-13,1,2.01,12.99c1.77,2.18,12.14-12.96,10.99-13.99ZM362.65,574.65c9.01-9.54,11.51-22.25,7.34-34.65-23.55,38.16-63.82,42.53-89.49,4.02-15.34,43.08,58.88,59.08,82.15,30.63ZM477.67,575.26c-11.63.57-9.8,24.5,1.89,17.79,7.92-4.55,4.81-18.12-1.89-17.79ZM463.99,588.01c-.4-.34-6.64,2.83-6.99,3.98,1.08.54,9.05-2.23,6.99-3.98ZM415.99,593.01l-46.01,47.51c11.8-.07,22.39,2.98,33.57,6.19,4.1-3.84,5.42-11.09,12.45-9.71-.05-8.25,1.84-16.32-.05-24.45,0-3.38,1.58-18.32.04-19.54ZM559,636c5.41,2.35,20.42,1.45,25.58.08,3.24-1.31,7.18-8.85,4.47-10.62-2.06-1.34-21-.13-25.53-.47-25.98-1.79-56.07-15.11-77.05-29.02-8.91,2.46-13.15,6.62-20.05-3.03-1.34-.11-12.5,4.35-16.02,4.95-9.38,1.59-18.95,1.16-28.35.15.04,2.76-2.22,9.68-.9,11.81,1.5,2.41,15.33.21,18.86.14,49.95-.99,75.28,20.44,119,26ZM651.01,768l7.57-10.06c-12.7-28.43-26.5-56.85-32.29-87.73-5.21-22.8-4.16-54.01-14.28-74.21-1.02,10-11.26,21.68-16.49,28.03-1.31,2.95-.8,7.48-2.64,11.36-1.58,3.33-4.24,4.13-4.85,5.4-.92,1.92-1.63,12.68-1.1,14.59.17.63,3.15,1.1,4.63,2.55,8.75,8.5,3.36,20.55,5.97,27.04.34.84,9.35,14.3,10.03,14.96,3.93,3.83,7.47,2.18,11.25,8.75,4.44,7.72,1.6,13.74,3.7,18.3,8.99,12,21.89,26.7,28.49,41.02ZM567,661c21.44,4.4,13.57-3.92,15-20-52.96,6.3-99.21-37.95-158.06-25.56-1.33.92-1.52,23.29-.44,25.56,14.08,8.71,37.76,11.77,54.3,15.7,7.71,1.52,41.34,8.07,46.59,7.07,1.96-.37,4.32-5.13,11.1-4.83,5.83.26,5.44,5.02,8.2,5.87,7.12,2.19,16.6-1.51,23.31-3.82ZM425,757c-12.37-24.81.15-50.86-15.83-73.67-14.04-24.19-39.66-41.23-66.97-47.03-46.39-13.78-64.6,26.39-80.1,61.32-.46,2.08.2,1.09,1.39,1.36,32.51,3.33,65.91,29.02,74.52,61.02,1.3,1.01,10.75-21.06,11.47-23.01,3.87-7.54,3.35-28.89,13.49-27.54,5.17,2.53.38,3.62-.98,4.56-4.43,3.29-3.49,13.02-5.96,18.54-12.97,31.53-14.75,25.04,6.9,52.03,17.66,8.67,17.18,7.7,25.07,24.93,17.27,2.06,21.91,14.88,30,27,24.64,24.29,67.45,33.43,100.99,28.01-28.29-11.1-60.53-37.64-61.1-70.4-16.14-4.59-26.83-22.2-32.89-37.1ZM523,668c-34.71-4.8-75.46-8.53-106.52-25.02-2.1,0-6.61,4.95-5.39,7.36,17.39,10.31,37.11,18.2,54.67,28.39,16.59,6.77,37.63,8.29,55.23,11.27-.42-7.41.95-14.71,2-22ZM423,697c2.38,1.64,4.18.98,7,1.01v2.99c-21.86,3.24,6.11,102.57,42,88,.64,1.4.07,2.23,2,3-14.19,3.21-13.63,3.25-8,16,13.03,34.05,50.14,55.14,85,54-1,3.34,10.81,8.39,13.31,10.19,21.33,9.6,54.18,8.58,70.69-9.19,11.57-.48,17.34,3.55,28.67-2.83,8.89-4.61,23.37-17.72,22.08-28.4-1.19-18.3-16.91-7.07-25.28-29.73-.34-10.07-1.29-7.73-7.47-15.03-2.35-4.4-2.22-10.24-4.82-15.68-6.15-11.67-19.25-29.18-27.15-38.85-2.47-1.39-5.17,5.16-6.99,7.08-5.13,4.15-6.05,3.01-8,9.04-.64.62-1.91-.62-2.04-.58-11.63,2.97-5.29,7.49-1.47,13.97,3.74,2.15,8.53,2.1,12.47,4.03,5.09,9.16-1.24,9.61-5.78,15.72-1.06,3.37.2,16.5-2.35,18.15-5.09,3.29-12.74-4.8-17.34-4.89s-10.18,4.26-13.97,4c-11.66-.79-1.45-16.2-5.86-21.69-3.16-1.68-6.22-4.53-8.7-7.28.12-2.29.97-5.08,1-6,6.07-5.22,15.53-1.08,18.91-10.61.65-1.75-.35-1.21-1.17-1.61-5.55-2.46-12.57-3.78-17.74-7.78-13.9-8.33-24.52-24.51-27.13-39.87-.81-.5-4.29.07-6.62-.89-3.41-1.4-4.19-5.88-6.99-7.01-6.34-2.54-29.83-7.72-36.76-8.26-5.8-.78,10.31,9.53,11.49,11.02-3.44-.12-2.05,1.73-.02,3.5l-.98.5c-2.2-1.55-3.3-2.29-6-3-16.26-17.04-44.21-25.88-65-37-15.61-5.03-27.56-15.9-44-17.5,20.28,11.08,33.56,31.59,43,51.5ZM589.68,685.69c4-4.36,2.3-13.05.19-18.05-3.92-9.3-4.85-4.31-11.9-1.09,2.99,6.67,4.13,14.15,4.03,21.46,2.57.33,5.89-.37,7.68-2.32ZM526.29,682.21c-1.85,2.66.36,14.95,4.66,16.36,14.89,4.88,12.06-29.57,6.48-33.49-8.86-6.14-14.74,11.63-9.44,16.89-.08.11-1.41-.17-1.69.24ZM566.7,666.16c-6,2.62-2.52,12.94-2.58,18.21.61,4.94,1.92,14.21,8.28,13.62,11.85-.59,4.78-34.9-5.7-31.83ZM559.5,669c-3.39-1.05-11.47.77-15.5,0,5.61,24.44-8.96,25.67,16.89,21.89-.38-3.61,1.51-21-1.39-21.89ZM582,695c-3.34,6.16-10.87,10.81-17,5-1.09-1.01-3.2-5.83-4.5-5.92-2.67,2.25-5.89,3.26-9.51,2.92.29,16.2,12.15,27.58,23.73,36.86,4.06,1.13,7.81-5.36,16.68-1.76,2.73,1.11,4.04,3.83,6.59,3.9.16-.58-.18-1.77,0-2,5.8-6.36,12.63-10.24,9.05-20.55-.98-3.44-11.25-23.67-13.69-24.39-1.54-.45-9.94,4.45-11.36,5.94ZM545.5,696.02c-1.75,2.59-6.61,6.45-6.49,9.36,2.95,18.35,25.97,42.96,45.02,42.16,7.03-4.82-13.74-11.53-15.96-13.11-14.09-10.3-16.71-24.02-22.56-38.42ZM605,734c-4.65,4.69-9.41,2.22-6.99,12,10.35-5.37,20.54-14.87,20.06-27.51-.26-6.27-4.6-14.21-11.06-14,8.03,9.35,5.38,20.72-2.01,29.51ZM590.02,746c7.43,1.28,5.84-13.79-7.01-10.99,5.79,5.16,4.82,4.02,7.01,10.99ZM724,754c-10.32,13.62-54.48,34.05-63.5,11.02-15.85,19.43,4.98,29.27,22.98,27.96,15.32-1.11,31.87-8.2,43.52-17.98,16.5-12.09,20.46-34.27-5-35.99.6,6.15,6.45,8.96,2,14.99ZM613.99,770.01c-15.25-.32-19.04-8.67-24.5-21.01-4.98,10.11-10.26,17.23-22.49,18.01,6.11,12.09,11.9,4.91,8,25.98,8.01-1.81,14.96-3.41,23-.5,2.17.79,4.52,4.59,4.99,1.03.03-14.05-.91-14.7,10.99-23.51ZM355.99,784.99c-1.65-2.68-12.81-18.07-12.98-20.99-1.84,5.54-2.5,11.63-5.99,16.5.06,1.19,17.24,5.97,18.97,4.49ZM664,797.01c6.81,45.14,113.13-4.56,77.53-33.01-15.75,28.21-46.15,40.3-77.53,33.01ZM778.5,803c13.75-2.11,30.8,3.5,43.02,10.99,2.97.18.75-1.13-.17-1.83-10.47-7.93-19.7-8.29-31.36-11.64-13.76-3.96-26.6-8.8-41.31-9.41-11.79,15.34-33.49,26.13-52.25,29.83-2.26.45-7.6-.96-8.35,1.7-2.3,32.08,37.45,27.43,59.15,32.65,5.35,1.22,26.58,11.26,28.65,3.03,2.61-10.36-31.28-18.03-33.38-22.3-7.19-15.99,82.94,19.29,88.48,7.5-10.28-9.57-24.62-15.89-37.98-20-3.57-1.1-22.03-4.36-21.98-7,0-.14,1.63-1.87,2-2.03,2.23-.94,29.08,7.15,33.22,8.78,7.04,2.78,22.79,13.54,27.71,14.35,23.62-4.77-28.85-26.45-33.91-28.15-2.78-1.43-28.08-2.3-21.55-6.45Z"/>
  <path class="cls-125" d="M347,375c-26.08-26.9-24.07-80.58,7.93-102.64-19.14-18.71-15.68-48.1-5.64-70.57,3.95-9.18,3.77-9.17,6.16-18.84,1.03-4.17,8.77-19.33,8.55-20.42-.43-2.17-15.12-.71-16.05-.08-2.15,1.45,0,4.98.04,7.06.47,20.31-8.73,39.09-25.89,50.15,4.7,24.93-3.36,47.27-21.7,64.27,9.09,24.58,2.01,49.72-13.21,69.73,7.27,16.93,4.2,40.23-6.39,55.66-1.91,2.84-11.44,12.56-11.67,13.42,4.64,18.87-2.31,41.46-17.67,54.25-11.69,8.26-11.61,3.3-11.92,18.08-3.07,18.15-23.17,28.54-39.42,30.08-1.07,8.27-8.13,16.72-17.13,17.88,7,17.2,9.23,33.45-2,49.49-5.93,8.47-28.07,20.48-19.83,32.83,3.51,5.26,10,6.43,15.82,7.16-23.89,20.18-66.16,1.31-73.01-27.49-4.33,1.35.68,10.24-.99,11.99-17.27-5.66-22.05-28.06-19.91-44.41,1.44-11.01,10.11-18.43,18.18-24.84,2.08-1.65,5.58-1.54,2.7-4.21-24.86-7.53-27.63-50.7.03-55.53-14.48,30.93,27.91,23.36,45.31,23.8,5.17-5.45,6.94-13.38,15.68-14.86-3.32-16.51,5.54-37.81,21.95-44.03-5.29-22.21,2.49-45.32,22.13-57.6-7.74-22.1-5.06-46.16,9.69-63.95-13.16-27.49-14.23-57.56,11.05-79-10.35-26.16-3.94-58.38,21.28-73-16.13-34.41,3.63-76.43,37.85-89.94,3.31-2.87,7.34-12.16,11.55-16.45,14.69-15.01,28.01-15.55,46.77-19.23,25.5-6.66,46.07-9.74,66.48,11.03,20.25,7.24,28.75,11.21,36.71,33.93,3.74-1.52,9.37-.87,12.84-1.94,70.7-50.5,168.26-25.56,234.21,21.23,10.36-29.9,34.41-55.82,67.85-43.29,3.12-.16,10.86-3.63,15.45-4.42,26.81-4.97,50.66,9.06,60.72,33.69,1.58,1.65,11.15,6.22,14.39,8.6,25.31,18.48,38.23,55.58,26.02,84.92-.15,3.44,1.81,8.33,2.05,12.01.32,7.46-2.01,18.71,6.01,21.99,22.16,23.64,17.11,55.68,3.38,82,17.81,29.35,13.33,56.6-6.39,82.99,16.76,27.18,11.12,52.73-7.84,77.25,10.36,23.83,2.14,46.48-15.18,64.8,7.83,17.55,9.36,27.98,3.07,46.01,6.41,8.88,8.61,10.09,10.89,23.03,21.97.9,42.47,25.97,64.58,11.44,4.54-3.82,6.46-14.68,8.47,1.58,2.41,19.56-19.69,35.16-37.98,32.42,13.3,16.36,19.79,35.43,11.48,55.97-3.61,8.92-12.18,19.15-22.48,19.01-1.72-1.66,5.94-14.85,3.5-17.99-10.93,16.76-29.08,25.31-48.91,23.01-19.17,9.52-50.89,1.43-55.59-22,15.54,5.86,23.51,3.09,33.96-9.57-25.72-21.23-15.15-50.98,1.1-73.87-7.11-3.81-10.48-14.26-11.23-20.4-16.35-4.95-31.01-22.82-25.36-41.18.56-2.2,3.17-6.41,3.17-7.48,0-.87-7.21-11.69-8.38-15.27-5.84-17.96-1.08-35.58,10.74-49.71-16.42-23.55-11.51-54.74,2.95-78.02-16.75-23.78-18.48-51.82-3.13-76.85-18.77-19.73-21.67-48.11-8.26-71.73-16.53-12.35-27.72-32.57-28.43-53.54-.3-5.3,2.17-14.23-.07-17.94-2.02-3.36-14.96-9.43-18.58-12.42-5.95,10.43,2.49,25.02,4.37,37.63,2.97,20,1.42,35.92-8.85,52.88,43.9,51.6,2.44,131.91-63.64,136.34-9.27.71-20.29-1.51-27.37-7.87.96-.59,2.43-2.52,4-3,6.21,3.61,13.85,5.74,20.99,5.99.74-2.36-1.29-2.03-1.99-2.99-.13-.18.2-1.12-.27-1.7-.51-.63-5.34-2.73-3.73-4.3,1.79-1.73,2.96,4.62,4.99,1.99,10.64,8.62,20.5,3.33,31.99-.01-12.41-2.5-20.95-5.96-25.99-17.99,2.6-.15,1.68-1.04,3-3,5.45,12.96,15.01,18,29.05,15.55,21.52-3.74,37.5-39.77,39.82-59.18,2.29-19.09-2.38-59.43-28.87-57.39l5.99-1.98c-2.76.16-7.82-1.94-9.99-2.01,6.02-.65,11.27.57,17,1.99.44-.34-4.22-6.28-5-6.99,2.11-.56-1.19-2.51-1.67-2.83-5.89-3.95-11.79-7.88-19.32-7.18,2.81-2.98,6.59,1.5,10.42-5.06,1.71-2.46,3.79-9.52,4.29-12.56.24-1.44-2.47-6.01,1.28-3.36-.36,5,.47,7.88-1,13l-.99-1c.54,2.61-4.49,5.25-2.01,7-.01.33-.07.76,0,1,.02.06-.98.5-.59.99,1.02,1.27,3.78,1.76,5.1,2.99l.49-.98c3.31,2.75,6.96,5.64,9.5,9,13.81-21.57,9.88-54.22-1.5-76-.23-2.57-1.52-5.55-2-8l4.5,2c6.12-13.42-3.89-31.77-16.19-38.8-.87-.53-2.59-2.16-3.32-.68,6.21,13.42,16.87,27.02,14,42.49l-3.99-5.99c-2.86-12.65-12.9-31.36-20.59-41.91-13.16-18.06-28.95-28.2-48.12-38.88-.88-.49-2.51-2.2-3.29-.71,23.25,17.74,41.9,41.32,52.99,68.5-2.24,1.08.72,5.09,0,5.99-2.18,2.73-2.1-5.53-4-2.99-25.74-66.62-111.88-115.03-177-95-1.98.69-3.62.79-3,3l4.33.2.67.81c-5.74.75-14.31,1.69-20,3.99,7.01-.83,13.93-1.04,21-.99-2.81,3.76.44,2.96,3,2.99l-1-2.99c3.57.1,6.2.75,9,1-3.5-.17-5.2-.84-6,3-4.33-.13-9.78-.37-14,0-2.26-2.05-7.99.02-10,2-1.49.45-3.14,1.42-4.9,1.59l-7.1,4.4c4.56-.37,13.25,2.85,13.01,8.02.9.69,17.42-6.43,21.57-6.92,53.76-3.12,103.79,37.57,123.42,85.92-1.16,2.63-3.32,3.3-3.01,0-1.44-.3-.98.65-.99,2-23.49-55.41-86.26-101.95-146.55-76.04-3.53,2.7-3.15,6.89-6.45,9.04-.11.12-1.31-.44-2.07.61-1.7,2.34-.61,9.92-3.41,9.38-4.33-.83,4.65-8.94,1.49-10.99,2.19-4.87,7.78-9.16,11.98-12.5-11.41-13.28-26.62,2.91-38.53-5.46-48.29-3-95.11,38.65-112.45,80.96-1.46,3.55-3.35,2.4,1,7-12.3,20.5-21.97,44.09-13.48,67.98.52,1.47,5.12,11.81,7.47,10.02,5.89-19.8,17.21-37.11,29.52-52.99.18,7.05-1.77,11.84-6.5,17-8.04,10.07-17.29,25.42-19,39-.77-.12-1-1.26-1.02-1.99h-.97c.75,2.98-2.36,6.94,0,8.99-28.57,20.81-30.86,61.21-13,90-5.26,4.25,2.6,6.39,6,8.01-1.12,2.88-2.91,1.98-5,.99ZM414,78c-8.83-22.99-31.32-26.26-52.99-22.99-.54,3.1.9,1.53,1.99,1.99l-3,4c-20.91-5.32-60.58,8.07-64,32-32.78,10.04-53.78,48.35-40.75,80.79.46.52,1.58.07,1.75.21,1.51,1.22.46,2.68,4,1-1.21,3.25-1.75,5.5-2,9-.92,3.55-3.93.16-5,1.01-.21.17,2.45,4.27,0,4.99-.21-1.04-.48-4.6-2.38-3.9-24.3,16.34-24.23,50.61-12.62,74.9l-.5.98-2.49-1.99-1.02,2c-.73-1.1-1.72-3.2-3.36-2.92-22.69,20.62-18.6,52.03-3.64,75.92-24.02,10.84-18.41,46.81-11,67,.49,2.22-2.12,2.22-3,4-.83-1.66-.89-3.74-2.52-5-20.89,12.19-22.84,38.54-17.48,60-.1,4.4-.63-.62-4,0-2.04-5.4-5.72-1.81-8.99,1.51-16.02,15.99-15.09,43.79,4.99,55.49,18.43,8.79,51.77-8.85,47.99-32-.93.55-2.01.65-2.99,1-1.04-3.13-4.13-1.1-6-3,21.98-5.41,40.48-25.79,39.9-49.4-.25-10.1-5.27-5.03-10.9-1.6-.87-1.86.79-2.96-2-4,22.57-15.71,45.47-47.41,28-75,13-16.24,28.96-52.12,11-68,16.8-15.43,31.43-39.66,25-63-.75-1.91-.97-2.81-3-4,19.91-12.1,31.89-29.88,27.95-53.97-3.69-2.56-35.51,17.08-39.95,20.97l-5-1c17.98-18.66,46.14-30.54,72.29-28.98,5.89-7.53,11.01-16.27,17.71-23.02,8.93-6.36,9.04-5.79,10-17l2.99,2c-.68-1.61.92-3.29,1.01-4l1.49,5.99c12.12-10.28,26.48-16.84,41.54-21.55-2.58-12.58-13.24-24.52-26.03-26.44-.33.32.69,3.23,1,3.99-1.86.87-2.96-.79-4,2ZM759,84c.14-.13-1.88-1.51,1.99-2.01v-.98c-.67-.24-4.55.7-3.99-1.01.04-.35,1.29-1.12,1-1.99-28.42-5.95-48.01,19.4-55.66,43.51l16.16,18.46c1.42-.8,1.16-1.84,1.5-2.98,2.74-2.13,1.61.31,2.19.71.39.27,1.53-.77,1.7-.62.79,5.3,8.44,7.29,12.11,10.91,7.07,6.38,11.5,15.6,13,25,.34,1.43-.63,2.77.99,4.5.97,1.04,10.55,5.72,13.33,7.68,4.76,3.37,10.23,7.98,14.68,11.82-2.98,1.38-2.32,2.3-.02,4.51l-.98.49c-2,.45-.35-1.53-2.99-.99-1.53,27.39,9.53,50.55,31.99,65.99-1.28,1.71-3.78,2.31-5,4-2.63,3.66-6.62,19.72-6.98,24.51-1.32,17.5,7.2,30.77,18.98,42.49-19.74,29.39-15.95,58.02,7,84-.25,1.31-2.45-.37-2.88.05-.3.3-.14,2.36-1.12,2.95-.88-.95-1.53-3.23-3.36-2.92-16.74,20.26-15.62,53.4.36,73.92-20.14,14-19.64,45.73-3,63l-1,5c-.91-.58-1.2-1.55-2.99-1-9.67,21.18,13.36,45.01,34.99,40,22.94-7.72,33.83-43.43,16-60-.31-.48-.02-3.09-1-4,15.64-15.05,34.58-47.84,14-65,20.43-18.01,28.09-49.19,12.98-73-1.07-.1-2.16.35-2.98,1v-6c18.4-20.35,26.12-53.82,8.5-76.98-.8.44-1.03,1.42-1.5,1.98l-1.01-3-2.49,1.98-.5-.98c16.31-20.71,27.19-75.47-3.99-86,1.22-12.42-.83-30.35-6.01-42-1.14-2.11,2.22-2.22,4-2,.22.03,1.01,1.43,1.99,1,9.99-38.81-20.13-79.76-57.99-88l3-2.99-7.5-1.02.5-.99c2.14-.4,18.29,5.16,15.99,1.52-15.59-25.68-49.25-28.19-73.99-14.52ZM502.99,92.01c-29.01-.73-35.8,14.54-1.27,2.23,1.17-.64,1.68.02,1.27-2.23ZM117,541l2.5,1-3.49.98,7,1.01c-10.21,1.35-14.34,3.75-22.01,10.49-17.63,13.98-15.82,35.52-4.97,53.5.12.1,2.1.37,1.99-.5-.64-9.54,3.76-18.29,7.99-26.5l2,4c-7.9,29.49,26.68,58.08,54,48.99,1.4-1.47-4.84-4.43-6-5.48-1.63-1.47-2.64-2.92-3.99-4.51.28-.75,1.05-4.75,1-5l8.02-14.48c21.65-15.05,27.99-37.82,16.01-61.83-.61-1.2-9.09-2.76-11.03-3.7-1.79-1.41-6.09-4.32-8-6-4.33-3.62-5.17-13.32-7.63-15.87-18.86-1.69-52.86,7.32-55.36-20.12-12.26,18.8-2.34,45.37,21.99,43.99ZM163.68,502.12c-25.11,16.89,17.56,52.42,31.29,25.37-8.74-4.73-17.06-7.31-23.38-15.58-2.07-2.7-4.74-10.66-7.9-9.8ZM864.02,590c-3.89,9.34-13.99,16.01-23.77,17.74-6.42,1.14-14.38-1.98-8.09,8.61,7.93,13.36,33.69,9.9,38.34-3.36,2.76-7.87.93-18.31-6.48-22.99ZM875,618c-1.34,3.05-4.95,5.35-8,7-7.08,4.82-15.39,5.34-23.47,5.02-2.96.61-9.33,10.86-11.05,13.96-11.71,20.31-11.64,42.56,10.52,54.02-5.89,12.64-16.89,21.09-31,22.5,10.69,11.45,31.59,15.26,45,6.5,22.67,4.78,50.3-13.45,50.01-38,6.99,7.79,5.81,24.41,0,32.99,2,1.98,10.4-10.74,11.17-12.32,12.3-24.92-.47-44.02-17.17-61.67l3-3c16.84,10.4,41.88-3.41,42.99-23-9.82,7.11-24.11,7.69-35.27,3.77-6.48-1.54-37.55-23.01-36.73-7.77Z"/>
  <path class="cls-70" d="M238,728c-.25,1.78-4.28,4.92-5.48,6.06-1.45,1.14-4.67-.84-2.52,3.94-4.29,5.21-4.69,14.08-8.54,18.96-2.71,3.44-8.7,5.04-11.95,8.05-5.69,5.85-7.72,16.85-7.05,25.04.61,3.07,5.99,14.26,8.56,15.44,4.21,1.95,14.96-6.17,19.99-7.49,22.02-5.8,32.81,8.3,26,29-1.37-.18-.8,1.52-1,2-.7,1.7-.84,3.67-1,4-5.83,11.71-14.93,25.16-29,27-3.84,2.93-7.95-2.86-11.99-2.99-1.5,1.49,8.02,7.64,1.45,15.95s-12.85.7-16.94,4.06c-7.77,6.44,11.09,15.54-6.53,24.46-8.99,3.92-12.64-.42-18.98-6.49-13.12-8.48-31.7-11.95-46-5-8.99,5.06-27.4,17.31-25.6,29.02,17.86,23.4,69.9,30.85,96.6,19.98,10.08-3.5,18.48-9.88,27-13,12.23-4.2,41.55-.69,44.91-17.59-.03-8.5,2.86-19.28,0-27.64-.32-.97-2.13-.47-1.97-2.18.36-3.94,5.39-6.46,7.25-9.89,4.44-8.18.87-12.61-4.2-18.7.01-1.46.57-2.57,2-3,6.46,6.83,5.75,10.59,14.93,4.43,12.57-7.88,14.86-25.08,12.07-38.43,3.56-10.15,12.51-13.79,20-20,2.89-2.01,5.55-5.34,8.99-6l-1.91,5.53.92.47c-23.97,19.88-20.69,12.31-22.98,41.46,2.06,5.53,1.68,3.53,3.98,3.54,3.47.03.95,1.8,3,4-.58,3.83-1.88,13.37,4.57,10.07,2.08-3.8,5.23-6.32,8.43-9.07h1.99s0,3,0,3c-6.7,6.09-13.19,17.29-7.49,25.99,10.27-12.27,14.6-15.11,29.49-19.99l3,2c-3.78,7.71,5.38-2.22,11.54,4.96,8.04,7.92.63,13.24-4.54,19.04-5-4.98-25.65,9.97-28.42,14.07-2.14,4.36-.95,9.44-2.58,13.93-4.69,4.56-13.39,20.14-14.04,26.48-.83,45.59,71.64-9.81,81.04-25.48,8.47-14.26,11.03-34.19,26-44l3,2c-6.28,5.28-9.65,11.35-14,18-4.28,8.29-5.26,16.94-8.82,24.68-13.42,24.18-55.85,44.37-82.21,47.8-1.58.89.56,4.59,1.2,5.85,17.52,35.93,85.76-12.22,95.31-36.34,3.43-7.84,3.37-20.04,11.52-23.99l1.01,5c9.64-.99,14.99-10.16,18.82-17.76.74-2.92-7.6-16.26-9.82-19.24,3.71-5.3.87-3.45-.72-4.41-.3-.18-.33-1.17-1.65-1.75-5.82-1.21-4.87.06-4.15-5.87.7-1.23,2.44.13,2.52.03,6.45,3.88,17.69,19.89,19.55,26.98,1.74,6.64-9.1,20.88-14.59,24.47-4.43,2.9-10.29,1.83-11.79,2.71-6.7,36.66-53.78,66.86-89.7,68.86-20.27-.78-27.49-33.61-27.37-49.44,1.13-8.06,16.26-30.15,15.81-31.88-7.71-7.49-4.23-10.8-5.09-19-.63-2.12-5.28-4.79-6.71-8.3-1.17-2.87-.86-6.94-2-8.75-6.59-3.53-9.59-1.73-14.66-9.73-1.5-.22-10.86,6.59-11.91,8.08-1.77,2.51-2.34,7.56-4.13,10.87-1.24,2.3-4.77,5.48-5.18,6.82-.86,2.8,1.14,15.87.85,20.84-2.42,17.78,2.27,45.11-13.35,57.65-5.4,3.43-21.91,7.73-28.25,7.84-3.53.06-13.28-2.93-13.99-2.82-21.82,26.54-107.6,16.85-128.43-6.74-6.06-7.89-4.98-20.74-1.8-29.75,7.51-22.9,21.76-36.84,44.77-43.23,5.15-11.11,4.93-12.74,18.72-17.78,3.68-3.13,4.34-11.96,7.73-15.76,2.73-3.06,11.61-6.19,12.11-6.9,2.13-3.06-1.99-5.43-3.07-8.04-7.05-17.02,3.8-52.19,26.52-49.01.25-7.74,2.62-18.57,8.5-24,3.02-2.79,9.9-5.27,11.98-8.02,1.06-3.32,9.15-17.21,6.52-20.98,5.2,2.47,3.64-.72,4-1,.19-.15,2.76-1.29,4-2,4.69-2.71,3.09-.92,6-1ZM194,823c-1.27-4.09,3.97-10.82,6.15-14.35,1.54-1.86,5.89-3.68,5.68-5.97-7.62-19.93-21.85-16.17-28.89,1.76-2.42,6.16-6.49,26.04.05,30.12,1.39.87,14.35-2.77,15.99-4.1,2.66-2.16.9-4.69,1.02-7.47ZM214,820c-.05,1.43.24,2.78,1,4-7.29,1.65-5.61,30.19,9.49,30.47,16.55.31,32.23-30.29,29.28-44.74-5.7-15.68-39.66-6.16-39.77,10.27ZM206.99,834c.56-8.05,3.29-16.42,6.98-23.5-13.88-8.74-22.62,20.78-6.98,23.5ZM212.99,857l-6.53-17.96c-1.19-1.57-4.11-1.82-5.98-3.02-1.06-.68-3.49-3.99-3.99-3.99-2.87,4.75-15.1,5.11-17.49,9.49-.77,1.87,1.15,1.47,2.18,1.77,11.85,3.46,21.33,6.76,31.8,13.72ZM307.99,855.99c-1.62-2.79-.37-14.96-3.49-14.98-7.18,5.79-4.62,12.32,3.49,14.98ZM163,856.99c16.34.47,29.1,8.02,42.74,15.8,8.22,1.63,12.78-5.24,6.2-11.23-11.08-8.3-41.07-22.92-48.94-4.57ZM346.99,856.01c-1.26-1.19-20.5,10.7-18.99,11.99l16.35-8.14,2.64-3.85ZM361.65,869.65c12.17-25.7-54.84,4.49-36.15,23.33,6.35-12.75,26.1-17.39,36.15-23.33ZM159,865.99c10.05-.14,25.05,8.3,32.51,12.03,11.71-5.75.89-8.49-5.53-11.5-7.33-2.85-21.59-8.24-26.98-.53ZM142,880.99c10.27-.04,22.62,3.68,31.32,9.18,3.46,2.19,8.91,8.47,12.27,8.82,36.43-10.93-40.15-44.09-43.59-18ZM229,959c34.8-1.29,38.56-7.07,41.99-41-11.45,9.62-27.67,7.11-40.81,10.68-10.73,2.92-21.78,11.88-33.42,15.58-30.07,8.35-80.99,4.21-99.75-24.26-3.33,7.82-6.84,24.84-1.49,31.98,25.91,21.28,90.36,28.41,118.02,10.07,3.28-3.07,13.67-18.06,19.46-13.05.97,4.39-2.59,2.57-5.38,4.12-4.75,2.64-5.02,6.51,1.38,5.88Z"/>
  <path class="cls-69" d="M186.69,198.31c4.34,6-4.71,35.1-9.36,36.59-3.13,1-16.02-7.48-18.8-9.93-5.78-5.1-15.63-18.93-3.32-22.34,6.98-1.93,10.42,6.8,14.26,6.44,2.83-.26,3.53-4.91,5.09-7.01,2.63-3.54,8.37-8.94,12.12-3.75Z"/>
  <path class="cls-111" d="M754.65,467.65c-2.21,2.31-11.89,9.98-14.6,8.88-7.3-2.94-23.41-24.76-11.06-28.13,7.38-2.02,9.47,8.06,13.47,7.65,3.41-.35,11.96-14.19,17.31-3.32,2.84,5.77-1.16,10.78-5.11,14.92Z"/>
  <path class="cls-175" d="M132.55,751.45c-2.89-3.31-6.79-11.28-1.89-14.53,5.59-3.71,9.81,4.53,13.82,4.16,2.34-.22,8.64-11.13,13.05-8.17,10.31,6.92-6.41,28.3-10.84,27.93-3.74-.32-11.54-6.4-14.14-9.38Z"/>
  <path class="cls-119" d="M153.99,300c3.25,16.04,6.99,12.64,17.99,19.5-5.89,4.18-12.87,3.44-15.31,11.67-.41,1.39-1.59,15.66-4.14,7.85-1.43-11.57-6.6-14.14-16.51-18.51,1.84-2.35,5.05-2.21,7.34-3.64,7.16-4.47,5.65-9.42,8.4-15.59.47-1.06.9-2.54,2.22-1.26Z"/>
  <path class="cls-28" d="M935,491c-1.84,17.95,20.8,15.79,14.72,20.24-7.64,4.96-8.65,1.86-12.76,12.21-2.29,11.5-3.08,3.2-4.53-2.37-3.32-8.84-17.13-7.47-12.73-12.09,19.58-7.88,9.24-17.66,15.3-17.99Z"/>
  <path class="cls-29" d="M738,535c-.1,5.49,1.51,12.01,6.63,14.88,2.12,1.19,4.73.69,6.35,2.63-6.51,3.35-10.14,3.91-12.3,11.68-.53,1.89-.49,8.79-2.18,8.8-4.59-7.24,3.01-14.2-12.1-18.88-4.58-2.04,1.94-2.35,3.87-3.33,8.67-3.97,6.06-19.24,9.72-15.77Z"/>
  <path class="cls-193" d="M776,653.01c-4.09,3.65-10.22,4.03-12.45,10.03-.89,2.4.1,5.17-2.05,6.95-.6-8.68-6.44-12.88-13.49-16.5,8.24-3.57,12.24-6.89,12.5-16.51,2.43,9.39,5.7,13.75,15.5,16.02Z"/>
  <path class="cls-125" d="M347,377c2.3-.35,4.03,1.91,1.02,3.5l.98.5c-4.16,2.87-9.39,7.42-13,11-.88-.81-3.02-2.9-4-3-4.49,4.61.31,3.62-1.92,7.58-1.32,1.66-4.32.43-6.08,1.42,1.59-2.29,5.28-9.28,8-9,3.08-4.67,9.45-10.23,15-12Z"/>
  <path class="cls-99" d="M576,215c-12.98-8.68-26.63-12.14-41.68-6.18-5.14,2.04-17.06,9.02-15.15,15.46,1.67,5.6,7.03-.15,10.14-1.47,19.15-8.07,39.64-5.71,56.16,7.21,4.38,3.43,7.2,10.16,13.52,8.97,1.05-7.52-13.74-16.44-19-20.99,6.51,2.67,13.14,9,20,10,1.56,6.37,8.46,3.6,12.43,4.02,5.61.9,18.29,16.83,22.51,21.52,0,0,20.06,17.47,20.06,17.47-13.23,16.96-23.56,41.96-24.99,63.51.04,14.88,1.15,30.46-4.39,44.7-3.92,15.37-15.76,18.84-23.62,30.79-38.06,21.95-82.44,33.84-126.25,23.99-2.45-1.1-2.39-13.36-2.83-16.41-.23-1.56-2.3-6.03-1.91-6.55,8.67-1.72,12-14.19,13.09-21.93,9.19.37,20.27-2.28,27.84-7.66,6.38-4.54,15.51-15.85,3.07-18.43,5.27,13.27-16.33,21.42-26.5,21.42-4.81,0-28.23-5.62-29.38-10.13-.59-2.32,3.86-6.21.29-7.24-1.8-.52-4.09.28-4.91,1.94-2.19,4.43,3.91,9.23-4.05,8.9-22.74-17.28-44.23-19.67-72.36-14.98-3.17-20.53,9.99-33.13,7.91-55.4-1.38-23.1-7.89-38.13-3.99-62.51l1.5,3c16.21-11.15,26.59-28.01,49.01-25.99,4.34.44,25.83,12.01,18.36-2.38-5.19-9.99-22.43-10.51-31.87-7.63,13.48-16.57,32.6-36.39,46.97-54.53,1.84-2.28,6.59-6.65,5.03-9.47,4.27-3.08,24.92-17.09,28.5-17.1,8.55-.02,25.4,29.2,30.69,36.41,12.66,18.23,28.36,34.19,45.81,47.69ZM583,258.99c.37-2.24-1.98-3.17-3.6-3.89-13.49-6.03-42.83,1.16-48.4,15.38,1.1,1.2,1.26,1.95,3.02,1.04,12.19-12.79,31.72-16.29,48.98-12.52ZM531,296c-5.24,16.79-1.96,42.85,18,48l6.56,3.94c6.65,2.15,28.71-.69,33.43-4.95,1.25-1.13-2.87-.37-1.98-2.47,10.63-9.42,13.4-22.97,15-36.51,7.09-.85,3.85,10.94,8.44,11.02,2.39.04,22.04-13.25,22.54-15.54-.45-3.82-3.25-1.7-5.32-1.88-4.23-.36-8.4-1.6-12.67-1.61l9.17-13.32,1.82-5.67c-1.55-1.63-14.39,9.62-17.3,8.9-14.74-25.66-52.2-32.1-72.2-8.92-3.32,3.74-12.63,15.92-5.49,19.01ZM446.99,296.99c2.39-2.45-7.77-13.77-9.99-15.5-4.33-3.38-2-.55-2.66.46-.07.11-1.94-.26-1.34,1.53,2.38,1.14,11.09,16.47,13.99,13.51ZM386,298.01c.49,4.01,8.25,15.79,11.72,16.82,3.83,1.14,5.06-1.67,7.98-2.63,16.39-5.96,30.37-.45,42.92,9.71,2.79.62,3.54-6.21,3.19-8.15-1.71-9.69-18.93-19.08-28.28-19.79-4.3-.32-16.04,2.08-16.95,1.86-1.41-.34-5.96-9.68-7.58-7.82-1.15,3.85,2.27,9.75-.02,12.47-4.43,5.27-8.16-2-12.99-2.47ZM471,355.01c-3.73-1.78-11.07-1.83-11.82-6.73-1.19-7.85,9.72-8.17,9.8-10.78.11-3.39-11.98.56-13.53,5.44-2.8,8.85,3.04,15.09,12.08,14.1,1.49-.16,3.09-.22,3.47-2.03Z"/>
  <path class="cls-99" d="M611,540c-.25-1.47-.21-8.88-2.48-7.99-.69.27-10.93,8.69-11.55,9.46-.71.88-2.92,7.73-2.97,8.53,0,0-14.46-21.04-14.46-21.04-3.12-9.16,5.16-32.69,8.71-42.2,2.77-7.43,10.87-28.27,17.74-31.26,18.54-8.05,44.77-3.95,57.42,12.59,32.17,42.11,4.69,127.72,25.41,178.59,7.76,14.82,36.72,96.97,25.17,107.82-7.25,8.27-23.04,14.11-33.77,15.23s-10.28,1.05-14.71-7.74c-36.27-72.01-41.38-144.03-54.52-221.98Z"/>
  <path class="cls-1" d="M466,416c1.99,60.87-103.72,102.11-151,72-.32-2.88,4.12-18.33,5.27-22.23,3.62-9.15,8.81-19.08-.05-28.39-.64-3.24,4.82-11.23-3.22-13.87,19-66.71,130.78-83.33,148.99-7.51ZM370.77,378.27c-3.18.71-7.45,4.1-8.83,7.17-4.61,10.22-.64,12.36,9.55,11.55,8.48-.67,18.42-7.88,24.49-13.49-5.84-5.1-17.72-6.91-25.21-5.23ZM346.71,402.21c-1.66.38-7.69,5.45-7.69,6.29,0,.49,2.41,2.54,3.49,2.54,1.93,0,5.7-5.56,9.48-3.59,4,2.08,3.27,12.91,8.5,11.55,3.45-.89-1.61-12.54-3.46-14.52-2.58-2.76-6.8-3.08-10.31-2.26ZM424.85,439.86c5.28-13.99-15.39-29.7-27.34-17.85-1.67,1.49-4.62,4.22-2.53,6.49,3.31,3.6,5.45-2.96,8.96-4.05,10.67-3.31,16.68,5.98,16.05,15.56,1.36-.2,3.85.46,4.85-.15ZM388.75,440.22c-2.33-2.26-7.78,2.27-11.35,2.7-6.22.74-15.05-1.78-18.84-6.99-1.51-2.08-2.45-6.95-5.05-6.97-3.97-.03-1.56,6.3-.39,8.41,5.42,9.69,20.27,13.01,30.16,9.42,2.48-.9,8.41-3.71,5.46-6.57ZM413.71,444.21c-13.89,3.17-2.72,26.7,10.34,15.33,9.29-8.09.64-17.84-10.34-15.33Z"/>
  <path class="cls-59" d="M425,757c-.8,8.55,6.43,23.18,5.51,30.97-3.4,7.7-15.5-.09-19.84-3.14-14.83-10.41-47.41-44.79-47.75-63.34-.06-3.01,2.83-5.96-.92-7.5,1.36-.94,6.15-2.03.98-4.56-10.12-1.38-9.64,20.02-13.5,27.54-.72,1.96-10.17,24.03-11.47,23.01-8.62-32-41.99-57.69-74.52-61.02-1.2-.27-1.85.72-1.39-1.36,15.56-34.94,33.67-75.09,80.1-61.32,27.31,5.8,52.93,22.84,66.97,47.03,15.98,22.81,3.45,48.86,15.83,73.67Z"/>
  <path class="cls-147" d="M362,714c3.74,1.53.86,4.49.92,7.5.34,18.55,32.92,52.93,47.75,63.34,4.34,3.04,16.45,10.84,19.84,3.14.89-7.84-6.3-22.37-5.51-30.97,6.05,14.89,16.75,32.52,32.89,37.1.57,32.76,32.81,59.29,61.1,70.4-33.51,5.42-76.36-3.7-100.99-28.01-6.97-8.9-8.95-19.55-21.32-24.68-2.67-1.11-7.28-1.49-8.68-2.32-.8-.47-4.75-11.97-8.98-16.02-5.28-5.06-12.14-5.58-16.1-8.9-3.23-4.49-18.55-20.6-16.74-26.81.99-5.72,7.58-18.52,9.84-25.22,2.51-5.61,1.49-15.09,5.96-18.54Z"/>
  <path class="cls-77" d="M483,699c4.25.47,8.71,1.22,12,4,4.25,4.09,22.01,16.18,20.83,22.24-6.02,18.87-27.72,53.2-43.83,63.76-35.59,7.3-50.71-50.65-48.99-77.48.63-7.05.44-9.02,6.98-10.52,11.25-2.58,41.14-3.02,53-2Z"/>
  <path class="cls-225" d="M543,745c2.66,3.19,8.24,14.26,12.35,12.97,1.31-.41-.68-2.63,3.47-1.29,2.44.79,2.54.24,2.18,3.33.78,27.96-5.32,57.3-11,85-31.37-3.26-55.66-28.31-70-55-.46-.8-1.44-2.02-.9-2.89,19.52-15.58,33.31-39.51,40.9-63.11,1.98-.02,2.77,1.35,4.02,2.48,6.29,5.71,13.61,12.09,18.98,18.52ZM516.39,810.39c.93-.76,2.61-.74,3.68-1.82,2.35-2.39-1-3.08-1.81-5.32-.7-1.94-.64-9.94-3.74-9.24-.54.12-2.31,2.65-3.63,3.38-2.12,1.19-7.95,2.74-7.95,5.11,0,1.25,6.76,9.73,5.07,13.51,1.8,1.73,6.96-4.44,8.38-5.61Z"/>
  <path class="cls-146" d="M592,559c-.95,15.33-12.14,30.67-26.77,35.73-13.33,4.82-75.43,8.13-73.23-13.73,32.65-6.78,20.24-33.45-4-6-9.16-5.17-5.14-7.5.97-14.53,13.82-15.88,48.19-35.16,69.18-36.81,19.69-1.3,25.88,21.73,33.85,35.34Z"/>
  <path class="cls-59" d="M778.5,803c-6.57,4.13,18.8,5.04,21.55,6.45,5.07,1.7,57.52,23.38,33.91,28.15-4.92-.82-20.68-11.57-27.71-14.35-4.14-1.64-30.99-9.72-33.22-8.78-.38.16-2,1.89-2,2.03-.05,2.64,18.41,5.91,21.98,7,13.36,4.11,27.7,10.43,37.98,20-5.61,11.79-95.63-23.49-88.48-7.5,2.1,4.27,35.99,11.95,33.38,22.3-2.07,8.23-23.3-1.81-28.65-3.03-21.68-5.21-61.46-.59-59.15-32.65.74-2.66,6.09-1.26,8.35-1.7,18.76-3.7,40.46-14.48,52.25-29.83,14.71.61,27.55,5.46,41.31,9.41,11.66,3.35,20.89,3.71,31.36,11.64.92.7,3.15,2.02.17,1.83-12.21-7.48-29.28-13.1-43.02-10.99Z"/>
  <path class="cls-188" d="M215,695c-16.05-61.21,38.76-96.57,91-64.99-25.05,10.9-40.17,43.46-49.24,67.74-1.08,1.25-6.6,1.87-8.66,2.85-5.15,2.45-11.09,9.76-12.1,15.4.04-.26-1.49-2.89-.08-4.86-2.52-2.28-5.89-.69-8.3-2.23-3.45-2.2-8.34-11.34-12.62-13.91Z"/>
  <path class="cls-99" d="M566,642c4.9,5.03,5.63,11.11,4.92,17.93-8.35,1.7-18.37,7.65-27.23,4.88-2.76-.85-2.37-5.61-8.2-5.87-6.77-.31-9.14,4.45-11.1,4.83-5.25,1-38.89-5.55-46.59-7.07-16.5-3.93-40.28-7-54.3-15.7-1.08-2.27-.89-24.64.44-25.57,48.8-10.73,96.18,21.76,142.06,26.56Z"/>
  <path class="cls-99" d="M560,474c2.83-1.22,18.65-11.6,19.99-9.5-11.14,16.25-18.94,34.66-24.48,53.52-28.23,6.2-54.13,19.96-73.02,41.98-1.12-4.59,10.93-18.82,13.5-23.98-10.07-1.2-15.68,16.99-19.99,23.98-3.44-14.04-10.17-26.96-16.84-39.66-1.59-3.03-5.4-5.75-3.68-9.3,16-14.17,35.64-34.13,54.24-43.9,5.76-.86,3.85,5.6,1.72,8.83-3.74,5.68-16.62,9.59-17.33,11.71-1.27,3.77,2.77,6.23,2.59,9.68-.14,2.66-7.64,15.27-.65,15.19,4.15-.05,8.23-3.9,11.45-3.58,2.46.25,2.66,3.76,5.46,4.65,6.89,2.19,7.18-7.99,9.99-11.14,7.28-5.42,16.24-4.8,4.03-12.47,11.81-3.14,23.95-7.54,33-16Z"/>
  <path class="cls-143" d="M658,186c5.03,11.14,8.8,23.94,11,36-19.06-30.81-49.32-58.49-85-68-12.64-18.79-33.56-36.19-57-38-1.05-2.18-7.23-.35-8-1.01l1-6.99c57.49-22.39,115.93,27.09,138,78Z"/>
  <path class="cls-62" d="M566,775c11.98,3.07-3.94,22.56,9.56,23.97,3.79.26,9.32-4.09,13.97-4s12.24,8.18,17.34,4.89c3.86-3.83-1.3-19.35,6.13-21.87,2.9-.6,1.82,1.43,2.28,3.17,5.93,22.57,10.48,45.14,15.72,67.83.37,3.2-.57,1.17-2.04,1.64-28.12,8.85-40.21,11.62-69.2,1.11-1.68-.61-6.31-1.28-5.76-3.74,2.52-11.52,4.32-23.22,6.72-34.78l5.28-38.22Z"/>
  <path class="cls-98" d="M528,121c43.02,5.74,73.7,59.19,72.86,99.35-10.45,4.4-41.29-27.43-49.37-35.34-15.38-16.86-27.49-42.06-43.98-56.03-2.79-2.36-5.51-.72-4.26-5.26.3-1.08,1.4-1.88,1.75-2.73,7.54.92,15.39-.62,23,0Z"/>
  <path class="cls-27" d="M367,612h2.99c3.46-10.25-.46-26.06-1-36.46,9.18-17.04,10.68-19.56,6.18-39.35,6.1-2.73,8.95-9.1,12.85-13.67,6.28-7.35,9.72-5.3,17.97-8.03,21.28-7.04,46.15-22.43,58-42,1.76-2.91,3.59-10.85,6-12,4.87-2.33,14.7.74,20,1-19.07,11.56-33.69,28.31-50.5,42.5-31,17.38-48.1,50.3-28.52,83.53-12.77,18.58-30.23,33.13-46.02,49.01-1.93.89-12.36-3.08-14.96-4.54,8.89-.79,14.45-12.85,17-20Z"/>
  <path class="cls-127" d="M669,222c5.94,17.27,14.53,52.22-15.32,30.82-38.13-23.62-48.63-62.23-69.68-98.82,35.7,9.52,65.93,37.18,85,68Z"/>
  <path class="cls-115" d="M709,173c5.11,12.49,10.6,29.71,8,43h-19c-8.34-79.67-87.03-143.24-166-138,65.16-20.01,151.21,28.35,177,95Z"/>
  <path class="cls-49" d="M445,125c-34.82,22.9-43.75,58.84-63,93-9.01,15.64-20.44,29.79-25.01,48-40.26-43.27,39.64-136.59,88.01-141Z"/>
  <path class="cls-188" d="M349,527c-21.38,28.81-55.11,10-58.54-21.96-6.31-17.63-9.73-18.89-7.34-39.42,2.22-19,11.02-48.25,32.88-51.61-2.28,1.93-1.5,5.27-2.5,6.99-13.62,6.68-23.88,23.68-25.49,39,2.66.55,1.72-.68,2.48-1.97,4.83-8.21,8.16-19.18,14.97-26.06,2.83-2.86,10.44-8.7,11.24-1.34s-7.08,10.42-11.21,15.37c-6.9,8.26-13.69,22.23-13.48,33.01,8.71-10.99,11.72-27.75,23.63-36.92,10.43,5.56-.51,21.9-3.15,30.92-.87,2.97-5.39,21.96-4.49,23l5-1.01.48-1.98c5.93,6.37,13.37,11.27,16.05,19.96.94,3.06-.48,6.89,2.47,9.03-.2,1.23.13,2.72,0,4l2.98-4.99c1.76,5.42,9.6,4.12,14.01,5.99Z"/>
  <path class="cls-68" d="M326,788c-1.39,1.53-4.28,3.57-6,5,.9-5.75-2.12-4.07-4.95-5.55-4.92-2.58,2.1-8.82-1.16-13.84-2.31-3.55-7.44-2.22-7.87-2.63-.32-.32-.29-6.42-1.6-8.9-.4-.76-4.9-5.39-5.45-5.61-1.58-.64-3.47.69-5.38.53-7.15-.61-4.72-9.58-8-12.09-2.67-2.04-8.49-.15-9.49-1.02-.62-10.85-9.81-2.64-15.43-7.81-1.04-1.13-.73-3.07-1.6-4.63-3.68-6.59-5.98-1.8-10.52-2.42-2.22-.3-3.04-2.93-5.09-3.1-2.17-.18-3.41,2.01-5.45,2.07,10.39-68.58,127.38,23.61,88,60Z"/>
  <path class="cls-95" d="M412,573c-7.4-22.08-1.68-37.73,15.47-53.03,4.86-4.33,12.43-11.18,18.9-7.84,9.63,4.97,25.02,46.84,27.63,58.48.23,1.62-2.46,2.38-4,3.39-4.52-28.61-36-19.89-7,3-10.86,11.81-38.89,3.13-51-4Z"/>
  <path class="cls-213" d="M605,574c1.42,1.04,1.76,2.89,5,2,4.02,12.33-9.93,40.74-21.56,44.94-34.03,1.9-74.8-7.48-99.44-32.45l7,1.5c12.18,10.31,54.37,9.86,69.23,4.73s25.83-20.4,26.77-35.73c2.86,4.61,8.65,11.8,13,15Z"/>
  <path class="cls-215" d="M315,488c47.21,30.09,152.98-11.08,151-72,20.01,81.29-100.98,130.39-151,72Z"/>
  <path class="cls-188" d="M367,612c-9.65,27.28-20.8,19.87-44.2,15.7-4.12-.92-16.27-4.49-19.32-6.67-7.45-5.35-10.17-26.35-9.47-35.02,22.21,11.7,48.31,9.87,68.5-4.98,3.87.23,5.14,27.21,4.49,30.98Z"/>
  <path class="cls-71" d="M491,116c2,.19,7.19,1.65,9,3-1.02,6.96-7.65,9.42-13.31,12.19-35.61,20.93-65.39,50.1-86.21,85.8-2.04.59-2.1-5.7-2.11-6.66,1.96-43.31,46.53-96.85,92.62-94.33Z"/>
  <path class="cls-223" d="M639,863c-1.89-9.95-3.75-20.13-6-30,2.13-.51,10.44-1.87,11.98-3.49-2.43-5.36-7.74-17.58-7.95-23.11-.75-6.73,8.24-13.58,13.49-8.63,1.06.04,2.35-3.51,4.47-2.77.08,3.53.29,7.3-3.99,7.49,4.6,8.28,9.74-.52,6.49-7.5-1.88-4.05-7.14-4.65-4.5-7.99,1.47,2.74,5.66,5.16,6.49,7.01.53,9.23,3.78,16.55,11.6,22.4,8.22,5.28,13,1.66,14.66,15.35,1.29,10.69-13.19,23.79-22.08,28.41-10.63,5.52-13.95,3.39-24.67,2.83ZM662.83,812.13c-.57-.33-12.05,1.52-13.05,1.9-.68.25-2.55,3.2-2.54,3.49.01.64,7.22,9.76,7.79,10.03,2.28,1.1,8.64-4.82,9.45-6.57,1.05-2.27.11-7.85-1.65-8.85Z"/>
  <path class="cls-204" d="M735,267c.78.71,5.44,6.65,5,6.99-45.19-13.78-67.4,50.52-63,86.01-5.33,3.11-10.15,3.12-16,1-3.73-27.79,4.77-66.72,25.99-86.51,5.05-4.71,17.23-9.17,14.01-16.49,15.25-.34,20.67-.75,34,9Z"/>
  <path class="cls-113" d="M656,365c-7.68,1.56-12.16-2.34-19-4-5.52-40.08,10.41-87.5,48.07-106.51,1.93-1.7,11.66,4.95,11.74,5.99-30.59,21.56-46.82,67.44-40.81,104.52Z"/>
  <path class="cls-182" d="M653,787c-2.64,3.35,2.62,3.95,4.5,7.99,3.24,6.98-1.9,15.78-6.49,7.5,4.28-.19,4.07-3.96,3.99-7.49-2.12-.74-3.41,2.8-4.47,2.77-5.26-4.94-14.24,1.9-13.49,8.63.21,5.53,5.52,17.74,7.95,23.11-1.5,1.61-9.89,2.99-11.98,3.49-5.5-30.17-16.25-60.07-25-89,1-1.21,4.32-2.65,6.04-4.46,1.82-1.92,4.52-8.47,6.99-7.08,7.93,9.68,20.97,27.19,27.15,38.85,2.59,5.45,2.46,11.28,4.82,15.68Z"/>
  <path class="cls-89" d="M526,89c66.92-4.37,133.48,43.01,154,106-3.81.76-13.24-5.04-13,0-11.73-28.21-30.03-58.23-56.08-75.42-18.36-12.12-50.3-24.11-72.34-21.5-4.15.49-20.67,7.62-21.57,6.92.28-5.15-8.48-8.4-13.01-8.02,6.14-4.52,14.48-7.31,22-7.99Z"/>
  <path class="cls-78" d="M328,793c2.24-2.02,6.75-7.52,8.71-7.81,11.63,3.59,22.53.98,33.18,7.42,7.93,4.8,13.52,14.43,13.15,23.87-.39,10.15-17.39,4.95-23.56,4.54-10-.66-14.98,3.86-24.49-2.02l-7.99-1.99c9.47-5.43,18.92-9.64,29.75-11.76,2.77-.54,8.85.83,5.8-3.31-2.81-3.82-23.91,3.69-28.25,5.87-10.67,6.75-24.2,16.66-25.31,30.19-2.3-.02-1.92,1.99-3.98-3.54,2.33-29.29-1.06-21.47,22.98-41.46Z"/>
  <path class="cls-32" d="M362.65,574.65c-23.27,28.45-97.49,12.44-82.15-30.63,25.73,38.55,65.94,34.11,89.49-4.02,4.17,12.4,1.66,25.11-7.34,34.65Z"/>
  <path class="cls-132" d="M523,668c-1.05,7.29-2.42,14.59-2,22-17.6-2.98-38.64-4.5-55.23-11.27-17.56-10.19-37.28-18.08-54.67-28.39-1.22-2.41,3.28-7.37,5.39-7.36,31.06,16.49,71.8,20.22,106.52,25.02Z"/>
  <path class="cls-10" d="M502,116c-2.01-3.51-4.62-3.3-8-4-16.03-3.32-22.71,2.34-36,7-42.11,3.13-71.6,29.28-96,62,17.56-42.38,70.39-92.06,119.44-78.15,9.81.37,22.66-8.17,31.54,2.65-3.62,2.71-8.41,6.89-10.98,10.5Z"/>
  <path class="cls-87" d="M367,837c-.72-1.51-5.67-9.31-4.99-10,6.69,2.02,21.6,1.84,26.06-4.43,2.81-3.94-2.43-9.01,6.66-5.8,8.23,2.9,14.13,17.65,19.76,24.24,6.2,7.27,15.05,8.87,14.52,19.98-7.47.13-13.22,4.83-17,11-9.99-8.69-21.98-17.75-36-17-1.67-4.62-6.55-12.87-9-18Z"/>
  <path class="cls-225" d="M466,808l7.1-6.48c-.35-6.5,1.88-.94,5.39-7.52.37.17,4.69,5.66,5.14,6.35,19.12,29.99,27.47,36.11,61.6,47.96,1.61.56,3.27.16,2.76,2.69-.66,2.86.36,6.97-2,10-33.19,2.83-67.81-22.38-80-53Z"/>
  <path class="cls-51" d="M360.11,519.13c.77-.67,5.48-.32,6.46.86.28.33,1.44,7.87,1.48,8.55-5.43,39.85-64.54,42.9-84.27,12.18-7.52-10.71-8.48-20.3,2.72-28.7,3.75,9.91,6.02,18.33,14.49,25.49,18.73,16.09,54.74,6.87,59.13-18.39Z"/>
  <path class="cls-129" d="M374.99,268l6.47,53.15c-6.53,13.91-9.94,27.63-8.42,43.18-8.49,5-9.24-.56-11.79-7.09-9.71-24.25-5.81-71.71,13.74-89.24Z"/>
  <path class="cls-105" d="M664,797.01c31.38,7.29,61.78-4.8,77.53-33.01,35.61,28.43-70.72,78.16-77.53,33.01Z"/>
  <path class="cls-189" d="M724,754c.54,3.97-.79,9.64.03,13.29.1.42,4.53,4.38,2.97,7.71-11.64,9.78-28.2,16.88-43.52,17.98-18,1.3-38.83-8.54-22.98-27.96,9.03,23.02,53.16,2.62,63.5-11.02Z"/>
  <path class="cls-179" d="M496,699c-1.3-1.56-17.24-11.78-11.49-11.02,6.93.54,30.41,5.72,36.76,8.26,2.8,1.12,3.58,5.6,6.99,7.01,2.33.96,5.81.39,6.61.89,2.6,15.35,13.25,31.55,27.13,39.87-3.28,5.31,2.18,11.63-1,16,.37-3.09.26-2.54-2.18-3.33-4.15-1.34-2.17.88-3.47,1.29-4.1,1.29-9.68-9.78-12.35-12.97,2.26-1.06,2.47-1.39,1.04-3.53-4.19-4.91-15.67-17.38-22.04-20.47.51-1.52,3.44-11.57,3-11.99-3.82-1.15-4.34,4.89-5.8,7.72-.34.65-.04,1.97-1.69,1.27-1.83-.78-9-9.33-11.5-11.51-3.06-2.66-7.04-5.05-10.01-7.49Z"/>
  <path class="cls-149" d="M440,610c-3.53.07-17.35,2.27-18.86-.14-1.32-2.13.93-9.04.9-11.81,9.4,1,18.97,1.44,28.35-.15,3.53-.6,14.68-5.06,16.02-4.95,6.97,9.68,11.1,5.46,20.05,3.03,20.99,13.92,51.06,27.22,77.05,29.02,4.53.34,23.47-.87,25.53.47,2.71,1.77-1.23,9.31-4.47,10.62-5.18,1.38-20.17,2.26-25.58-.08,5.35-.24-3.12-1.87-2.35-3.63-18.17-10.03-38.14-14.44-57.55-22.97-9.14-4.01-7.09-2.84-16.28-4.63-15.95-3.11-23.49-6.91-40.07.48-1.9.85-7.09,3.59-2.75,4.75Z"/>
  <path class="cls-184" d="M633,855c.69,2.64,1.06,5.41,2,8-16.51,17.76-49.36,18.8-70.69,9.19-2.08-.94-12.25-7.14-13.09-8.43-.64-3.06-.86-8.86,1.78-10.76,24.26,15.19,54.34,12.88,80,2Z"/>
  <path class="cls-96" d="M534,82c77.24-2.54,148.64,55.92,159.79,132.73.34,1.99-1.22,1.82-1.77,1.27-17.36-80.59-94.8-139.94-178.01-130.01,5.7-2.3,14.23-3.23,20-3.99Z"/>
  <path class="cls-186" d="M581.99,427.01c-1.28,11.85-1.63,14.74-11.69,20.8-12.49,7.64-54.99,20.88-53.31-4.8,22.76-.82,44.06-7.65,65-16Z"/>
  <path class="cls-97" d="M613.99,770.01c-11.83,8.68-11,9.64-10.99,23.51-.48,3.56-2.82-.24-5-1.03-8.04-2.91-15-1.31-23,.5,3.9-21.04-1.89-13.91-8-25.98,12.23-.78,17.51-7.9,22.49-18.01,5.46,12.33,9.25,20.69,24.5,21.01Z"/>
  <path class="cls-45" d="M359,276c1.52-1.17,3.8-4.14,5.99-2.51-10.58,21.23-15.37,46.9-12.99,70.51l-16-4c-4.09-26,1.84-47.71,23-64Z"/>
  <path class="cls-146" d="M440,610c-4.34-1.16.85-3.91,2.75-4.75,16.57-7.38,24.12-3.59,40.07-.48,9.19,1.79,7.14.62,16.28,4.63,19.41,8.52,39.38,12.93,57.55,22.97-.76,1.76,7.7,3.4,2.35,3.63-43.72-5.56-69.05-26.99-119-26Z"/>
  <path class="cls-229" d="M739,192c11.38,21.78,15.31,54.42,1.5,76-4.09-4.33-8.77-9.91-14.5-12-.07-.24-.01-.67,0-1,4.63-5.57,3.73-12.42,4-19,.61-4.79,1.05-8.18,4-12,3.78-10.09,5.53-20.91,5-32Z"/>
  <path class="cls-152" d="M576,215c6.49,5.83,23.17,14.58,23,23.99-6.31,1.19-9.14-5.55-13.52-8.97-16.52-12.92-37.01-15.28-56.16-7.21-3.11,1.31-8.47,7.07-10.14,1.47-1.92-6.44,10-13.43,15.15-15.46,15.05-5.96,28.7-2.5,41.68,6.18Z"/>
  <path class="cls-114" d="M715,221c10.69.04,11.93,10.61,11,19-.53,6.03-.46,13.13-8,14-5.31.61-11.56-.45-17,0,.83-5.74-1.82-12.17-1.89-17.61-.03-2.47,2.44-13.9,1.91-14.39-.5-.46-3.33.97-3-.99,5.54.31,11.52-.46,16.99-.01Z"/>
  <path class="cls-19" d="M677,360c3.12,13.61,7.96,29.7,22.31,35.19,0,0,10.68,2.8,10.68,2.8-31.44,14.76-44.41-9.18-48.99-36.99,5.85,2.12,10.67,2.11,16-1Z"/>
  <path class="cls-158" d="M598,734c-.19.23.16,1.42,0,2-2.56-.07-3.86-2.79-6.59-3.9-15.68-4.56-11.56,9.67-24.4-5.1-1.21-3.92-1.75-22.61-2-27,5.05,4.7,10.99,2.63,15-2l18,36Z"/>
  <path class="cls-198" d="M414,659c12.09,9.86,19.19,22.3,21,37.99h-12c-9.45-19.92-22.71-40.41-43-51.5,12.5.84,22.94,8.47,34,13.5Z"/>
  <path class="cls-172" d="M424,663c20.8,11.13,48.73,19.96,65,37-1.16-.31-4.74-.89-6-1,3.61-9.64-42.16-.1-42.86-3.14l-6.28-18.22-9.86-14.64Z"/>
  <path class="cls-232" d="M656,365c2.18,11.92,9.95,30.87,21,37,.71.96,2.74.63,1.99,2.99-24.11.29-40.06-21.59-41.99-43.99,6.84,1.66,11.32,5.56,19,4Z"/>
  <path class="cls-224" d="M471,148c1.57,2.82-3.18,7.19-5.03,9.47-14.36,18.12-33.5,37.96-46.97,54.53l-18,10.5c10.62-10.04,16.57-23.86,26.02-34.98,11.61-13.67,29.41-29.01,43.98-39.52Z"/>
  <path class="cls-85" d="M596,457c1.35,1.37-6.65,14.89-7.86,17.64-6.41,14.63-11.3,30.63-14.15,46.36-4.93-1.04-8.49-4.14-13.99-3.01,7.35-19.96,16.57-43.33,29.43-60.06,2.03-1.45,4.32-.92,6.57-.92Z"/>
  <path class="cls-144" d="M437,869c2.22,2.98,10.56,16.32,9.82,19.24-3.84,7.6-9.16,16.77-18.82,17.76l-1.01-5c4.95-2.26,3.83,3.66,4.8-5.46-.7-6.99-4.08-6.52-7.07-10.75-2.57-3.65-3.91-8.7-7.74-11.79,4.28-8.19,13.69-14.05,20-4Z"/>
  <path class="cls-160" d="M349,852c-14.9,4.88-19.24,7.75-29.49,19.99-13.51-17.51,32.82-50.79,38.32-29.23,1.01,6.14-4.48,7.45-8.83,9.24Z"/>
  <path class="cls-120" d="M578.99,448c-.93,2.8,2.02,8.75.81,10.8-14.34,9.68-46.25,20.29-61.82,7.71-8.52-9.57,6.23-4.8,9.53-4.53,17.95,1.98,36.77-3.92,51.49-13.99Z"/>
  <path class="cls-216" d="M364,840c2.88,5.39,8.09,14.43,9.53,19.97,1.45,9.53,2.36,18.59,2.47,28.03-1.93-.39-9.96-.57-10.86-1.14-.52-.33-3.9-10.14-3.14-11.86,4.59-5.55,8.03-9.26,1.54-16.04-5.36-5.61-11.26-.89-12.54-1.96.25-4.26,2.52-2.82,5.94-4.54,5.42-3.61,5.53-13.36.43-17.32-4.39-3.4-12.8-1.15-10.95-8.19.85-1.11,8.04-2.22,9.57-1.48.92.44,6.78,12.23,8.01,14.54Z"/>
  <path class="cls-75" d="M655,271s-20.06-17.47-20.06-17.47c-4.21-4.69-16.89-20.62-22.5-21.52-3.98-.43-10.88,2.35-12.43-4.02,7.32-2.36,5.44-10.24,7.5-16,11.96,20.45,32.68,40.11,53.08,50.98,1.87,2.93-4.38,6.48-5.58,8.02Z"/>
  <path class="cls-178" d="M545.5,696.02c5.84,14.38,8.49,28.14,22.56,38.42,2.22,1.58,22.99,8.29,15.96,13.11-19.06.79-42.06-23.8-45.02-42.16-.12-2.91,4.75-6.77,6.49-9.36Z"/>
  <path class="cls-166" d="M463,577c1.03.69,2.45-.04,3,1-7.87,13.75-24.94,16.78-39.38,17.72-5.7-.63-12.94-17.71-14.62-22.72,12.06,7.11,40.16,15.82,51,4Z"/>
  <path class="cls-42" d="M496,699c2.98,2.44,6.95,4.83,10.01,7.49,2.5,2.17,9.67,10.73,11.5,11.51,3.03,1.43,2.39-10.81,7.48-8.99,0,1.71-2.72,13.82-5,14.99-3.8,10.5-6.43,18.52-12.19,28.31-7.16,12.17-17.57,26.45-28.71,34.81-.53.86.44,2.08.9,2.89-.83,2.52-3.26,1.25-6,2-1.93-.77-1.36-1.6-2-3,16.2-10.63,37.73-44.84,43.83-63.76,1.19-6.07-16.6-18.14-20.83-22.24l.98-.5c-2.03-1.78-3.42-3.62.02-3.5Z"/>
  <path class="cls-54" d="M312,842c.67-4.48,3.03-13.14,5.99-16.51,6.46-7.35,26.26-3.48,24.09,6.87-8.47,4.34-20.24,10.77-25.51,19.7-6.45,3.31-5.14-6.23-4.57-10.07Z"/>
  <path class="cls-56" d="M680,195c1.69,5.17,7.49,20.69,5.49,24.98-.95,2.03-4.1,2.87-4.48,6.61-.8,5.39,8.98,25.33-1,26.41-2.03-19.33-6.27-39.77-13.01-58-.24-5.04,9.19.76,13,0Z"/>
  <path class="cls-227" d="M451,120c-1.89,1.79-3.99,3.36-6,5-32.76,4.39-64.81,36.24-82,63-4.35-4.6-2.46-3.45-1-7,23.33-30.46,49.54-56.21,89-61Z"/>
  <path class="cls-57" d="M527,116c33.09,3.04,57.16,32.15,69,61-1.04,2.79-2.14,1.13-4,2-12.4-30.2-40.82-61.02-75.99-59.01,1.07-2.1,6.11-1.25,7.99-.99l-3.99-3c2.17-.12,4.85-.17,7,0Z"/>
  <path class="cls-154" d="M602,730c-6.78-11.5-11.04-24.89-20-35,1.42-1.49,9.82-6.4,11.36-5.94,2.44.72,12.71,20.95,13.69,24.39,2.58,9.07-.02,10.4-5.05,16.55Z"/>
  <path class="cls-33" d="M526.29,682.21c.28-.41,1.61-.13,1.69-.24-5.3-5.27.58-23.03,9.44-16.89,5.59,3.92,8.41,38.37-6.48,33.49-4.3-1.41-6.51-13.7-4.66-16.36Z"/>
  <path class="cls-90" d="M550,845c-.56,2.5-1.67,4.55-2,6,.51-2.53-1.15-2.13-2.76-2.69-34.14-11.85-42.49-17.97-61.6-47.96-.44-.7-4.77-6.18-5.14-6.35-3.51,6.57-5.74,1.02-5.39,7.52l-7.1,6.48c-5.61-12.73-6.22-12.79,8-16,2.74-.75,5.17.52,6-2,14.33,26.68,38.65,51.76,70,55Z"/>
  <path class="cls-208" d="M503.73,461.21c9.6.08-7.6,8.57-9.65,10.38-12.53,9.68-24.37,20.26-35.98,31.02-2.43,2.25-4.06,7.47-8.39,6.26-.79-.22-3.69-3.04-3.69-3.36,9.73-10.62,40.94-40.11,57.7-44.29Z"/>
  <path class="cls-212" d="M352,344c.53,4.43,8.29,24.07,7.92,25.34-5.7,6.63-10.77,3.63-13.92-3.34-5.09-7.86-8.54-16.69-10-26l16,4Z"/>
  <path class="cls-79" d="M715,221c-5.47-.45-11.45.32-16.99.01-.32,1.96,2.5.53,3,.99.54.49-1.94,11.92-1.91,14.39.08,5.45,2.73,11.87,1.89,17.61,5.44-.45,11.69.61,17,0-13.67,2.86-32.03,3.04-30.99-15.51-1.17-19.63,5.97-18.68,22.5-18.51,1.69.02,4.45-.64,5.49,1.02Z"/>
  <path class="cls-53" d="M633,833c2.25,9.87,4.11,20.05,6,30-1.06-.05-3.19-.22-4,0-7.84-27-12.41-54.6-19.72-81.83-.46-1.74.62-3.76-2.28-3.17,1.96-2.25,3.95-3.15,4-7,6.37,19.62,11.4,41.81,16,62Z"/>
  <path class="cls-110" d="M561,770c1.64,1.62,3.32,3.43,5,5-2.89,23.46-8,55.25-13,78-2.23,1.31-2.39,6.45-2,9-1.53-.94-3.24-1.15-5-1,7.76-29.35,13.26-60.28,15-91Z"/>
  <path class="cls-81" d="M424,663l9.86,14.64,6.28,18.22c1.22,3.05,46.31-6.52,42.86,3.14-11.86-1.02-41.75-.58-53,2v-2.99c-2.82-.03-4.62.63-7-1.01h12c-1.81-15.7-8.9-28.14-21-38,2.77,1.26,6.24,2.22,10,4Z"/>
  <path class="cls-112" d="M594,550c.05-.8,2.26-7.65,2.97-8.53.62-.77,10.85-9.19,11.55-9.46,2.28-.89,2.24,6.52,2.48,7.99l-5-1.99c1.86,12.86,3.37,24.97,4,37.99-3.24.89-3.58-.96-5-2,.6-1.35,3.58-.13,2.5-1.99-2.82-4.86-13.79-17.1-13.5-22.01Z"/>
  <path class="cls-163" d="M566.7,666.16c10.47-3.08,17.56,31.23,5.7,31.83-6.36.59-7.67-8.68-8.28-13.62.06-5.28-3.43-15.58,2.58-18.21Z"/>
  <path class="cls-36" d="M559.5,669c2.9.9,1.02,18.29,1.39,21.89-25.85,3.79-11.28,2.5-16.89-21.89,4.03.77,12.11-1.05,15.5,0Z"/>
  <path class="cls-7" d="M602,410c.28-2.03,2.9-4.22,4.38-5.61,14.77-10.96,21.68-25.98,23.62-44.39.04,1.1,8.35,23.62,6.53,23.96-7.85,9.76-23.06,20.09-34.53,26.04Z"/>
  <path class="cls-141" d="M560,474c-9.05,8.46-21.19,12.86-33,16-6.14-5.86-3.35-5.23-5.46-12.04-.59-1.9-2.84-2.78-2.54-4.95,13.4,5.32,27.26,4.44,40.99.99Z"/>
  <path class="cls-25" d="M467.18,404.82l-13.17-22.81c2.4-3.34,19.93,4.42,23.51,5.97,2.03,7.01-1.66,17.83-10.34,16.84Z"/>
  <path class="cls-2" d="M611,412.99l28.63-22.92c.95-.17,8.19,7.97,8.3,8.56,1.09,6.04-31.05,16.07-36.93,14.36Z"/>
  <path class="cls-191" d="M514.99,507c-7.78-3.21-4.63-3.82-13.99-2,1.54-6.24,4.8-9.87-1-14.98,6.14-1.51,12.17-3.8,16.99-8.01-3.07,4.79,6.36,12.04,6.01,13.47-.21.87-10.1,6.37-8.01,11.53Z"/>
  <path class="cls-3" d="M215,695c4.28,2.57,9.17,11.71,12.62,13.91,2.41,1.54,5.78-.05,8.3,2.23-1.41,1.97.12,4.6.08,4.86-.56,4.01-3.68,8.66-4,13-1.24.71-3.81,1.85-4,2-6.15-11.51-10.23-23.27-13-36Z"/>
  <path class="cls-41" d="M729,773c-2.83-5.19.1-11.54.08-16.5s-2.85-11.49-1.08-16.5c18.62,3.64,13.28,24.79,1,33Z"/>
  <path class="cls-190" d="M382,245c1.9-11.9,4.04-26.44,11.5-36,1.31,4.84-1.18,16.43,6.5,15.01-1.89,3.79-14.86,12.06-7,14.01.43,1.83-1.98.33-2,1.49-.05,2.95,1.64.23,3.01.49-3.68,2.93-7.47,4.07-10.5,8l-1.5-3Z"/>
  <path class="cls-124" d="M380,230c-2.04,10.97-7.66,21.64-5.41,33.03-2.37.2-12.86,6.08-13.59,5.97,1.71-13.58,10.96-28.93,19-39Z"/>
  <path class="cls-82" d="M566,642c5.45,0,10.62-.25,16-1-1.43,16.08,6.44,24.39-15,20,1.21-.42,2.23-1.37,3.92-1.07.72-6.83-.01-12.9-4.92-17.93Z"/>
  <path class="cls-150" d="M589.68,685.69c-1.78,1.95-5.11,2.65-7.68,2.32.1-7.31-1.04-14.8-4.03-21.46,7.04-3.21,7.98-8.21,11.9,1.09,2.11,5.01,3.81,13.69-.19,18.05Z"/>
  <path class="cls-107" d="M349,527c-4.41-1.87-12.25-.57-14.01-5.99l-2.98,4.99c-.37-6.23,1.91-11.61,1.49-17.99,7.63,8.68,27.88,3.2,15.51,18.99Z"/>
  <path class="cls-14" d="M621.8,418.22c4.59,7.79,10.39,8.27,15.2,13.77-13.61,2.72-23.98,1.2-26.99-13.99,3.18,1.61,9.48-1.13,11.79.22Z"/>
  <path class="cls-231" d="M477.67,575.26c6.7-.33,9.8,13.25,1.89,17.79-11.68,6.71-13.51-17.23-1.89-17.79Z"/>
  <path class="cls-21" d="M558,696c.34,1.25,2.82,1.92,2.98,2.7,1.46,7.15-.01,16.57,3.02,23.79l2-1.49,1,6c-9.13-8.25-15.54-17.05-16.01-30,2.39.14,4.76-.23,7.01-1Z"/>
  <path class="cls-157" d="M321,818c4.43-4.24,7.57-7.31,13.31-10.19,4.34-2.18,25.44-9.69,28.25-5.87,3.05,4.14-3.03,2.77-5.8,3.31-10.82,2.11-20.27,6.33-29.75,11.76l7.99,1.99-14-1Z"/>
  <path class="cls-173" d="M605,734c7.39-8.8,10.04-20.15,2.01-29.51,15.09,2.08,13.11,24.93,2.99,32.51-2.11-1.35-1.8-3.91-5-3Z"/>
  <path class="cls-159" d="M355.99,784.99c-1.73,1.48-18.91-3.3-18.97-4.49,3.49-4.87,4.15-10.96,5.99-16.5.13,2.83,11.39,18.4,12.98,20.99Z"/>
  <path class="cls-177" d="M494,112l-3,2.99c4.23-.43,4.1,1.47,0,1.01-8.01-.75-23.45,2.87-31,6l-2-3c13.29-4.66,19.97-10.32,36-7Z"/>
  <path class="cls-156" d="M602,730c-1.39,1.7-3.12,2.92-4,4l-18-36c.75-.86,1.25-2.21,2-3,8.96,10.11,13.22,23.5,20,35Z"/>
  <path class="cls-123" d="M376,855c2.49,7.92,3.7,17.79,1.99,26l-1.98-5.99c-.06,1.66.04,3.33-.01,5-2.01-17.71-1.93-23.69-12-40,1.71-.72,3.55-.75,3-3,2.45,5.13,7.33,13.38,9,18Z"/>
  <path class="cls-209" d="M567,747c2.37,1.83,15.48,4.06,13.91,6.39-2.93,7.85-9.76,6.64-15.91,8.61,1.39-4.05,1.11-8.24.92-12.43-.08-1.74-2.46-2.9,1.08-2.57Z"/>
  <path class="cls-155" d="M468,576c-5.13,0-15.91-11.25-14.89-16.42,1.94-8.13,18.8,10.77,14.89,16.42Z"/>
  <path class="cls-164" d="M728,740c-1.76,5.01,1.06,11.59,1.08,16.5s-2.91,11.31-.08,16.5c-.66.62-1.09,1.24-2,2,1.56-3.33-2.87-7.29-2.97-7.71-.82-3.65.51-9.32-.03-13.29,4.45-6.03-1.4-8.85-2-14.99,2.09-.19,4.04.45,6,.99Z"/>
  <path class="cls-60" d="M492,581c.06-1.51-.29-3.76,0-5,2.76,6.31,20.27-4.54,17-11-5.45-.98-15.78,5.87-17,11-1.08-.39-1.83.22-4-1,24.3-27.48,36.6-.73,4,6Z"/>
  <path class="cls-13" d="M470,574c-.61.4-1.31,1.8-2,2,3.91-5.65-12.95-24.55-14.89-16.42-1.2,5.05,9.39,15.35,13.89,16.42.08.96-.61,1.39-1,2-5.31-.87-22.01-17.97-12.33-21.84,7.31-2.55,17.04,10.91,16.33,17.84Z"/>
  <path class="cls-125" d="M726,230c3.26-2.42-2.37-7.28-4.49-9.01-1.47-1.06-6.38-1.65-5.5-3.48.48-1,3.66-2.86,4.83-2.34,2,4.55,5.97,2.56,7.68,9.82,3.34.42.34-3.44.49-3.99.06-.24,3.11-2.35,3-4l2.99-1.99-.99,8.99c-1.91,2.72-5.88,4.29-5.01,8.99l-1.98-1.99-1.01,8.99c.28-3.22-.14-6.72,0-10Z"/>
  <path class="cls-26" d="M565,700l1,21-2,1.49c-3.03-7.22-1.56-16.64-3.02-23.79-.16-.78-2.65-1.46-2.98-2.7,3.79-4.74,4.48,1.46,7,4Z"/>
  <path class="cls-83" d="M609,764c-7.74-.63-8.3-5-11.83-10.72-.75-2.84,4.41-4.62,6.83-5.28l5,16Z"/>
  <path class="cls-221" d="M615,766c-1.96-.71-4-1.43-6-2l-5-16c3.12,2.5,2.35-2,4-4,.71,7.45,4.5,14.77,7,22Z"/>
  <path class="cls-167" d="M605,734c3.2-.91,2.89,1.65,5,3-3.48,3.64-7.27,7.1-11.99,9-2.42-9.78,2.34-7.31,6.99-12Z"/>
  <path class="cls-169" d="M567,747c-3.54-.34-1.16.83-1.08,2.57.19,4.19.47,8.39-.92,12.43-.93.3-2.01,1.54-3,2,.02-.5-1.02-2.31-1-4,0-.13,1.08-1.14,1.08-2.46.02-4.32-2.54-8.81-.08-13.54,1.57.99,3.36,2.2,5,3Z"/>
  <path class="cls-181" d="M520,116l3.99,3c-1.87-.26-6.91-1.11-7.99.99l11.99,1.01c-7.61-.62-15.46.92-23,0,.18-.44-.12-1.39,0-2,.65-.67,1.43-1.24,2-2,1,2.65,9.43-1.51,13-1Z"/>
  <path class="cls-210" d="M590.02,746c-2.2-7.02-1.23-5.82-7.01-10.99,12.87-2.8,14.42,12.27,7.01,10.99Z"/>
  <path class="cls-72" d="M502,116c-.55,1.09-1,2.25-2,3-1.81-1.35-7-2.81-9-3,4.1.46,4.23-1.44,0-1.01l3-2.99c3.38.7,5.99.49,8,4Z"/>
  <path class="cls-134" d="M463.99,588.01c2.06,1.76-5.91,4.53-6.99,3.98.35-1.15,6.59-4.33,6.99-3.98Z"/>
  <path class="cls-64" d="M873,191c4.44,10.4,7.52,27.87,6,39-2.66,10.47-13.57,37.83-24,43-.62-1.59-3-6.14-3-6.5,5.37-52.23-51.67-105.76-104-98.5-.82-2.67-2.74-7.55-4-10,37.29-37.54,109.67-12.05,129,33Z"/>
  <path class="cls-234" d="M734,277c41.32,16.05,20.81,105.84-17.94,115.55-14.04,2.44-23.6-2.59-29.06-15.55-14.56-34.41.87-102.83,47-100ZM726.02,315.99c-11-22.46-25.7-6.12-25,12.5.25,6.79,4.31,31.08,11.7,33.31,12.91,1.87,32.79-25.79,30.27-38.29-.51-6.26-3.04-12.93-10.45-11.5-3.13.6-3.61,4.22-6.51,3.98Z"/>
  <path class="cls-218" d="M383,136c-1.61,1.71-3.31,4.92-5,7-6.19-1.92-11.04-7.51-17.02-10.48-38.08-19.14-88.14,3.38-103.98,41.48-4.68.99-5.16-16.12-5.62-19.33.47-75.31,109.34-90.65,131.62-18.67Z"/>
  <path class="cls-143" d="M821,102c37.87,8.24,67.98,49.2,57.99,88-.99.43-1.78-.97-1.99-1-20.11-48.16-96.57-73.82-136-35-.46-.7-.76-1.69-1-2,13.68-33.41,43.4-56.68,81-50Z"/>
  <path class="cls-58" d="M861,628c27.53,24.33,29.18,77.89-4,99-13.4,8.76-34.31,4.95-45-6.5,15.64-1.54,29.95-13.27,32.99-28.49-2.69-.77-2.26,2.27-3.99,4-21.95-10.17-18.65-33.67-8.52-52.02,1.72-3.11,8.09-13.36,11.05-13.96,1.97-.4,4.42.2,6.47-.02-2.22,13.21.44,26.32.06,39.44.76,4.86,3.5,6.55,3.98.11.97-12.93-.74-26.6-.04-39.54,1.34-.17,5.49-1.46,7-2Z"/>
  <path class="cls-201" d="M374,148c-1.99,2.6-3.55,5.54-5.71,8.02-43.11-1.88-86.88,29.27-100.29,69.98-7.09-.85-11.58-45.03-7-51,15.83-42.45,81.18-62.14,113-27Z"/>
  <path class="cls-217" d="M158,533c.87.93,2.85,2.16,4,3-15.03,27.41-32.97,66.68-6.01,92.51,1.17,1.05,7.41,4,6,5.48-27.32,9.09-61.89-19.49-54-48.99,1.1-4.44,5.32-9.96,4.99-15-8.04,9.99-15.07,24.39-14.99,37.5.12.87-1.86.6-1.99.5-20.04-31.77-1.22-63.13,34.98-64.98-2.69,3.26-7.56,5.28-8.82,9.67-.35,1.23-.76,2.86,1.3,2.3,1.9-.51,10.42-10.02,13.27-11.96,5.58-3.78,14.8-8.04,21.25-10.03Z"/>
  <path class="cls-86" d="M854,369c-1.87.51-4.83,8.82-3,11-1.05.58-1.97,1.39-3,2-17.6-43.07-74.41-54.8-47-111,36.56,15.8,65.57,57.24,53,98Z"/>
  <path class="cls-233" d="M883,319c-4.47,5.19-15.33,19.42-22,20-1.07-5.08-1.8-10.02-3.54-14.96-1.38-3.91-8.07-15.68-8.24-17.71-.12-1.44,5.04-12.66,6.04-15.57,1.22-3.56,1.56-8.8,2.74-11.76,1.96-4.9,10.77-14.36,14.17-20.33,4.46-7.82,7.72-16.26,10.83-24.67,25.97,17.11,15.87,63.77,0,85Z"/>
  <path class="cls-74" d="M901,648c16.71,17.66,29.48,36.76,17.17,61.67-.78,1.57-9.18,14.29-11.17,12.32,5.82-8.56,7-25.22,0-32.99.39,22.44-22.94,39.36-44.01,39,32.52-25.83,25.36-72.26,4-103,1.36-.79,5.21-3.1,6-4,8.82,9.42,19.14,17.64,28,27Z"/>
  <path class="cls-6" d="M360,61c22.32,3.67,51.96,59.23,26,72-11.94-38.53-51.14-56.48-89-45,8.49-20.03,42.86-32.29,63-27Z"/>
  <path class="cls-22" d="M316,223c8.65,33.86-20.3,59.96-44.03,79.47-2.24,2.35-11.3,14.83-12.15,15.31-.58.33-2.63.36-2.81.21-14.4-38.95,24.06-82.36,58.99-95Z"/>
  <path class="cls-201" d="M777,202c8.2,5.28,20.49,20.12,28.99,27.51,20.82,18.1,61.97,38.61,39.51,71.47-25.65-34.27-79.59-44.3-69.5-98.98.27.14.77-.15,1,0Z"/>
  <path class="cls-121" d="M830,429c-.3-.1-1.67-.1-2,0-27.01-21.75-37.73-56.65-17-87,21.1,17.9,47.44,51.96,32.86,80.35-3.37,4.62-9.99,2.3-13.86,6.65Z"/>
  <path class="cls-168" d="M880,396c-6.2,6.86-13.86,13.02-20,20-3.21-11.55-7.83-22.82-12-34,13.27-6.52,12.61-24.09,14-37,10.9-6.09,18.84-16.48,26.5-25.98,17.62,23.16,9.9,56.63-8.5,76.98Z"/>
  <path class="cls-233" d="M759,84c24.74-13.67,58.4-11.16,73.99,14.52.87,2.22-1.09,1.21-2.08,1.08-39.68-12.8-79.43,11.3-94.91,48.4-3.37-2.89-8.05-5.01-11-8,.42-22.16,15.13-45.05,34-56Z"/>
  <path class="cls-127" d="M816,425c18.91,14.88,29.83,41.72,26.18,65.61-1.47,9.14-5.07,14.12-8.98,22.12-.39.79.18,1.85-1.6,1.18-29.42-18.33-42.44-63.69-18.97-91.84,1.83-.3,2.48,1.98,3.36,2.92Z"/>
  <path class="cls-200" d="M301,186c4.44-3.89,36.26-23.53,39.95-20.97,8.55,46.41-41.14,54.67-66.95,80.97-2.68.57-1.97-1.34-2.46-2.99-6.3-20.73,16.05-43.52,29.46-57.01Z"/>
  <path class="cls-35" d="M749,173c45.93-7.63,99.16,39.79,97.99,85-10.52-11.14-23.52-19.48-35-29.48-16.27-14.33-31.07-30.64-48.67-43.33-2.78-1.97-12.35-6.64-13.33-7.68-1.62-1.73-.64-3.07-.99-4.5Z"/>
  <path class="cls-180" d="M280,354c-6.3,8.08-22.79,26.07-31,30-11.05-39.09,16.53-71.89,45-95,12.54,18.81-1.46,48.93-14,65Z"/>
  <path class="cls-49" d="M235,262c4.49,8.11,9.34,19.25,14.76,26.74,1.05,16.01-2.41,17.91,5.04,35.61-4.36,8.27-11.08,19.3-11.81,30.65-23.37-24.17-41.63-69.04-11.35-95.92,1.64-.28,2.63,1.83,3.36,2.92Z"/>
  <path class="cls-74" d="M239,261c-11.62-24.26-11.68-58.58,12.61-74.9,1.91-.7,2.18,2.86,2.39,3.9.92,21.61,12.28,40.96,15,62-22.21,24.75-10.2,50.8-30,9Z"/>
  <path class="cls-100" d="M214,406c17.26,31.81,15.2,65.47-15,88v-14.5c-7.41-26.29-15.95-61.55,12.48-78.5,1.62,1.26,1.68,3.34,2.52,5Z"/>
  <path class="cls-64" d="M224,337c12.13,15.42,20.39,28.6,20,49-1,12.17-4.24,35.6-17,41-10-26.73-30.28-67.32-3-90Z"/>
  <path class="cls-73" d="M873,478c16.48,16.67-3.31,47.56-17,61-6.65,6.72-15.19,11.78-20.5,19.98-13.87-33.81,8.7-64.83,37.5-80.98Z"/>
  <path class="cls-103" d="M855,273c.85,2.19.79,5.17,3,6-1.18,2.96-1.52,8.2-2.74,11.76-1,2.91-6.16,14.14-6.04,15.57.17,2.02,6.86,13.8,8.24,17.71,1.74,4.94,2.47,9.88,3.54,14.96,2.85,5.87-.74,23.99-3,31-1.15-2.48-2.99-3.37-3.18-.18l-.82-.82c12.57-40.76-16.44-82.2-53-98,1.22-1.69,3.72-2.29,5-4,13.95,10.61,29.45,18.58,39.5,33.98,22.45-32.86-18.7-53.37-39.51-71.47-8.5-7.39-20.78-22.23-28.99-27.51l.98-.49c-2.3-2.21-2.97-3.13.02-4.51,21.84,21.61,46.16,40.52,68.99,61,1.16-45.22-52.04-92.61-97.99-85-.39-1.61-.58-3.62-1-5,52.29-7.27,109.39,46.27,104,98.5,0,.36,2.38,4.91,3,6.5Z"/>
  <path class="cls-65" d="M283,359c14.35,36.88-24.49,70.95-53.99,83,.42-5.11-.79-10.09-2.01-15,1.46-.8,3.92-1.85,5-3-1.1,4.69,2.29,2.43,4.05.55,3.32-3.55,8.01-13.76,9.46-18.54,1.15-3.79,2.17-14.36,3.41-16.35,10.97-6.2,21.73-18.31,30.27-27.97,1.15-1.29,1.55-2.77,3.82-2.68Z"/>
  <path class="cls-100" d="M166,539c1.94.94,10.42,2.5,11.03,3.7,1.47,2.89,5.26,14.8,5.71,18.06,2.74,20.12-7.01,32.04-21.72,43.77l-8.02,14.48c-16.52-27.25-1.85-55.97,13-80Z"/>
  <path class="cls-46" d="M880,402c.82-.65,1.91-1.09,2.98-1,22.39,38.27-4.41,70.18-35.97,91l-.02-17.49-3.99-21.51c2.66,5.16,4.46,16.49,12.29,11.82,3.36-2.01,4.96-11.39,7.7-15.33,2.86-4.11,15.94-12.07,16.06-13.1.74-6.76-14.08-6.71-17.05-13.39-.83-5.66,5.29-7.82,8.53-10.97,2.83-2.76,6.84-7.92,9.47-10.03Z"/>
  <path class="cls-49" d="M810,499c1.74,4.93,19.23,17.84,19.78,20.62.29,1.5-2.37,9.21-2.65,12-2.93,11.68,9.83,38.77,3.4,43.37-27.56-14.73-47.53-51.07-20.52-75.99Z"/>
  <path class="cls-135" d="M316,223c-34.92,12.64-73.38,56.05-58.99,95,.18.15,2.22.12,2.81-.21.85-.48,9.91-12.97,12.15-15.31,5.81-6.07,13.53-11.14,19.03-16.47,2.23-.61,1.95,1.43,3,3-28.48,23.12-56.04,55.9-45,95-1.62.78-3.13,1.83-5,2,.39-20.4-7.87-33.58-20-49,1.46-1.04,2.58-1.24,4-2,.87,1.38,14.11,20.89,14.99,20,.81-4.95,1.85-10.24,3.55-14.96,1.32-3.63,8.11-14.27,8.25-15.69-7.46-17.76-3.97-19.63-5.04-35.61-5.42-7.49-10.26-18.63-14.76-26.74l1.02-2,2.49,1.99.5-.98c26.32,53.9-6.28-3.76,74-42,2.03,1.19,2.25,2.09,3,4Z"/>
  <path class="cls-71" d="M155,529c-11.48,5.22-25.16,11.4-38,12-24.32,1.38-34.25-25.19-21.99-43.99,2.51,27.46,36.48,18.42,55.36,20.12,1.47.51,3.18,9.31,4.63,11.87Z"/>
  <path class="cls-101" d="M414,78c4.68,11.95,2.74,20.93,0,33-4.37,2.6-8.35,6.06-12.51,8.99l-1.49-5.99c2.77-22.31-17.11-48.56-37-57-1.1-.47-2.53,1.11-1.99-1.99,21.67-3.27,44.18.03,52.99,22.99Z"/>
  <path class="cls-151" d="M732,183c1.86,10.55,4.94,29.88-3,38-.47-2.6-6.73-4.5-7.02-5.7-1.15-4.8.8-13.8.02-19.3,4.75-4.39,7.78-9.47,4.99-16-3.96,1.92-3.99,7.15-6.99,10-9.62-35.06-31.02-66.61-59.99-88.5,33.7,12.54,62.4,45.79,71.99,81.5Z"/>
  <path class="cls-127" d="M225,484c-27.15,6.5,4.5-4.49,4.16-36.85,9-3.35,16.74-9.21,24.84-14.15,5.63-3.43,10.65-8.49,10.9,1.6.58,23.61-17.92,43.99-39.9,49.4Z"/>
  <path class="cls-117" d="M843,453l3.99,21.51.02,17.49c7.22-6.46,15.85-11.48,22.99-18,2.15.9,2.01,2.7,3,4-28.8,16.15-51.37,47.17-37.5,80.98,5.31-8.2,13.85-13.26,20.5-19.98.99.91.69,3.52,1,4-3.8,5.75-19.83,17.49-20.95,23.55-1.9,10.29,3.56,26.03,10.95,33.45-2.37,1.44-2.84,2.29-6,3-2.83-4.61-5.97-18.58-8.54-21.96-1.21-1.58-7.18-4.04-9.36-5.64-4.56-3.34-9.8-8.67-14.09-11.41l1-5c2.08,2.16,18.56,15.38,20.52,15.99,6.44-4.44-6.33-31.79-3.4-43.36.28-2.79,2.95-10.5,2.65-12-.54-2.78-18.03-15.7-19.78-20.62.98-.75,1.78-2.31,3-3,1.72,1.82,19.41,22.88,20.2,16.73,14.21-20.5,11.39-51.46-2.2-71.73,5.33-3.26,10.09,8.3,12,12Z"/>
  <path class="cls-17" d="M875,618c-.84-15.24,30.24,6.23,36.72,7.77,11.15,3.92,25.45,3.34,35.27-3.77-1.11,19.59-26.15,33.4-42.99,23-9.11-6.26-19.04-20.6-29-27Z"/>
  <path class="cls-219" d="M720,137c-.34,1.14-.08,2.18-1.5,2.98l-16.16-18.46c7.65-24.11,27.24-49.47,55.66-43.51.29.87-.96,1.64-1,1.99-20.87,11.06-33.65,34.37-37,57Z"/>
  <path class="cls-49" d="M857,543c16.17,14.81,8.7,46.27-10,57-7.39-7.42-12.85-23.16-10.95-33.45,1.12-6.06,17.16-17.8,20.95-23.55Z"/>
  <path class="cls-142" d="M190,461c6.45,17.07,7.8,41.68-8,54-28.34-19.99,1.43-67.4,8-54Z"/>
  <path class="cls-37" d="M227,427c1.21,4.91,2.43,9.88,2.01,15,1.2,1.36,20.68-11.34,22.99-13,2.79,1.04,1.13,2.14,2,4-8.1,4.94-15.84,10.8-24.84,14.15.33,32.37-31.31,43.35-4.16,36.85,1.87,1.9,4.96-.13,6,3-6.63,2.37-15.55,2.16-20.23,4.27-2.2.99-2.99,3.07-4.88,4.12-2.26,1.27-6.74,2.52-8.2,3.55-1.65,1.16-7.41,16.75-11.69,19.06-1.56-.74-2.67-1.98-4-3,15.8-12.32,14.45-36.93,8-54,3.37-.62,3.9,4.4,4,0,4.72,11.89,5.63,20.03,5,33,30.21-22.56,32.26-56.17,15-88,.88-1.78,3.49-1.78,3-4,3.05,8.4,7.76,15.93,10,25Z"/>
  <path class="cls-130" d="M186,518c4.28-2.31,10.04-17.9,11.69-19.06,1.46-1.03,5.94-2.28,8.2-3.55,1.88-1.06,2.67-3.13,4.88-4.12,5.49-2.29,16.22-2.11,23.22-5.27,3.78,23.15-29.56,40.79-47.99,32Z"/>
  <path class="cls-88" d="M864.02,590c7.41,4.68,9.24,15.12,6.48,22.99-4.66,13.26-30.41,16.72-38.34,3.36-6.28-10.59,1.68-7.47,8.09-8.61,9.79-1.74,19.88-8.4,23.77-17.74Z"/>
  <path class="cls-55" d="M809,564c4.29,2.74,9.53,8.07,14.09,11.41,2.18,1.6,8.16,4.06,9.36,5.64,2.58,3.38,5.71,17.35,8.54,21.96-21.63,5.01-44.66-18.82-34.99-40,1.79-.55,2.08.42,2.99,1Z"/>
  <path class="cls-228" d="M877,189c-1.78-.22-5.14-.11-4,2-19.34-45.05-91.7-70.54-129-33-.49-.95-2.16-2.73-3-4,39.42-38.82,115.9-13.16,136,35Z"/>
  <path class="cls-195" d="M163.68,502.12c3.16-.86,5.84,7.09,7.9,9.8,6.32,8.27,14.64,10.84,23.38,15.58-13.74,27.05-56.38-8.49-31.29-25.37Z"/>
  <path class="cls-47" d="M723,272c2.18.07,7.23,2.17,9.99,2.01l-5.99,1.98,7,1.01c-46.14-2.82-61.55,65.58-47,100-1.32,1.96-.4,2.85-3,3-18.81-32.8-.56-99.72,39-108Z"/>
  <path class="cls-117" d="M848,382c3.47,8.74,6.69,18.16,10,27v6c-4.34-.31-2.91-.42-3.01-4.99-1.95-.3-.56,2.31-.99,3-.05.08-1.35-.26-1.73.22-.34.43-1.66,7.98-3.07,10.48-4.19,7.42-8.58,5.78-15.2,8.3-1.27-.09-3.75-2.92-4-3,3.86-4.35,10.49-2.02,13.85-6.65,14.57-28.42-11.74-62.42-32.85-80.35.8-1.21,1.27-2.73,2-4,14.23,14.16,27.06,24,35,44Z"/>
  <path class="cls-15" d="M817,97l-.5.99,7.5,1.02-3,2.99c-37.6-6.68-67.32,16.59-81,50-.92-1.19-2.81-2.98-4-4,13.81-31.36,45.26-56.93,81-51Z"/>
  <path class="cls-116" d="M418,76c-.31-.76-1.32-3.68-1-3.99,12.79,1.92,23.45,13.86,26.03,26.44-7.98,2.92-16.5,5.58-24.04,9.56,2.82-9.65,4.43-23.18-1-32Z"/>
  <path class="cls-12" d="M386,133c-.96.97-2.09,2.03-3,3-12.36-36.65-49.97-56.48-87-43-.59-2.26.26-3.25,1-5,37.86-11.49,77.07,6.48,89,45Z"/>
  <path class="cls-194" d="M863,728c-1.17-.02-4.01-1.84-6-1,33.18-21.1,31.53-74.68,4-99,1.46-.52,4.54-2.15,6-3,21.36,30.73,28.51,77.18-4,103Z"/>
  <path class="cls-205" d="M280,354c-.27,2.2,2.75,4.39,3,5-2.26-.09-2.67,1.39-3.82,2.68-8.52,9.65-19.32,21.78-30.27,27.97-1.24,1.99-2.25,12.56-3.41,16.35-1.45,4.78-6.14,14.99-9.46,18.54-1.76,1.88-5.15,4.15-4.05-.55,7.22-7.65,11.8-27.64,12-38,11.98-3.08,27.59-22.06,36-32Z"/>
  <path class="cls-102" d="M378,143c-1.33,1.64-2.71,3.31-4,5-17.53-21.59-55.65-21.93-79-10l-2-2c28.75-17.21,58.83-12.01,85,7Z"/>
  <path class="cls-211" d="M400,114c-.09.71-1.69,2.39-1.01,4l-2.99-2c-.23-20.13-15.23-49.54-36-55l3-4c19.89,8.44,39.77,34.69,37,57Z"/>
  <path class="cls-4" d="M166,539c-14.85,24.01-29.52,52.77-13,80,.05.25-.72,4.25-1,5-21.49-26.6-3.81-61.98,10-88,.81.6,3.77,2.89,4,3Z"/>
  <path class="cls-76" d="M757,80c-.57,1.71,3.34.77,4,1.01v.98c-3.88.51-1.86,1.88-2,2.01-18.87,10.94-33.59,33.85-34,56-.95-.96-.91-2.72-1.11-2.91-.17-.15-1.31.88-1.7.62-.58-.4.55-2.84-2.19-.71,3.34-22.62,16.13-45.95,37-57Z"/>
  <path class="cls-133" d="M259,184c-.72,10.04,2.66,32.21,6.97,41.34.59,1.26,1.82.48,2.03.66,1.08.95,2.2,1.76,3,3-1.53,5.43-1.05,8.75.54,14.01.5,1.64-.22,3.56,2.46,2.99-1.52,1.61-3.63,4.21-5,6-2.72-21.03-14.08-40.39-15-62,2.45-.72-.21-4.82,0-4.99,1.07-.85,4.08,2.54,5-1.01Z"/>
  <path class="cls-139" d="M737,182c-2.96-13.08-8.78-23.83-15.01-35.49.73-1.47,2.45.16,3.32.68,12.29,7.02,22.31,25.4,16.19,38.8l-4.5-2c-.12-.61.13-1.41,0-2Z"/>
  <path class="cls-23" d="M301,186c-11.11,9.72-25.98,28.73-30,43-.8-1.24-1.92-2.05-3-3,5.02-15.71,14.52-31.26,28-41l5,1Z"/>
  <path class="cls-174" d="M155,529c.12.22,2.83,3.82,3,4-6.45,1.99-15.67,6.25-21.25,10.03-2.85,1.93-11.37,11.44-13.27,11.96-2.06.55-1.66-1.07-1.3-2.3,1.26-4.39,6.13-6.41,8.82-9.67-4.48,1.14-10.46.95-14.99-.02l3.49-.98-2.5-1c12.87-.61,26.49-6.77,38-12Z"/>
  <path class="cls-94" d="M879,230v3c2.28-1.24,2.64.1,4,1-3.1,8.42-6.37,16.85-10.83,24.67-3.4,5.97-12.22,15.42-14.17,20.33-2.21-.83-2.15-3.81-3-6,10.42-5.15,21.35-32.54,24-43Z"/>
  <path class="cls-145" d="M293,136l2,2c-13.24,7.12-28.71,22.78-34,37-3.54,1.68-2.49.22-4-1,6.15-15.51,20.63-31.48,36-38Z"/>
  <path class="cls-34" d="M854,630c-.7,12.95,1.02,26.62.04,39.54-.49,6.44-3.22,4.76-3.98-.11.37-13.12-2.28-26.22-.06-39.44,1.3-.14,2.71.16,4,0Z"/>
  <path class="cls-230" d="M904,645l-3,3c-8.86-9.36-19.18-17.58-28-27,.12-.14,1.92-2.84,2-3,9.95,6.38,19.89,20.76,29,27Z"/>
  <path class="cls-202" d="M418,76c5.43,8.83,3.82,22.34,1,32-1.43.75-3.46,2.08-5,3,2.74-12.07,4.68-21.05,0-33,1.04-2.79,2.14-1.13,4-2Z"/>
  <path class="cls-52" d="M887,321c-7.3,8.82-14.82,18.36-25,24,.4-6.26-.62-4.19-1-6,6.66-.58,17.53-14.8,22-20l.5.98,2.49-1.98,1.01,3Z"/>
  <path class="cls-222" d="M880,402c-2.64,2.1-6.64,7.27-9.47,10.03-3.24,3.16-9.36,5.31-8.53,10.97-1.18-2.65-1.18-4.57-2-7,6.14-6.98,13.8-13.14,20-20v6Z"/>
  <path class="cls-9" d="M732,183l3.99,5.99,1.01-6.99c.57,5.93,3,11.78,2,18-2.4-2.18.99-8.02-4-7.99.45,6.66.68,13.4,0,20l1.99.99c-.77,3.4-1.27,8.09-3,11l.99-8.99-2.99,1.99c3.04-10.31,2.37-23.54,0-34Z"/>
  <path class="cls-220" d="M502.99,92.01c.41,2.26-.1,1.6-1.27,2.23-34.6,12.31-27.65-2.98,1.27-2.23Z"/>
  <path class="cls-20" d="M520,108l-1,6.99c.77.66,6.95-1.18,8,1.01-4.58-1.57-20.48,3.57-20,1,3.05-7.57,5.28-8.23,13-9Z"/>
  <path class="cls-117" d="M820,422c2.3,2.7,4.56,5.75,8,7-1.67,3.15-4.62.17-6,2-2-2.04-4.01-3.86-6-6,.98-.58.81-2.65,1.12-2.95.43-.43,2.63,1.26,2.88-.05Z"/>
  <path class="cls-162" d="M108,585l-2-4c1.92-3.73,3.52-8.36,6.99-11,.33,5.04-3.89,10.56-4.99,15Z"/>
  <path class="cls-103" d="M776,202c-1.64,3.58-1.27,9.85-1,14-2.26-4.3-.43-10.28-.99-14.99,1.86-.57,1.74.86,1.99.99Z"/>
  <path class="cls-118" d="M841,696c1.74-1.73,1.31-4.76,3.99-4,.96,3.03-1.22,4.34-1.99,6-.36-1.04-1.03-1.55-2-2Z"/>
  <path class="cls-9" d="M526,89c-2.71.24-7.39,1.22-10,2,2.01-1.98,7.74-4.05,10-2Z"/>
  <path class="cls-9" d="M731,259l-.49.98c-.99-1.35-6.77-2.14-4.51-3.98,2.23.15,3.46,1.72,5,3Z"/>
  <path class="cls-9" d="M537,85l1,2.99c-2.56-.03-5.81.75-3-2.99.67,0,1.33-.02,2,0Z"/>
  <path class="cls-9" d="M729,249c-.7,2.42-1.36,4.05-3,6-2.48-1.76,2.55-4.38,2.01-7l.99,1Z"/>
  <path class="cls-8" d="M238,728c2.05-.06,3.28-2.25,5.45-2.07,2.06.17,2.87,2.8,5.09,3.1,4.54.61,6.84-4.17,10.52,2.42.87,1.55.57,3.49,1.6,4.63,5.62,5.18,14.8-3.04,15.43,7.81,1,.87,6.82-1.02,9.49,1.02,3.28,2.51.85,11.48,8,12.09,1.91.16,3.81-1.17,5.38-.53.54.22,5.04,4.85,5.45,5.61,1.31,2.48,1.28,8.58,1.6,8.9.43.42,5.56-.92,7.87,2.63,3.26,5.02-3.75,11.27,1.16,13.84,2.82,1.48,5.84-.2,4.95,5.55-7.49,6.21-16.44,9.85-20,20-8.67-17.97-29.31-39.7-49.99-43.99-3.08,3.06,13.98,12.15,15.91,13.58,12.45,9.25,31.66,27.72,29.02,44.85-.74,4.82-3.06,4.97-5.38,7.63-2.24,8.9-10.93,3.23-15.88-.24-3.14-2.14-11.44-11.07-13.18-11.82-2.14-.92-1.93,3.86-2.52,5-.41-.17-.79-.99-.96-1.01,6.81-20.7-3.98-34.8-26-29-3.87-3.07-14.5-12.66-19.26-11.85-3.54.6-1.91,2.73-7.29.45-.51-.22-1.4.46-1.44.4-.36-7.25.87-16.54,6.5-21.99,3.25-3.01,9.24-4.6,11.95-8.05,3.84-4.88,4.25-13.75,8.54-18.96,2.87-3.2,5.99-4.94,8-10Z"/>
  <path class="cls-109" d="M229,959c.26-.03,4.81-1.32,5.03-1.47,1.83-1.18.53-7.19-1.03-8.53-5.78-5.01-16.18,9.98-19.46,13.04-27.71,18.33-92.05,11.22-118.02-10.06-5.35-7.13-1.84-24.16,1.49-31.98,18.73,28.47,69.7,32.61,99.75,24.26,11.64-3.7,22.69-12.66,33.42-15.58,13.14-3.57,29.36-1.07,40.81-10.68-3.43,34.01-7.25,39.69-41.99,41Z"/>
  <path class="cls-44" d="M226,860c.35,1.26-1.5,2.77-.93,3.88,1.27,1.99,15.75,8.45,18.93,10.13-10.63,15.06-20.94,32.65-19,51.99-8.52,3.12-16.92,9.5-27,13l-4.26-16.24c-10.01-15.95-30.71-10.22-46.99-13.01-10.36-1.77-29.38-6.23-19.76-19.74,3.02-1.3,6.77-2.31,10-3,5.19-.78,1.23,1.83,2.16,5.26,3.32,12.23,28.54,11.13,37.84,6.74,7.08,7.48,20.8,3.38,22.79-6.72.65-6.07-6.97-10.57-1.27-15.25,4.09-3.37,10.7,3.84,16.94-4.06,6.57-8.31-2.95-14.46-1.45-15.95,4.05.13,8.15,5.93,11.99,2.99Z"/>
  <path class="cls-63" d="M395,907c-9.34,15.64-81.88,71.07-81.04,25.49,6.26-36.04,56.9-57.53,81.04-25.49Z"/>
  <path class="cls-67" d="M410,883c.73,5.25,7.75,10.73,9.24,14.25,1.76,4.14-1.34,7.12,3.76,6.75-3.61,4.64-5.04,15.02-7.52,20.98-9.53,24.11-77.78,72.28-95.31,36.35-.64-1.26-2.78-4.96-1.2-5.85,26.31-3.41,68.82-23.63,82.21-47.8,3.56-7.74,4.54-16.39,8.82-24.68Z"/>
  <path class="cls-16" d="M193,941c-23.4,6.06-46.26,2.55-68.52-5.98-32.01-11.83-28.24-24.79-2.48-42.02,1.37.76-.91,2.53-1.09,4.48,10.01,33.8,77.45-3.26,72.09,43.52Z"/>
  <path class="cls-140" d="M215,824c3.24-.73,7.85.82,10.99-1.49-3.53-4.72-7.06-3.12-11.99-2.51.1-16.43,34.08-25.95,39.77-10.27,2.95,14.45-12.73,45.05-29.28,44.74-15.1-.28-16.77-28.83-9.49-30.47Z"/>
  <path class="cls-44" d="M246,877c29.36,8.48,10.49,29.89,21.99,34.99l1.02-18.99c8.45,30.53-18.71,28.49-40.01,31.99-3.04-16.26,5.64-36.31,17-48Z"/>
  <path class="cls-80" d="M412,872c-7.1,9.76-9.61,20.89-15,31-4.31-5.14-13.45-10.85-19-13.01-.67-.9,1.82-3.14,2.02-4.55-.81-8.84-1.15-21.55-4.02-30.44,14.02-.75,26.01,8.31,36,17Z"/>
  <path class="cls-199" d="M300,813c2.78,13.36.51,30.55-12.07,38.43-9.18,6.16-8.47,2.4-14.93-4.43-4.73-5-9.15-9.59-14.32-14.18-1.29-1.15-2.77-1.55-2.68-3.82.05-1.57.17-3.08,1.96-.99.59-1.15.38-5.92,2.52-5,1.74.75,10.04,9.68,13.18,11.82,4.94,3.45,13.64,9.16,15.88.24,2.32-2.66,4.64-2.81,5.38-7.63,2.65-17.13-16.56-35.6-29.02-44.85-1.93-1.43-18.99-10.52-15.91-13.58,20.65,4.27,41.37,26.07,49.99,43.99Z"/>
  <path class="cls-192" d="M194,823c-.12,2.77,1.64,5.31-1.02,7.47-1.64,1.33-14.59,4.97-15.99,4.1-6.53-4.08-2.46-23.96-.05-30.12,7.03-17.93,21.27-21.7,28.89-1.76.2,2.29-4.14,4.1-5.68,5.97-.81.97-5.96,9.66-6.15,10.35l-9,1.99,9,2.01Z"/>
  <path class="cls-126" d="M271,850c5.07,6.09,8.65,10.52,4.2,18.7-1.86,3.43-6.89,5.95-7.25,9.89-.16,1.71,1.65,1.21,1.97,2.18,1.74,5.33,1.73,14.75.08,20.23.02-1.96.88-7-.99-7.99l-1.02,18.99c-11.47-5.02,7.32-26.58-21.99-34.99,1.06-1.25,2.02-2.68,3-4,18.78,3.28,33.55-20.75,8.6-22.94-2.35.24-11.17,4.05-12.6,2.93-.27-.21,2.19-3.35,0-3.99,2.4-2.95,8.34-12.54,10-16,4.62,5.96,11.23,11.27,16,17Z"/>
  <path class="cls-91" d="M142,880.99c3.45-26.09,80.01,7.07,43.59,18-3.36-.35-8.81-6.63-12.27-8.82-8.7-5.51-21.05-9.23-31.32-9.18Z"/>
  <path class="cls-214" d="M245,849c2.19.64-.27,3.78,0,3.99,1.43,1.12,10.25-2.68,12.6-2.93,28.93,2.25,5.36,37.76-23.98,15.77-2.07-1.34-3.51-5.54-7.62-4.84v-1c6.96-1.17,14.55-5.53,19-11Z"/>
  <path class="cls-197" d="M163,856.99c7.88-18.35,37.86-3.73,48.94,4.57,6.58,5.99,2.01,12.86-6.2,11.23-13.64-7.78-26.4-15.32-42.74-15.8Z"/>
  <path class="cls-18" d="M361.65,869.65c-10.08,5.95-29.78,10.56-36.15,23.33-18.67-18.86,48.31-49.01,36.15-23.33Z"/>
  <path class="cls-207" d="M127,890c-9.62,13.52,9.39,17.97,19.76,19.74,16.27,2.79,36.98-2.94,46.99,13.01l4.26,16.24c-1.57.54-3.2,1.53-5,2,5.37-46.77-62.1-9.74-72.09-43.52.18-1.95,2.46-3.72,1.09-4.48,1.98-1.22,2.38-1.88,5-3Z"/>
  <path class="cls-11" d="M379,874c.19,2.45,1.22,10.08,1.02,11.44s-2.69,3.65-2.02,4.55c5.57,2.18,14.67,7.86,19,13.01-.73,1.36-1.02,2.53-2,4-15.48-21.85-49.32-19.06-67-1,.83-1.93.74-3.97,1-6,10.15-5.54,19.71-12.47,32-12,0-5.04-5.13-9.48,1-13-.76,1.73,2.62,11.53,3.14,11.86.9.57,8.93.75,10.86,1.14.03-4.33-.04-8.67.01-13l1.98,5.99,1.01-7Z"/>
  <path class="cls-24" d="M203,781c.31,1.46-.46,5.15.01,6,.04.07.93-.62,1.44-.4,5.38,2.28,3.75.15,7.29-.45,4.76-.81,15.4,8.78,19.26,11.85-5.02,1.32-15.78,9.44-19.99,7.49-5.26-4.62-11.06-17.45-8.01-24.49Z"/>
  <path class="cls-31" d="M417,873c3.82,3.09,5.17,8.14,7.74,11.79,4.79,5.03,8.94,7.52,6.26,16.22-1.81-1.87-6.2,1.12-8,2.99-5.09.38-2-2.6-3.76-6.75-1.5-3.53-8.51-9-9.24-14.25,2.14-4.13,4.2-6.48,7-10Z"/>
  <path class="cls-44" d="M212.99,857c-10.46-6.96-19.94-10.26-31.8-13.72-1.03-.3-2.96.1-2.18-1.77,2.4-4.38,14.62-4.74,17.49-9.49.5,0,2.93,3.3,3.99,3.99,1.87,1.2,4.78,1.45,5.98,3.02l6.53,17.96Z"/>
  <path class="cls-122" d="M359,878c-.77,3.13,2.29,6.8,2,10-12.29-.47-21.85,6.47-32,12,.34-2.65.29-5.48,1.58-7.93,2.76-4.1,23.41-19.04,28.42-14.07Z"/>
  <path class="cls-93" d="M173,895c-6.02,4.78-24.31,4.35-29.03-1.47-1.21-1.49-4.45-6.68-.97-7.53,9.12-.15,22.36,3.88,30,9Z"/>
  <path class="cls-61" d="M159,865.99c5.39-7.71,19.65-2.33,26.98.53,6.41,3.01,17.25,5.74,5.53,11.5-7.5-3.75-22.42-12.15-32.51-12.03Z"/>
  <path class="cls-131" d="M206.99,834c-15.63-2.72-6.9-32.24,6.98-23.5-3.69,7.08-6.42,15.45-6.98,23.5Z"/>
  <path class="cls-176" d="M143,886c-3.48.85-.24,6.04.97,7.53,4.72,5.82,23.01,6.25,29.03,1.47,2.06,1.38,2.96,3.24,4,4-9.3,4.39-34.52,5.49-37.84-6.74-.93-3.43,3.03-6.04-2.16-5.26,2.32-.5,2.91-.95,6-1Z"/>
  <path class="cls-183" d="M238,887c-5.89,9.9-11.79,26.61-9,38-.77.17-3.64.87-4,1-.86-14.22,3.41-29.78,12-41l1,2Z"/>
  <path class="cls-38" d="M273,847c-1.43.43-1.99,1.54-2,3-4.77-5.73-11.38-11.04-16-17,.16-.33.3-2.3,1-4-.09,2.26,1.39,2.67,2.68,3.82,5.16,4.6,9.59,9.18,14.32,14.18Z"/>
  <path class="cls-84" d="M307.99,855.99c-8.12-2.65-10.68-9.19-3.49-14.98,3.13.01,1.87,12.19,3.49,14.98Z"/>
  <path class="cls-170" d="M229,959c-6.39.63-6.13-3.23-1.38-5.88,2.78-1.55,6.35.27,5.38-4.12,1.56,1.35,2.85,7.35,1.03,8.53-.22.14-4.77,1.44-5.03,1.47Z"/>
  <path class="cls-39" d="M346.99,856.01l-2.64,3.85-16.35,8.14c-1.5-1.29,17.74-13.18,18.99-11.99Z"/>
  <path class="cls-104" d="M214,820c4.93-.62,8.47-2.22,11.99,2.51-3.15,2.32-7.76.76-10.99,1.49-.76-1.22-1.05-2.57-1-4Z"/>
  <path class="cls-108" d="M194,819c-.25.93.05,2.8,0,4l-9-2.01,9-1.99Z"/>
  <path class="cls-9" d="M237,730c-2.6,4.78-4.31,4.74-7,8-2.16-4.78,1.07-2.8,2.52-3.94l4.48-4.06Z"/>
  <path class="cls-106" d="M531,296c-7.14-3.09,2.17-15.27,5.49-19.01,20-23.18,57.47-16.74,72.2,8.92,2.92.72,15.75-10.53,17.3-8.9l-1.82,5.67-9.17,13.32c4.27.01,8.44,1.25,12.67,1.61,2.07.18,4.87-1.95,5.32,1.88-.5,2.29-20.14,15.58-22.54,15.54-4.59-.08-1.35-11.87-8.44-11.02-1.6,13.54-4.37,27.09-15,36.51-.88,2.11,3.24,1.34,1.98,2.47-4.72,4.27-26.78,7.1-33.43,4.95l-6.56-3.94c3.55.92,7.32,1.19,11,.99-18.51-19.82-14.93-54.26,7-69.98-14.32-.58-29.62,8.22-36,20.99ZM580.71,287.21c-10.23,2.33-7.43,19.33,2.71,18.77,12.1-.66,10.67-21.82-2.71-18.77ZM584.69,321.32c-2.51-1.88-13.82-4.64-16.48-3.1-1.29.75-6.33,8.69-6.76,10.73-4.73,18.34,12.31,17.69,21.81,8.44.3-.25,1.62.54,2.22-.31,2.02-2.84,2.23-13.5-.79-15.75Z"/>
  <path class="cls-185" d="M531,296c6.37-12.77,21.67-21.56,36-20.99-21.93,15.72-25.51,50.16-7,69.98-26.62,3.3-36.32-28.2-29-48.99Z"/>
  <path class="cls-136" d="M386,298.01c4.83.46,8.56,7.73,12.99,2.47,2.28-2.72-1.13-8.62.02-12.47,1.62-1.86,6.17,7.48,7.58,7.82.92.22,12.65-2.19,16.95-1.86,9.34.71,26.56,10.1,28.28,19.79.34,1.94-.4,8.77-3.19,8.15-12.58-10.17-26.51-15.65-42.92-9.7-2.92.96-4.15,3.76-7.98,2.63-3.47-1.03-11.23-12.81-11.72-16.82Z"/>
  <path class="cls-66" d="M583,258.99c-17.24-3.77-36.8-.25-48.98,12.53-1.76.91-1.92.16-3.02-1.04,5.58-14.22,34.88-21.41,48.4-15.38,1.61.72,3.97,1.65,3.6,3.89Z"/>
  <path class="cls-206" d="M471,355.01c-.37,1.81-1.98,1.86-3.47,2.03-9.04,1-14.88-5.25-12.08-14.1,1.55-4.89,13.63-8.83,13.53-5.44-.08,2.61-10.99,2.93-9.8,10.78.74,4.89,8.09,4.95,11.82,6.73Z"/>
  <path class="cls-187" d="M446.99,296.99c-2.9,2.97-11.61-12.37-13.99-13.51-.6-1.79,1.27-1.42,1.34-1.53.66-1.01-1.67-3.84,2.66-.46,2.22,1.73,12.38,13.05,9.99,15.5Z"/>
  <path class="cls-226" d="M370.77,378.27c7.49-1.68,19.37.13,25.21,5.23-6.07,5.61-16.01,12.81-24.49,13.49-10.19.81-14.16-1.33-9.55-11.55,1.38-3.06,5.65-6.45,8.83-7.17Z"/>
  <path class="cls-137" d="M413.71,444.21c10.97-2.51,19.63,7.23,10.34,15.33-13.05,11.37-24.23-12.15-10.34-15.33Z"/>
  <path class="cls-148" d="M424.85,439.86c-1,.61-3.48-.05-4.85.15.63-9.57-5.39-18.87-16.05-15.56-3.51,1.09-5.65,7.65-8.96,4.05-2.09-2.27.85-5,2.53-6.49,12.02-11.83,32.62,3.86,27.34,17.85Z"/>
  <path class="cls-153" d="M388.75,440.22c2.95,2.86-2.98,5.67-5.46,6.57-9.89,3.59-24.74.27-30.16-9.42-1.18-2.11-3.58-8.44.39-8.41,2.6.02,3.53,4.89,5.05,6.97,3.79,5.21,12.62,7.73,18.84,6.99,3.56-.43,9.01-4.96,11.35-2.7Z"/>
  <path class="cls-43" d="M346.71,402.21c3.52-.81,7.73-.49,10.31,2.26,1.86,1.98,6.91,13.63,3.46,14.52-5.22,1.35-4.49-9.47-8.5-11.55-3.78-1.96-7.55,3.59-9.48,3.59-1.08,0-3.49-2.04-3.49-2.54,0-.84,6.03-5.9,7.69-6.29Z"/>
  <path class="cls-165" d="M516.39,810.39c-1.42,1.17-6.58,7.34-8.38,5.61,1.69-3.77-5.07-12.26-5.07-13.51,0-2.37,5.83-3.91,7.95-5.11,1.31-.74,3.08-3.26,3.63-3.38,3.1-.7,3.04,7.31,3.74,9.24.81,2.24,4.17,2.93,1.81,5.32-1.07,1.08-2.75,1.06-3.68,1.82Z"/>
  <path class="cls-171" d="M543,745c-5.37-6.43-12.7-12.81-18.98-18.52-1.24-1.13-2.04-2.5-4.02-2.48.11-.31,1.22-.65,2-3,6.34,3.05,17.88,15.58,22.04,20.47,1.43,2.14,1.21,2.47-1.04,3.53Z"/>
  <path class="cls-5" d="M554,848c-.55,2.46,4.08,3.13,5.76,3.74,28.99,10.51,41.08,7.74,69.2-1.11,1.47-.46,2.41,1.57,2.04-1.64.39,1.68,1.51,4.11,2,6-25.66,10.88-55.74,13.19-80-2,.36-1.66.63-3.31,1-5Z"/>
  <path class="cls-92" d="M662.83,812.13c1.76,1,2.7,6.58,1.65,8.85-.81,1.74-7.17,7.67-9.45,6.57-.57-.28-7.78-9.4-7.79-10.03,0-.29,1.87-3.23,2.54-3.49,1-.37,12.48-2.22,13.05-1.9Z"/>
  <path class="cls-125" d="M739,200c-.07,6.24-.76,7.54-2,13l-1.99-.99c.68-6.6.44-13.34,0-20,4.99-.02,1.59,5.81,4,7.99Z"/>
  <path class="cls-138" d="M492,576c1.22-5.13,11.55-11.98,17-11,3.28,6.46-14.27,17.31-17,11Z"/>
  <path class="cls-30" d="M726.02,315.99c2.9.24,3.38-3.38,6.51-3.98,7.41-1.43,9.94,5.23,10.45,11.5,2.52,12.49-17.34,40.15-30.27,38.3-7.39-2.23-11.45-26.52-11.7-33.31-.69-18.62,14.01-34.96,25-12.5Z"/>
  <path class="cls-48" d="M854,369l.82.82c.19-3.19,2.03-2.3,3.18.18-1.75,4.96-2.49,7.51-7,10-1.83-2.18,1.13-10.49,3-11Z"/>
  <path class="cls-50" d="M860,416c.94,15.89,17.91,10.84,19.05,20.39-.12,1.03-13.19,9-16.06,13.11-2.74,3.93-4.34,13.32-7.7,15.33-11.57,8-12.52-28.5-24.29-23.82-2.3-3.18-6.18-7.12-9-10,.7-1.4,2.73-.1,4.08-.43,1.14-.28,1.75-1.52,1.92-1.57,2.4-.94,3.42,2.25,6,3-1.01.38-2.22.07-2.98,1.5,17.23,9.77,13.13,13.56,21.97,27.5,2.33-11.82,8.18-20.17,19.01-25.5-3.2-2.07-10.5-3.42-13.04-5.95-3.16-3.15-5.59-12.06-4.95-16.55.43-.69-.96-3.29.99-3,.1,4.57-1.33,4.69,3,4.99v-6c.79,2.09,1.22,4.67,2.01,7Z"/>
  <path class="cls-196" d="M722,196c-.06-.43-1.57-4.25-2-6,3-2.85,3.03-8.07,6.99-10,2.79,6.52-.24,11.6-4.99,16Z"/>
  <path class="cls-161" d="M854,413c-.64,4.49,1.79,13.39,4.95,16.55,2.54,2.53,9.84,3.88,13.04,5.95-10.83,5.33-16.67,13.69-19.01,25.5-8.83-13.95-4.77-17.76-21.97-27.5.76-1.43,1.97-1.12,2.98-1.5,13.74-2.93,15.5-5.74,18.27-18.78.38-.48,1.68-.14,1.73-.22Z"/>
  <path class="cls-40" d="M226,861c4.11-.7,5.55,3.49,7.62,4.84,2.83,1.84,12.41,6.83,15.38,7.16-3.12,4.71-8.09,9.23-11,14l-1-2,7-10.99c-3.18-1.68-17.65-8.14-18.93-10.13-.45-.7.53-2.14.93-2.88Z"/>
  <path class="cls-203" d="M584.69,321.32c3.02,2.26,2.81,12.91.79,15.75-.6.85-1.92.06-2.23.31-9.51,9.26-26.53,9.91-21.81-8.43.43-2.04,5.47-9.98,6.76-10.73,2.66-1.55,13.97,1.22,16.48,3.1Z"/>
  <path class="cls-128" d="M580.71,287.21c13.38-3.05,14.81,18.11,2.71,18.77-10.14.55-12.94-16.44-2.71-18.77Z"/>
</svg>