<?xml version="1.0" encoding="UTF-8"?>
<svg id="Layer_1" data-name="Layer 1" xmlns="http://www.w3.org/2000/svg" width="1024" height="1024" viewBox="0 0 1024 1024">
  <defs>
    <style>
      .cls-1 {
        fill: #b3c150;
      }

      .cls-2 {
        fill: #512a20;
      }

      .cls-3 {
        fill: #fdf9f5;
      }

      .cls-4 {
        fill: #2d1310;
      }

      .cls-5 {
        fill: #210b07;
      }

      .cls-6 {
        fill: #ace9eb;
      }

      .cls-7 {
        fill: #14030c;
      }

      .cls-8 {
        fill: #ae9ae8;
      }

      .cls-9 {
        fill: #8e77cb;
      }

      .cls-10 {
        fill: #4f291f;
      }

      .cls-11 {
        fill: #c1abed;
      }

      .cls-12 {
        fill: #512b21;
      }

      .cls-13 {
        fill: #8069b9;
      }

      .cls-14 {
        fill: #fda7c7;
      }

      .cls-15 {
        fill: #fda8c8;
      }

      .cls-16 {
        fill: #ace9ec;
      }

      .cls-17 {
        fill: #af6545;
      }

      .cls-18 {
        fill: #c3aced;
      }

      .cls-19 {
        fill: #120108;
      }

      .cls-20 {
        fill: #290d09;
      }

      .cls-21 {
        fill: #16040b;
      }

      .cls-22 {
        fill: #ad9ae8;
      }

      .cls-23 {
        fill: #fee36f;
      }

      .cls-24 {
        fill: #1d0906;
      }

      .cls-25 {
        fill: #fec337;
      }

      .cls-26 {
        fill: #4f2920;
      }

      .cls-27 {
        fill: #1b070c;
      }

      .cls-28 {
        fill: #fefaf5;
      }

      .cls-29 {
        fill: #fea7c8;
      }

      .cls-30 {
        fill: #210b08;
      }

      .cls-31 {
        fill: #2a0f10;
      }

      .cls-32 {
        fill: #c2aced;
      }

      .cls-33 {
        fill: #fea7c7;
      }

      .cls-34 {
        fill: #ade9ec;
      }

      .cls-35 {
        fill: #b2bf4f;
      }

      .cls-36 {
        fill: #fee36e;
      }

      .cls-37 {
        fill: #fde36f;
      }

      .cls-38 {
        fill: #512b20;
      }

      .cls-39 {
        fill: #370b07;
      }

      .cls-40 {
        fill: #4e291f;
      }
    </style>
  </defs>
  <path class="cls-12" d="M836,855.01c-17.98,10.82-62.39,6.76-74.43-11.08-9.36-13.88,8.15-11.9,16.76-18.1,21.64-15.59,15.19-47.03,33.7-69.3,1.65-1.99,7.97-6.64,8.05-7.18.24-1.56-3.76-8.6-4.12-12.81-.22-2.64-.15-6.18.28-8.8.46-2.81,3.98-8.52,3.64-10.03-.18-.82-6.06-8.46-7.36-11.74-4.56-11.52-4.44-22.59-1.45-34.41,1.06-4.2,7.78-16.93,7.7-17.9-.18-2.17-3.61-5.91-4.65-8.29-4.45-10.16-7.88-21.13-7.13-32.37,0,0-18.53,16.96-18.53,16.96-30.14,28.2-86.1,26.13-109.97-8.95-79.05,128.03-318.26,134.87-409.31,19.29-2.27-3.74-7.63-17.27-9.2-18.8-1.23-1.19-9.5-4.03-12.29-5.71-4.75-2.85-8.58-6.81-13.19-9.81.95,13.93-2.48,26.7-8.99,39.03-1.23,2.33-8.11,11.74-8.15,12.48-.07,1.19,2.82,6.21,3.34,8.28,3.95,15.54,3.78,30.81-4.55,44.88-1.63,2.76-8.8,10.26-8.94,10.96-.31,1.62,2.18,9.8,1.65,14.77s-5.94,13.87-5.9,15.15c.02.71,7.65,8.38,9.24,10.73,12.35,18.24,10.86,53.1,28.86,63.14,5.24,2.92,13.91-.67,14.89,7.18,1.24,9.95-14.2,18.95-22.18,21.7-3.23,1.11-7.97.92-10.74,2.26-1.96.94-3.95,4.47-6.12,5.88-10.94,7.09-25.33,9.06-38.17,7.31-3.66-.5-15.28-6.43-15.75-5.74-2.38,3.51,3.53,9.57-10.06,7.55-51.58-7.65-61.55-79.16-24.96-113.06,2.13-1.97,13.63-9.8,13.89-11.12.18-.93-5.61-12.42-5.91-17.83-.39-7.17,4.98-17.78,4.82-18.86-.19-1.26-5.16-7.36-6.3-9.66-10-20.16-12.97-41.25-3.19-62.23,1.23-2.64,7.64-11.72,7.5-13.14-.17-1.74-5.43-8.68-6.66-11.29-13.73-28.46-12.76-62.19,7.68-87.01.26-1.47-5.85-10.98-6.99-13.68-14.77-34.93-14.54-75.96,13.01-104.32.15-.86-5.47-13.31-6.33-16.36-9.9-35.2-1.98-80.41,23.47-107.52,2.59-2.76,15.76-12.19,16.03-13.2-.09-73.28,75.1-135.42,147.25-110.04,17.19,5.94,30.17,16.58,43.21,28.73,89.93-45.67,192.03-47.52,281.2.86,2.8,1.52,17.39,11.3,18.7,11.04,62.72-83.92,183.97-43.49,204.17,53.1,1.07,4.94,1.31,16.68,2.97,20.03,34.59,25.87,44.37,80.01,33.21,120.22-.85,3.11-6.72,17.19-6.55,18.14,24.34,27.75,23.64,71.62,8.71,104.02-1.29,2.82-7.5,11.47-7.68,13.28-.1.99,7.54,14.41,8.81,17.83,8.04,21.62,7.38,51.02-5.2,70.84-1.43,2.25-8.6,9.66-8.71,10.33-.09.54,3.94,7.18,4.66,9.09,7.82,21.03,6.07,43.77-5.34,63.18-1.59,2.71-7.6,9.47-8.03,11.05-.32,1.18,3.04,12.08,2.49,17.42s-7.03,17.06-6.81,18c.26,1.07,5.46,3.75,6.94,5.09,48.23,43.95,22.59,118.14-42.47,122.55-6.8.46-23.75.48-27.02-7.06-3.17-7.31,10.15-8.48,12.48-14.97ZM766,171s2.5-1.01,2.5-1.01c-15.99-.82-29.59.19-44.73,5.28-.67.22-4.27.76-1.76,1.73-7.3,2.85-18.38,9.97-24.47,15.03-2.54,2.11-17.11,16.73-17.45,18.61-.39,2.11,28.41,24.75,30.9,29.88,0,0,18.02-3.53,18.02-3.53-2.28-43.11,39.7-32.33,39,4,.94.94,14.7-2.77,17.52-2.98,19.86-1.54,37.59,9.33,50.46,23.5,2.29,2.52,3.76,6.48,6.03,8.97,5,5.49,13.66,9.6,17.99,16.51,0,0,0-20.5,0-20.5,0-43.8-51.67-91.35-94-95.5ZM194.01,269.99c1.01,1.18,22.1-17.91,25.08-18.41,23.45-14.45,49.56-23.6,77.45-22.63,3.98.14,11.11,2.64,14.49,1.64,1.39-.41,18.17-14.88,21.66-17.41,6.63-4.8,13.71-9.13,20.83-13.17,3.7-2.17-4.18-8.5-6.51-10.53-59.07-51.43-151.9,8.89-153,80.5ZM697,247.99c.41-1.51-.4-1.66-.98-2.5-99.28-107.26-289.7-93.77-388.04,7.99,0,0-12.96,16.53-12.96,16.53,97.14-96.84,276.99-109.15,373.54-5.03,1.08,1.13,1.33,2.93,1.47,3.03,1.38.97,21.22-21.04,26.98-20.01ZM504,208c-123.86-11.66-274.57,85.63-248.7,237.2,0,0,4.7,12.8,4.7,12.8,0,0,0-15.5,0-15.5,10.92-85.59,113.63-132.78,175.89-180.11,22.91-17.44,42.83-35.59,66.8-52.16.62-.43,3.1-.82,1.31-2.23ZM648.99,387c-9.09-31.33-8.45-66.37,5.13-96.38,1.11-2.45,7.04-10.36,6.72-11.97-.97-5.03-33.71-31.08-39.93-35.06-19.5-12.48-67.77-34.09-90.43-33.38-13,.41-40.15,26.75-52.03,33.81-1.99,3.52,9.09,20.47,11.73,24.29,36.62,53.08,106.96,82.93,158.8,118.69ZM755.99,249.99c1.28-1.4-4.31-27.04-9.5-26.97-3.06.04-4.91,12.34-3.84,15.82s12.44,12.12,13.33,11.15ZM293,243c1.11-.05,3.26.69,2.99-.99-12.33-.42-24.55.04-36.56,2.94l.57,1.05c-17.95,4.03-43.63,16.65-56.03,30.47-3.05,3.4-6.37,10.19-8.97,12.53-.05.05-.32-1.6-.99-1-5.99,5.39-4.44,40.42-.14,48.64l1.13-.64c1.33,4.19,14.96,32.01,17.5,31.98.74,0,9.37-8.61,11.03-9.95,3.8-3.04,15.22-10.05,17.42-12.58s7.5-22.27,9.57-27.43c10.4-25.95,26.02-52.4,45.47-72.53l-2.99-2.49ZM827.99,273.98c1-1.68-9.61-12.43-11.52-13.96-10.07-8.06-20.01-10.18-32.85-8.9-26.33,2.63-13.31,8.86-2.16,17.9,10,8.11,11.46,13.03,26.91,11.84,3.3-.25,18.27-4.63,19.61-6.89ZM721.76,253.26c-57.14,7.85-72.12,87.45-56.04,133.52,5.92,16.96,30.8,15.24,45.3,12.74,45.65-7.86,82.55-44.59,77.96-93-2.62-27.64-21.3-30-40.29-41.71-3.72-2.3-12.15-10.2-14.72-11.28s-9.18-.68-12.22-.26ZM465.67,256.1c-2.34.2-31.74,25.54-36.76,29.31-65.57,49.18-155.57,86.56-153.95,183.13.3,17.89,3.55,36.09,4.02,53.98.5,18.86-5.63,31.27-7.84,49.14-4.82,39.01,8.99,68.78,40.95,90.76,96.65,66.47,274.56,60.67,346.13-40.68,1.93-2.73,10.28-15.24,10.61-17.43.28-1.88-6.15-23.18-6.81-28.81-3.31-28.31,1.79-64.4,11.95-91,1.96-5.14,14.08-27.87,14.08-29.97,0-3.45-10.92-19.85-13.64-23.42-12.44-16.31-34.72-31.73-51.9-43.1-56.14-37.17-123.7-66.08-154.65-130.36-.51-.94-.97-1.62-2.19-1.52ZM838.99,379c12.78-28.27,35.23-71.18,3.48-94.96-7.11-5.32-7.15.14-14.15,3.79-2.22,1.16-6.93,3.2-9.26,3.74-3.46.8-18.39.76-19.07,1.44-.77.77,1.84,8.45,1.99,10.51.48,6.56.53,16.48.05,23.02-.3,4.06-3.96,17.23-3.68,19,.38,2.47,34.92,26.6,38.13,32.48l2.5.98ZM153,337c-.16-.01-.55-.86-.98-1.01-4.57,21.68-3.72,42.49,4.22,63.28l4.76,7.74c1.41,2.81,10.85,18.59,13.47,18,1.33-.3,11.04-20.54,13.1-23.92,2.32-3.79,16-21.46,16.27-22.83s-11.81-20.76-13.71-24.89c-2.73-5.96-5.44-13.03-7.14-19.36,1.89-.97.65-3.37.35-4.83-2.3-11.14-3.58-21.19-1.3-32.62l-.06-6.54c-1.74-.25-.86,1.87-.99,2.99-1.23-.5-.26-3.75-2-2.51-7.53,5.38-16.9,21.93-20.48,30.52-1.01,2.43-4.66,16.06-5.52,15.98ZM875.98,433.99c7.84-13.55,15.77-26.36,19.74-41.78,7.28-28.29,3.37-67.8-14.89-91.54-11.16-14.51-8.82-7.9-9.84,3.81-1.81,20.75-6.78,44.2-14.5,63.5-1.39,3.47-9.18,17.87-9.09,19.53.09,1.5,14.41,20.61,16.77,24.81,3.78,6.71,6.95,13.89,9.76,21.06l2.05.61ZM797.99,431.99c-5.17-16.97-4.61-33.83.98-50.52.92-2.76,5.06-9.22,5-11.01s-9.74-11.36-10.96-10.47c-.4.3-3.39,7.14-4.6,8.91-1.42,2.07-6.77,8.11-6.95,9.57-.51,4.08,3.13,20.09,3.52,26.03.4,6.07.24,13.02-.65,19.05l13.66,8.43ZM202.01,477c1,.74,13.52-12.76,14.96-14.53,2.85-3.49,18.09-25.45,18.81-28.23.97-3.75-1.65-14.08-1.82-18.7-.22-6.05-.25-13.04,0-19.08.21-5.11,5.07-33.07,4.03-34.46-1.57-2.1-26.09,22.34-27.96,24.53-8.08,9.53-24.4,34.59-26.58,46.42s5.13,18.58,10.72,28.37c1.39,2.43,7.14,15.15,7.84,15.67ZM809,399l-1-.52c-.18,10.64-.34,21.14,2.02,31.53.35-.07.9-1.03.98-1.01.75.17,4.13,11.15,5.14,13.36,2.23,4.88,4.9,9.61,8.03,13.97,2.26,3.15,21.71,25.98,23.35,26.66,1.74.72,1.37-.81,1.7-1.27,2.3-3.16,4.07-9.72,6.26-13.74,2.28-4.19,8.63-12.68,9.75-16.25,4.75-15.09-13.44-43.08-23.21-54.26-2.44-2.8-23.89-24.07-26.01-22.47-1,.75-6.74,21.51-7.01,24ZM768.99,390.01c-.76-.81-16.78,10.3-18.97,11.52-2.63,1.45-14.45,5.92-14.9,6.6-.3.46.5,10.49.88,10.89.55.57,12.88-1.93,15.45-2.05,2.8-.14,6.24-.14,9.03.07,1.71.13,10.12,2.4,10.52,1.98.99-1.06-1.01-27.93-2-28.99ZM719.99,413c-.7-.82-17.83,3.01-21.47,3.05-6.1.06-12.72-1.43-18.75-2.34-1.32-.2-1.99-1.85-1.77.77,8.25,8.57,15.83,18.04,21.49,28.51,2.22-4.85,18.56-13.41,20-16,.69-1.24.96-13.45.5-13.99ZM156.99,421c-2.11-1.59-8.86,9.02-9.79,10.69-17.94,32.39-8.42,83.92,22.79,104.3.61-.54,3.79-12.4,5.15-15.36,4.29-9.33,15.47-22.75,18.07-29.92,2.26-6.22-4.81-17.47-8.05-23.39-6.7-12.28-15.82-23.07-22.97-35.03-1.24-2.08-4.71-10.93-5.21-11.3ZM880.01,536c1.84,1.37,9.61-9.95,10.8-11.68,18.58-27.06,24.78-70.8,2.69-97.29-7.13,12.57-16.61,23.71-23.67,36.31-2.63,4.69-12.64,24.18-12.79,28.27-.1,2.86,11.08,17.99,13.48,22.38,3.81,6.97,7.26,14.37,9.49,22.02ZM775,437.01c-96.23-43.67-145.85,208.07-33.52,197.97,10.79-.91,1.92-2.75-3.01-6.96-47.18-42.61-21.23-164.8,36.52-191.01ZM782.74,448.24c-34.38,5.9-55.23,72.48-56.78,102.22-1.76,33.75,14.81,101.17,59.51,63.51,20.77-17.5,37.8-61.75,39.52-88.48,1.58-24.72-7.1-83.28-42.24-77.25ZM240.99,453c-1.71-1.7-1.69.63-2.08,1.42-20.62,40.93-27.85,118.06,15.09,147.58.06-6.34-1.75-13.23-2.03-19.46-.71-15.8-1.73-35.5-1-51.08.45-9.68,6.45-35.59,5.56-41.99-.26-1.86-7.25-13.43-8.7-16.8s-6.1-18.93-6.84-19.67ZM208,544c1.67-9.27,1.67-20.73,0-30,.29-4.99,4.51-26.57,4.01-28.49-.54-2.1-4.08,2.02-4.52,2.48-10.49,11.05-34.44,50.27-29.93,64.95l15.94,29.04,17.25-19.59c-.79-6.04-2.42-12.31-2.75-18.39ZM834,489c-1.78,9.33,1.58,23.51,1.04,34.54-.4,8.22-5.87,27.9-1.91,33.83.4.6.77,1.19,1.37,1.61l.5-.98c5,4.64,10.72,16.14,15.48,20.02.66.54,1.61,1.62,2.51.97.5-.36,4.24-8.8,5.6-10.91,2.02-3.14,14.21-20.04,14.31-21.54.23-3.58-5.84-18.18-7.72-22.22-7.01-15.01-17.66-28.11-29.69-39.32-2.63-.48-1.2,2.48-1.49,3.99ZM145,542c-13.48,18.55-12.06,51.72,1,70,2.79,3.9,10.79,13.48,14.49,16.01s1.95-.04,3.31-2.7c2.95-5.78,21.04-31.87,21.18-33.87.24-3.47-9.43-21.96-11.8-26.11s-19.34-31.05-22.63-30.33c-.44.1-4.78,5.96-5.54,7ZM893.98,540.01c-5.35-1.41-35.01,43.25-34.94,47.58-.9,6.63,3.06,8.35,5.47,13.4,1.96,4.1,4.03,8.18,5.52,12.48,1.04,3,4.23,18.85,4.98,19.53,1.92,1.75,16.8-13.86,18.41-16.08,15.42-21.51,13.61-54.84.57-76.91ZM849.98,668c.41-.28,3.61-7.04,4.79-8.73,2.92-4.2,11.73-13.65,12.21-17.88.91-8.06-7.89-29.31-11.81-37.06-2.45-4.86-20.3-33.38-24.65-32.33-2.06.49-7.65,20.58-8.22,23.8-3.05,17.38-1.93,33.8,7.28,49.12,1.57,2.62,18.87,24.12,20.4,23.08ZM185.01,667c1,.75,7.52-4.59,8.88-5.6,27.92-19.92,31.35-53.84,20.09-84.39-1.47-1.14-23.52,24.65-25.38,27.1-6.83,8.99-19.55,26.23-16.15,37.94.7,2.41,4.68,7.1,6.06,9.93,1.26,2.57,5.84,14.53,6.49,15.02ZM159.99,709c.53-.4,4.15-10.41,5.2-12.31,8.37-15.21,16.33-15.13,7.98-34.35-3.48-8.02-14.5-22.46-21.64-27.36-.7-.48-1.46-1.6-2.51-.97-12.24,18.98-12,43.32-.19,62.66,1.03,1.73,9.99,13.2,11.15,12.33ZM888.99,638c-4.77-3.46-33.09,33.69-32.82,40.77,1.99,6.79,5.84,13.36,8.1,20.47.9,2.82,2.27,13.24,2.74,13.76,1.07,1.18,11.08-6.5,12.51-7.97,11.54-11.86,15.88-31.45,14.51-47.55-.22-2.56-4.07-18.76-5.05-19.47ZM855,717c2.09-2.1-3.68-20.84-5.15-24.36-1.82-4.38-17.19-28.66-20.36-28.62-1.05.01-3.06,5.3-3.52,6.46-8.91,23.32,1.19,49.1,29.02,46.52ZM171,715c1.02,1.02,12.9,1.05,15.24.74,23.02-2.98,26.07-30.66,20.75-48.74-1.52-1.14-21.43,18.68-23.38,21.1-2.75,3.41-15.58,23.92-12.6,26.89ZM155.36,742.65c9.64,10.03,37.78,9.4,40.4-7.39,1.75-11.21-4.1-5.56-11.22-5.23-8.94.42-17.83-1.48-25.91-5.15-1.58-.72-7.25-5.14-7.61-4.87-3.86,2.84.83,18.98,4.34,22.64ZM830.01,726c-1.09.75-1.24,9.56-.94,11.43,1.96,12.1,21.38,13.79,30.98,12.12,9.7-1.69,19.04-10.21,19.37-20.4.32-10.06-5.07-3.5-11.18-1.41-8.74,2.98-15.04,4.19-24.46,2.98-3.68-.47-13.17-5.13-13.77-4.71ZM200.99,855.01c-24.81-4.1-40.83-32.93-40.03-56.55.24-7.17,9.69-32.57,7.6-35.53-.43-.61-13.34-4.85-14.08-4.83-41.93,15.55-46.94,77.79-6.97,98.88-.38-4.99-3.72-12.72-.1-17.08,4.9-5.88,9.68,3.98,13.69,7.48,9.89,8.62,25.12,13.7,37.88,9.07.96-.35,2.3-.1,2.01-1.46ZM778,841.98c19.05,8.11,45.12,9.2,61.03-6.45,21.67-20.74,2.96-47.4-1.82-71.25-6.74-8.89-8.93-6.88-14.62.8-19.24,27.67-7.13,56.98-43.35,74.6-.76.55-2.61.78-1.24,2.29ZM238,838.99c-7.84-5.68-15.76-11.23-20.51-19.97-6.56-12.06-6.76-26.48-11.72-39.28-1.49-3.85-9.45-19.93-13.24-20.39-1.34-.16-8.99,3.11-10.46,4.22-5.16,3.89-10.45,24.19-11.04,30.96-3.2,36.43,35.21,58.21,66.98,44.47ZM843,864.99c3.6,2.63,24.57-4.04,29.21-6.28,40.71-18.9,42.1-79.32,2.08-99.53-2.16-.32-16.01,4.41-20.95,4.76-1.64.12-5.15-1.14-5.32-.93-2.31,2.69,7.96,27.33,9.25,32.24,5.53,20.87,3.37,41.32-7.46,60.07-.88,1.53-7.28,9.34-6.8,9.69Z"/>
  <path class="cls-17" d="M465.67,256.1c1.22-.1,1.68.58,2.19,1.52,30.95,64.28,98.51,93.19,154.65,130.36,17.18,11.37,39.46,26.79,51.9,43.1,2.72,3.57,13.64,19.96,13.64,23.42,0,2.1-12.12,24.84-14.08,29.97-10.17,26.6-15.26,62.69-11.95,91,.66,5.62,7.09,26.93,6.81,28.81-.33,2.19-8.68,14.71-10.61,17.43-71.57,101.36-249.48,107.15-346.13,40.68-31.95-21.98-45.76-51.74-40.95-90.76,2.21-17.87,8.33-30.28,7.84-49.14-.47-17.89-3.73-36.09-4.02-53.98-1.62-96.57,88.38-133.95,153.95-183.13,5.02-3.77,34.42-29.11,36.76-29.31ZM335.76,374.26c-12.45,1.58-37.14,18.17-34.76,32.17,1.89,11.12,16.01-6.33,20.09-8.85,8.19-5.08,17.05-6.94,26.57-4.73,4.93,1.14,17.75,11.84,18.43.66.82-13.45-19.29-20.65-30.33-19.25ZM548.8,375.29c-8.43.8-30.15,6.75-30.77,17.28-.69,11.71,19.71,2.73,26.44,2.39,20.11-1.03,41.28,7.03,57.01,19.07,3.74,2.86,7.32,9.55,12.81,8.77,9.4-1.33-1.51-15.82-4.31-19.27-14.16-17.48-38.25-30.43-61.17-28.24ZM515,494c-4.84,10.56-4.36,35.62-1.49,46.99,5.86,23.19,35.82,37.75,58.49,32.01,28.86,1.85,50.01-28.23,52.04-54.46.46-5.91-1.29-18.22.15-22.85.32-1.02,8.88-7.89,10.79-10.21,4.03-4.91,13.07-19.72,7.53-25.48-5.27-5.48-15.41,12-21.83,9.89-1.58-.52-5.02-7.46-6.7-9.37-23.4-26.55-59.51-27.6-86.45-5.5-9.33,7.65-26.33,29.14-12.52,38.98ZM295.68,494.1c-8.98,2.92,6.8,23.15,7.16,25.58.27,1.77-5.02,5.09-2.08,12.06,4.45,10.54,22.61-6.44,29.55-8.93,32.78-12.52,51.55,25.06,58.96,12.95,2.94-5.76-4.89-16.44-8.76-20.77-10.7-12.01-29.69-21.18-45.92-18.9-5.61.79-18.96,9.94-20.09,9.94-2.61,0-12.85-13.87-18.82-11.93ZM415.71,568.21c-13.11,3-9.12,27.03,7.47,31.1,3.98.98,14.13-.6,12.82-5.79-.56-2.24-13.88-.44-15.79-10.27-1.33-6.85,2.75-6.84,3.63-9.98,1.42-5.07-4.17-5.96-8.14-5.06ZM488.67,611.17c-1.69.59-6.77,10.03-8.69,12.3-18.7,22.11-62.59,26.99-80.97,2.02-3.07-4.17-5.7-17.28-13.02-13.01-6.12,3.57-.25,16.26,2.39,20.64,20.32,33.66,92.11,28.58,107.48-7.78,2.96-7.01,3.24-17.82-7.18-14.18Z"/>
  <path class="cls-16" d="M648.99,387c-51.84-35.75-122.19-65.61-158.8-118.69-2.64-3.82-13.72-20.78-11.73-24.29,11.88-7.06,39.03-33.4,52.03-33.81,22.65-.72,70.93,20.9,90.43,33.38,6.22,3.98,38.96,30.03,39.93,35.06.31,1.61-5.62,9.53-6.72,11.97-13.58,30-14.22,65.05-5.13,96.38Z"/>
  <path class="cls-36" d="M504,208c1.79,1.41-.69,1.81-1.31,2.23-23.97,16.57-43.89,34.72-66.8,52.16-62.27,47.34-164.97,94.51-175.89,180.11,0,0,0,15.5,0,15.5,0,0-4.7-12.8-4.7-12.8-24.39-146.27,113.52-246.69,248.7-237.2Z"/>
  <path class="cls-25" d="M721.76,253.26c3.04-.42,9.56-.86,12.22.26s10.99,8.99,14.72,11.28c18.99,11.72,37.66,14.07,40.29,41.71,4.59,48.41-32.31,85.14-77.96,93-14.5,2.5-39.38,4.21-45.3-12.74-16.08-46.07-1.1-125.66,56.04-133.52ZM683.72,308.22c-6.07,1.42-6.91,11.67-.26,11.82,2.21.05,3.17-1.24,6.33-.4,4.08,1.08,10.55,9.78,14.31,4.96,6.52-8.37-12.12-18.31-20.38-16.38ZM745.77,327.19c-4.2.54-12.96,5.36-11.03,10.52,2.87,7.69,11.18-1.17,15.32,1.73,2.1,1.47.7,13.62,7.94,10.08s3.16-24.31-12.23-22.33ZM700.72,336.17c-8.51,2.52,1.74,21.57,14.77,21.9,5.97.15,17.92-4.25,14.63-11.63-3.2-7.21-7.96-.14-11.68.52-12.19,2.16-9.12-13.34-17.72-10.8Z"/>
  <path class="cls-29" d="M766,171c42.33,4.15,94,51.7,94,95.5v20.5c-4.34-6.9-12.99-11.01-17.99-16.51-2.27-2.49-3.74-6.45-6.03-8.97-12.87-14.17-30.6-25.05-50.46-23.5-2.82.22-16.58,3.93-17.52,2.98.7-36.34-41.29-47.09-39-4,0,0-18.02,3.53-18.02,3.53-2.49-5.14-31.28-27.77-30.9-29.88.34-1.89,14.91-16.5,17.45-18.61,6.09-5.06,17.17-12.18,24.47-15.03,11.8-4.61,31.43-7.23,44-6Z"/>
  <path class="cls-32" d="M697,247.99c-5.76-1.03-25.6,20.99-26.98,20.01-.14-.1-.39-1.9-1.47-3.03-96.57-104.12-276.38-91.81-373.54,5.03,0,0,12.96-16.53,12.96-16.53,98.33-101.76,288.78-115.25,388.04-7.99.58.84,1.39.99.98,2.5Z"/>
  <path class="cls-8" d="M775,437.01c-57.73,26.19-83.71,148.41-36.52,191.01,4.93,4.22,13.8,6.05,3.01,6.96-112.32,10.12-62.73-241.64,33.51-197.97Z"/>
  <path class="cls-16" d="M194.01,269.99c1.11-71.62,93.93-131.93,153-80.5,2.33,2.03,10.21,8.36,6.51,10.53-7.13,4.03-14.21,8.36-20.83,13.17-3.49,2.53-20.27,17-21.66,17.41-3.37,1-10.51-1.5-14.49-1.64-27.89-.97-54,8.18-77.45,22.63-2.98.5-24.07,19.59-25.08,18.41Z"/>
  <path class="cls-33" d="M293,243l2.99,2.49c-19.45,20.13-35.07,46.58-45.47,72.53-2.07,5.16-7.45,24.98-9.57,27.43s-13.62,9.54-17.42,12.58c-1.67,1.34-10.29,9.94-11.03,9.95-2.54.03-16.17-27.79-17.5-31.98-4.82-15.23-5.62-31.84,0-47,2.6-2.33,5.92-9.12,8.97-12.53,12.39-13.82,38.07-26.44,56.03-30.47,10.85-2.44,21.99-2.46,33-3Z"/>
  <path class="cls-8" d="M782.74,448.24c35.15-6.03,43.83,52.52,42.24,77.25-1.71,26.73-18.75,70.99-39.52,88.48-44.7,37.66-61.27-29.76-59.51-63.51,1.55-29.74,22.4-96.32,56.78-102.22ZM787.82,475.24c-39.44,2.64-60.87,108.13-23.05,124.5,12.48,5.4,20.27.32,28.21-9.25,18.24-22.02,29.43-73.59,16.73-99.68-4.15-8.52-11.59-16.25-21.89-15.56Z"/>
  <path class="cls-18" d="M875.98,433.99l-2.05-.61c-2.81-7.17-5.98-14.35-9.76-21.06-2.36-4.2-16.69-23.32-16.77-24.81-.09-1.67,7.7-16.07,9.09-19.53,7.72-19.3,12.69-42.75,14.5-63.5,1.02-11.71-1.31-18.32,9.84-3.81,18.25,23.74,22.17,63.25,14.89,91.54-3.97,15.41-11.9,28.23-19.74,41.78Z"/>
  <path class="cls-6" d="M838.99,379l-2.5-.98c-3.21-5.87-37.75-30-38.13-32.48-.28-1.78,3.38-14.94,3.68-19,.48-6.54.43-16.46-.05-23.02-.15-2.06-2.76-9.73-1.99-10.51.67-.68,15.61-.64,19.07-1.44,2.33-.54,7.04-2.58,9.26-3.74,7-3.65,7.04-9.11,14.15-3.79,31.74,23.78,9.3,66.69-3.48,94.96Z"/>
  <path class="cls-36" d="M843,864.99c-.48-.35,5.92-8.16,6.8-9.69,10.83-18.74,12.98-39.19,7.46-60.07-1.3-4.9-11.57-29.55-9.25-32.24.18-.2,3.68,1.05,5.32.93,4.94-.35,18.8-5.08,20.96-4.76,40.02,20.22,38.63,80.63-2.08,99.53-4.64,2.24-25.61,8.92-29.2,6.28Z"/>
  <path class="cls-36" d="M181,293c-3.06,20.94-.05,41.28,9.14,60.36,1.89,4.13,13.98,23.49,13.71,24.89s-13.95,19.05-16.27,22.83c-2.07,3.38-11.77,23.63-13.1,23.92-2.62.58-12.07-15.19-13.47-18-10.84-21.7-12.12-46.38-8-70,.86.08,4.51-13.55,5.52-15.98,3.58-8.6,12.95-25.15,20.48-30.52,1.74-1.24.77,2.01,2,2.51Z"/>
  <path class="cls-32" d="M156.99,421c.5.38,3.97,9.22,5.21,11.3,7.15,11.96,16.27,22.75,22.97,35.03,3.24,5.93,10.31,17.17,8.05,23.39-2.61,7.16-13.78,20.59-18.07,29.92-1.36,2.96-4.55,14.82-5.15,15.35-31.21-20.39-40.73-71.9-22.79-104.3.93-1.68,7.68-12.29,9.79-10.7Z"/>
  <path class="cls-6" d="M200.99,855.01c.29,1.36-1.05,1.11-2.01,1.46-12.77,4.62-27.99-.46-37.88-9.07-4.02-3.5-8.8-13.36-13.69-7.48-3.63,4.35-.28,12.08.1,17.08-39.97-21.09-34.95-83.34,6.97-98.88.74-.02,13.65,4.22,14.08,4.83,2.1,2.95-7.35,28.36-7.6,35.53-.8,23.62,15.23,52.44,40.03,56.55Z"/>
  <path class="cls-36" d="M809,399c.27-2.49,6.02-23.25,7.01-24,2.12-1.6,23.57,19.68,26.01,22.47,9.77,11.18,27.96,39.17,23.21,54.26-1.12,3.57-7.47,12.06-9.75,16.25-2.19,4.02-3.96,10.58-6.26,13.74-.33.46.03,1.99-1.7,1.27-1.64-.68-21.09-23.51-23.35-26.66-3.12-4.36-5.79-9.1-8.03-13.97-1.01-2.2-4.39-13.19-5.14-13.36-1.25-9.66-3.06-20.23-2-30Z"/>
  <path class="cls-16" d="M202.01,477c-.7-.52-6.45-13.24-7.84-15.67-5.59-9.79-12.89-16.57-10.72-28.37s18.5-36.89,26.58-46.42c1.86-2.2,26.39-26.63,27.96-24.53,1.04,1.39-3.82,29.35-4.03,34.46-.25,6.04-.22,13.03,0,19.08.17,4.62,2.79,14.95,1.82,18.7-.72,2.78-15.96,24.74-18.81,28.23-1.44,1.77-13.96,15.27-14.96,14.53Z"/>
  <path class="cls-8" d="M240.99,453c.74.73,5.46,16.44,6.84,19.67s8.44,14.94,8.7,16.8c.89,6.4-5.11,32.3-5.56,41.99-.73,15.57.28,35.27,1,51.08.28,6.23,2.09,13.12,2.03,19.46-42.94-29.52-35.7-106.65-15.09-147.58.39-.78.37-3.12,2.08-1.42Z"/>
  <path class="cls-11" d="M778,841.98c-1.37-1.5.48-1.74,1.24-2.29,36.23-17.64,24.1-46.92,43.35-74.6,5.69-7.68,7.88-9.69,14.62-.8,4.78,23.84,23.5,50.5,1.82,71.25-15.9,15.64-41.99,14.57-61.03,6.45Z"/>
  <path class="cls-29" d="M880.01,536c-2.24-7.65-5.69-15.05-9.49-22.02-2.4-4.39-13.58-19.52-13.48-22.38.15-4.09,10.16-23.58,12.79-28.27,7.06-12.61,16.54-23.74,23.67-36.31,22.1,26.5,15.89,70.23-2.69,97.29-1.19,1.74-8.96,13.05-10.8,11.68Z"/>
  <path class="cls-33" d="M238,838.99c-31.76,13.74-70.18-8.03-66.98-44.47.59-6.77,5.88-27.07,11.04-30.96,1.47-1.11,9.12-4.38,10.46-4.22,3.79.46,11.75,16.55,13.24,20.39,4.96,12.8,5.17,27.22,11.72,39.28,4.75,8.74,12.67,14.29,20.51,19.97Z"/>
  <path class="cls-33" d="M145,542c.75-1.04,5.1-6.9,5.54-7,3.29-.72,20.17,26.02,22.63,30.33s12.04,22.64,11.8,26.11c-.14,1.99-18.23,28.09-21.18,33.87-1.36,2.66.26,5.15-3.31,2.7-25.58-20.25-29.53-57.66-15.49-86.01Z"/>
  <path class="cls-33" d="M849.98,668c-1.53,1.04-18.83-20.46-20.4-23.08-9.21-15.32-10.33-31.75-7.28-49.12.56-3.21,6.16-23.3,8.22-23.8,4.35-1.04,22.2,27.47,24.65,32.33,3.92,7.75,12.72,29,11.81,37.06-.48,4.22-9.28,13.68-12.21,17.88-1.18,1.69-4.38,8.45-4.79,8.73Z"/>
  <path class="cls-36" d="M893.98,540.01c13.04,22.08,14.86,55.39-.57,76.91-1.61,2.23-16.49,17.84-18.41,16.08-.74-.68-3.94-16.53-4.98-19.53-1.49-4.31-3.56-8.38-5.52-12.48-2.41-5.05-6.37-6.77-5.47-13.4-.1-4.29,29.56-48.95,34.94-47.58Z"/>
  <path class="cls-6" d="M185.01,667c-.65-.49-5.24-12.45-6.49-15.02-1.39-2.83-5.37-7.52-6.06-9.93-3.4-11.71,9.32-28.95,16.15-37.94,1.86-2.45,23.91-28.24,25.38-27.1,11.25,30.57,7.83,64.45-20.09,84.39-1.36,1.01-7.88,6.36-8.88,5.61Z"/>
  <path class="cls-6" d="M834,489c.29-1.51-1.14-4.47,1.49-3.99,12.03,11.21,22.67,24.3,29.69,39.32,1.89,4.04,7.95,18.64,7.72,22.22-.1,1.5-12.29,18.4-14.31,21.54-1.36,2.11-5.1,10.55-5.6,10.91-.9.65-1.85-.43-2.51-.97-4.76-3.89-10.47-15.38-15.48-20.02-4.46-8.69.43-19.91,1.04-29.46.84-13.14-.11-26.61-2.04-39.54Z"/>
  <path class="cls-37" d="M208,544c.33,6.08,1.96,12.35,2.75,18.39l-17.25,19.59-15.94-29.04c-4.52-14.68,19.44-53.9,29.93-64.95.44-.46,3.98-4.58,4.52-2.48.5,1.92-3.72,23.5-4.01,28.49-.53,9.09-.49,20.89,0,30Z"/>
  <path class="cls-11" d="M888.99,638c.98.71,4.83,16.9,5.05,19.47,1.36,16.11-2.97,35.69-14.51,47.55-1.44,1.48-11.44,9.16-12.51,7.97-.47-.52-1.85-10.94-2.74-13.76-2.26-7.11-6.11-13.68-8.1-20.47-.27-7.09,28.05-44.23,32.82-40.77Z"/>
  <path class="cls-23" d="M159.99,709c-1.16.87-10.13-10.6-11.15-12.33-11.82-19.34-12.06-43.69.19-62.66,1.04-.63,1.81.49,2.5.97,7.15,4.9,18.16,19.34,21.64,27.36,8.35,19.22.38,19.14-7.98,34.35-1.05,1.91-4.66,11.91-5.2,12.31Z"/>
  <path class="cls-35" d="M827.99,273.98c-1.34,2.26-16.31,6.64-19.61,6.89-15.45,1.19-16.91-3.73-26.91-11.84-11.16-9.04-24.17-15.27,2.16-17.9,12.84-1.28,22.78.84,32.85,8.9,1.91,1.53,12.52,12.28,11.52,13.96Z"/>
  <path class="cls-32" d="M171,715c-2.98-2.97,9.85-23.49,12.6-26.89,1.95-2.42,21.87-22.24,23.38-21.1,5.32,18.08,2.28,45.75-20.75,48.74-2.34.31-14.22.28-15.24-.74Z"/>
  <path class="cls-34" d="M855,717c-27.84,2.58-37.93-23.21-29.02-46.52.45-1.17,2.46-6.45,3.52-6.46,3.17-.04,18.54,24.24,20.36,28.62,1.46,3.53,7.24,22.26,5.15,24.36Z"/>
  <path class="cls-14" d="M830.01,726c.6-.41,10.09,4.24,13.77,4.71,9.42,1.21,15.72,0,24.46-2.98,6.11-2.08,11.51-8.65,11.18,1.41-.33,10.2-9.67,18.71-19.37,20.4-9.6,1.67-29.02-.02-30.98-12.12-.3-1.87-.15-10.68.94-11.43Z"/>
  <path class="cls-14" d="M155.36,742.65c-3.52-3.66-8.2-19.8-4.34-22.64.36-.27,6.03,4.15,7.61,4.87,8.08,3.67,16.97,5.57,25.91,5.15,7.12-.33,12.97-5.98,11.22,5.23-2.62,16.79-30.76,17.42-40.4,7.39Z"/>
  <path class="cls-15" d="M719.99,413c.45.53.19,12.74-.5,13.99-1.44,2.59-17.78,11.15-20,16-5.65-10.47-13.24-19.94-21.49-28.51-.22-2.62.45-.97,1.77-.77,6.03.91,12.65,2.4,18.75,2.34,3.64-.04,20.76-3.87,21.47-3.05Z"/>
  <path class="cls-9" d="M768.99,390.01c.99,1.06,2.99,27.93,2,28.99-.4.42-8.8-1.85-10.52-1.98-2.78-.21-6.23-.2-9.03-.07-2.57.12-14.9,2.63-15.45,2.05-.38-.39-1.18-10.43-.88-10.89.45-.68,12.27-5.15,14.9-6.6,2.2-1.21,18.21-12.32,18.97-11.52Z"/>
  <path class="cls-1" d="M755.99,249.99c-.89.97-12.28-7.76-13.33-11.15s.77-15.78,3.84-15.82c5.19-.07,10.78,25.57,9.5,26.97Z"/>
  <path class="cls-31" d="M153,337c-4.12,23.62-2.84,48.3,8,70l-4.76-7.74c-7.94-20.78-8.79-41.59-4.22-63.28.43.16.82,1,.98,1.01Z"/>
  <path class="cls-39" d="M835,558l-.5.98c-6.66-6.05.37-26.25.53-35.44.54-11.03-2.82-25.21-1.04-34.54,1.93,12.93,2.88,26.4,2.04,39.54-.61,9.55-5.5,20.77-1.04,29.46Z"/>
  <path class="cls-20" d="M146,612c-13.06-18.28-14.48-51.45-1-70-10.94,22.73-10.77,47.67,1,70Z"/>
  <path class="cls-5" d="M195,289c-5.62,15.16-4.82,31.77,0,47l-1.13.64c-4.3-8.22-5.85-43.25.14-48.64.66-.6.93,1.04.99,1Z"/>
  <path class="cls-30" d="M722,177c-2.51-.97,1.1-1.5,1.76-1.73,15.14-5.09,28.74-6.1,44.73-5.28l-2.5,1.01c-12.57-1.23-32.2,1.39-44,6Z"/>
  <path class="cls-27" d="M183,334c-3.81-14.16-3.72-26.45-2-41,.13-1.13-.75-3.25.99-2.99l.06,6.54c-2.27,11.43-1,21.48,1.3,32.62.3,1.46,1.54,3.86-.35,4.83Z"/>
  <path class="cls-24" d="M260,246l-.57-1.05c12.01-2.9,24.24-3.36,36.56-2.94.26,1.68-1.89.93-2.99.99-11.01.54-22.15.56-33,3Z"/>
  <path class="cls-21" d="M809,399c-1.06,9.77.75,20.34,2,30-.08-.02-.63.94-.98,1.01-2.36-10.39-2.21-20.89-2.02-31.53l1,.52Z"/>
  <path class="cls-7" d="M504,208c-1.26-.99-28.02-.22-32,0l-3.99-.99c11.88.6,24.33-1.3,35.99.99Z"/>
  <path class="cls-19" d="M208,544c-.49-9.11-.53-20.91,0-30,1.67,9.27,1.67,20.73,0,30Z"/>
  <path class="cls-12" d="M572,573c-16.66-1.07-28.25-12.57-33-28,2.68-2.14-1-7.41-1-9.5v-20c0-4.45,3.28-14.54,4.87-19.13.44-1.28,2.23-3.39.13-4.37,6.23-14.33,19.91-28.85,35.99-31.01-1.52-2.11-8.82-2.88-11.38-2.87-20.35.08-44.31,17.76-52.61,35.89-25.21-20.23,49.67-88.79,98.98-33.48,1.68,1.91,5.13,8.85,6.7,9.37,6.42,2.11,16.56-15.37,21.83-9.89,5.54,5.76-3.5,20.57-7.53,25.48-1.91,2.32-10.47,9.19-10.79,10.21-1.45,4.63.3,16.93-.15,22.85-2.03,26.24-23.18,56.32-52.04,54.46ZM595.73,492.16c-10.37,1.43-10.44,26.05,1.8,25.73,11.97-.31,10.25-27.4-1.8-25.73Z"/>
  <path class="cls-28" d="M515,494c8.3-18.13,32.26-35.81,52.61-35.89,2.57-.01,9.86.76,11.38,2.87-48.49,7.12-62.66,106.25-6.99,112.01-22.67,5.73-52.63-8.83-58.49-32.01-2.87-11.37-3.35-36.43,1.49-46.99Z"/>
  <path class="cls-38" d="M295.68,494.1c5.97-1.94,16.21,11.94,18.82,11.93,1.12,0,14.48-9.16,20.09-9.94,16.23-2.28,35.22,6.89,45.92,18.9,3.87,4.34,11.7,15.01,8.76,20.77-7.35,12.11-26.23-25.48-58.96-12.95-6.94,2.49-25.1,19.47-29.55,8.93-2.94-6.97,2.34-10.29,2.08-12.06-.36-2.42-16.14-22.66-7.16-25.58Z"/>
  <path class="cls-38" d="M488.67,611.17c10.42-3.64,10.15,7.16,7.18,14.18-15.37,36.35-87.16,41.44-107.48,7.78-2.64-4.38-8.51-17.07-2.39-20.64,7.33-4.27,9.95,8.83,13.02,13.01,18.38,24.97,62.28,20.09,80.97-2.02,1.93-2.28,7-11.71,8.69-12.3Z"/>
  <path class="cls-38" d="M548.8,375.29c22.92-2.19,47.01,10.76,61.17,28.24,2.8,3.45,13.71,17.95,4.31,19.27-5.49.77-9.07-5.91-12.81-8.77-15.73-12.04-36.9-20.1-57.01-19.07-6.73.34-27.13,9.32-26.44-2.39.62-10.53,22.34-16.48,30.77-17.28Z"/>
  <path class="cls-38" d="M335.76,374.26c11.04-1.4,31.15,5.79,30.33,19.25-.68,11.18-13.5.48-18.43-.66-9.51-2.2-18.38-.34-26.57,4.73-4.08,2.53-18.2,19.98-20.09,8.85-2.38-14.01,22.32-30.6,34.76-32.17Z"/>
  <path class="cls-2" d="M415.71,568.21c3.96-.91,9.56-.01,8.14,5.06-.88,3.14-4.96,3.12-3.63,9.98,1.91,9.83,15.22,8.03,15.79,10.27,1.31,5.2-8.84,6.77-12.82,5.79-16.58-4.07-20.58-28.1-7.47-31.1Z"/>
  <path class="cls-26" d="M700.72,336.17c8.59-2.54,5.53,12.96,17.72,10.8,3.73-.66,8.48-7.73,11.68-.52,3.28,7.38-8.66,11.78-14.63,11.63-13.03-.33-23.28-19.38-14.77-21.9Z"/>
  <path class="cls-10" d="M745.77,327.19c15.39-1.98,19.46,18.8,12.23,22.33s-5.84-8.61-7.94-10.08c-4.14-2.9-12.45,5.96-15.32-1.73-1.93-5.17,6.83-9.98,11.03-10.52Z"/>
  <path class="cls-40" d="M683.72,308.22c8.25-1.94,26.9,8.01,20.38,16.38-3.76,4.83-10.23-3.88-14.31-4.96-3.16-.84-4.12.45-6.33.4-6.65-.15-5.81-10.4.26-11.82Z"/>
  <path class="cls-13" d="M787.82,475.24c10.3-.69,17.74,7.04,21.89,15.56,12.7,26.09,1.51,77.66-16.73,99.68-7.93,9.58-15.73,14.65-28.21,9.25-37.83-16.36-16.39-121.86,23.05-124.5ZM786.73,490.23c-16.15,3.25-28.76,45.79-29.77,60.24-.87,12.36-.51,40.17,18.29,37.3,15.83-2.41,26.93-37.71,28.61-51.4,1.42-11.57,2.28-50.05-17.13-46.14Z"/>
  <path class="cls-3" d="M595.73,492.16c12.05-1.67,13.77,25.42,1.8,25.73-12.24.32-12.17-24.3-1.8-25.73Z"/>
  <path class="cls-4" d="M539,545c-5.12-16.62-2.89-37.14,4-53,2.1.98.31,3.09-.13,4.37-1.59,4.6-4.87,14.68-4.87,19.13v20c0,2.09,3.68,7.36,1,9.5Z"/>
  <path class="cls-22" d="M786.73,490.23c19.41-3.91,18.55,34.57,17.13,46.14-1.68,13.69-12.78,48.98-28.61,51.4-18.8,2.87-19.16-24.94-18.29-37.3,1.01-14.44,13.63-56.98,29.77-60.24Z"/>
</svg>