<?xml version="1.0" encoding="UTF-8"?>
<svg id="Layer_1" data-name="Layer 1" xmlns="http://www.w3.org/2000/svg" width="1024" height="1024" viewBox="0 0 1024 1024">
  <defs>
    <style>
      .cls-1 {
        fill: #fdeaf9;
      }

      .cls-2 {
        fill: #f3afef;
      }

      .cls-3 {
        fill: #fe80b3;
      }

      .cls-4 {
        fill: #55301f;
      }

      .cls-5 {
        fill: #fbd2f5;
      }

      .cls-6 {
        fill: #fee470;
      }

      .cls-7 {
        fill: #fbe7f8;
      }

      .cls-8 {
        fill: #f5b3f1;
      }

      .cls-9 {
        fill: #fef0d4;
      }

      .cls-10 {
        fill: #f5b2f1;
      }

      .cls-11 {
        fill: #f0a9eb;
      }

      .cls-12 {
        fill: #efa8ea;
      }

      .cls-13 {
        fill: #fed559;
      }

      .cls-14 {
        fill: #411144;
      }

      .cls-15 {
        fill: #fbdff5;
      }
    </style>
  </defs>
  <path class="cls-4" d="M503.8,187.3c41.16-4.22,69.27,31.56,101.95,50.46,42.86,4.95,103.1-15.3,129.67,29.33,13.94,23.42,6.45,49.15,9.1,74.9l89.49,69.51c8.29,7.75,14.89,18.52,17.33,29.67,3.83,112.44.6,225.62,1.64,338.33-3.38,41.17-37.07,73.34-78.44,74.56H247.46c-44.28-2.89-75.23-36.52-76.51-80.49v-321.08c1.32-15.82,8.14-29.73,19.03-40.99l89.1-68.9c3.34-25.55-4.17-51.78,9.51-75.49,26.28-45.54,87.54-23.94,130.7-29.3,25.26-14.98,54.54-47.41,84.51-50.49ZM455,235c-.87.7-4.73,1.87-3.5,3.01,0,0,121.99,0,121.99,0,0,0-5.5-4.01-5.5-4.01-49.92-39.5-63.17-40.31-113,1ZM334,255c-14.46,1.83-28.38,13.56-33.49,27.01-1.03,2.7-2.53,11.38-3.51,11.99-.05.03-1.05-1.67-1-.5,0,0-.07,175.12-.07,175.12-.47,1.53.74,2.48,1.07,3.38.29.78.16,1.83.94,2.52,0,0,125.55,87.27,125.55,87.27,53.64-43.62,123.28-42.18,177.5-.27,0,0,125.84-87.19,125.84-87.19l.04-180.7c-2.74-20.31-17.81-35.3-37.87-38.63,0,0-355,0-355,0ZM280,366l-66.98,50.5,66.98,45.5v-96ZM744,462l66.06-45.51-66.06-50.49v96ZM206,434c-13.68-10.78-17.45,13.32-18.04,22.46,0,0,0,319.08,0,319.08,0,0,1.05,10.46,1.05,10.46,46.21-40.95,91.26-91.44,136.46-135.03,27.39-26.28,55.55-51.82,83.52-77.49-46.37-33.43-154.6-106.99-202.99-139.49ZM821,432l-205.98,141.5c42.6,38.15,83.84,77.81,124.98,117.5,30.98,29.33,59.95,64.11,92,92,.54.47,4,5.38,4,1.5v-336c0-.48-2.36-8.19-2.8-9.2-2.14-4.89-6.45-9.58-12.2-7.3ZM242,836h540c14.05-1.29,30.07-10.69,38.97-21.53,2.12-2.59,7.41-8.1,5.1-11.01-62.58-62.67-123.52-127.34-189.06-186.97-77.98-78.2-144.42-100.38-231.02-17-72.69,63.69-139.48,135.9-208.05,203.97-2.3,2.93,2.93,8.53,5.04,11.06,9.81,11.76,23.69,19.76,39.02,21.48Z"/>
  <path class="cls-4" d="M788.5,146.45c10.8-.09,11.41,24.15,14.74,32.81,5.17,13.45,14.82,23.39,28.08,28.92,8.73,3.64,33.12,4.33,26.94,17.59-1.83,3.92-21.87,7.79-27.62,10.37-12.11,5.45-22.69,17.2-27.4,29.6-2.91,7.66-3.83,25.7-8.32,29.67-14.47,12.78-16.79-20.76-18.89-27.94-5.85-20.03-17.22-28.29-36.27-34.73-6.66-2.25-19.71-1.78-19.86-11.23-.05-2.87,1.11-5.94,3.72-7.4,5.67-3.19,20.81-4.13,29.08-7.92,11.52-5.28,18.6-14.6,22.58-26.42,2.44-7.26,4.49-28.28,9.22-31.79,1.1-.82,2.64-1.52,4.02-1.53ZM827.99,222.01c-17-5.01-26.58-14.93-33.85-30.66-.71-1.55-3.09-9.37-3.64-9.37-.95,0-6.1,14.64-7.7,17.31-4.39,7.3-11.63,13.07-19.13,16.87-2.39,1.21-11.19,3.45-11.67,3.84-1.95,1.56.73,1.73,1.42,2.08,19.88,10.19,29.4,17.69,37.08,39.9,3.77-12.14,10.52-23.51,20.76-31.23l16.72-8.76Z"/>
  <path class="cls-8" d="M782,836H242c-15.33-1.71-29.21-9.72-39.02-21.48-2.12-2.54-7.34-8.14-5.04-11.06,68.58-68.07,135.36-140.28,208.06-203.97,26.71-23.4,51.72-46.13,88.64-51.36,63-8.93,100.11,29.89,142.39,68.36,65.53,59.63,126.47,124.31,189.06,186.97,2.31,2.91-2.98,8.42-5.1,11.01-8.9,10.84-24.91,20.24-38.97,21.53ZM414.78,675.29c-16.89,1.73-34.58,17.93-35.75,35.23-.49,7.26,1.43,16.66,10.5,16.52,14.63-.23,8.78-27.01,27.98-27.12,19.49-.11,14.32,28.93,29.9,27.06,13.14-1.58,8.32-21.28,4.48-29.35-6.67-13.98-21.29-23.96-37.1-22.34ZM602.78,675.28c-35.68,3.63-45.83,61.16-18.86,50.13,10.2-5.77,6.56-26.43,24.61-25.49,17.63.92,13.4,26.91,26.95,27.11,13.42.2,10.74-18.54,7.71-26.72-5.88-15.86-23.7-26.79-40.41-25.03ZM531.64,751.64c-11.41,11.41-32.13,9.66-41.63-3.14-3.63-4.88-4.37-13.68-13.05-11.07-11.71,3.52-1.37,20.53,4.15,25.96,17.06,16.77,43.98,16.58,61.41.63,5.7-5.22,14.28-16.77,8.04-24.08-9.32-10.92-14.64,7.42-18.92,11.7Z"/>
  <path class="cls-9" d="M689,255c20.07,3.32,35.14,18.32,37.87,38.63l-.04,180.7s-125.84,87.19-125.84,87.19c-54.25-41.93-123.88-43.32-177.5.27,0,0-125.55-87.28-125.55-87.28-.78-.69-.65-1.74-.94-2.52,0,0,0-178,0-178,.98-.61,2.49-9.28,3.51-11.99,5.11-13.45,19.03-25.18,33.49-27.01,0,0,355,0,355,0ZM512.99,352c-.81.54-11.14-12.82-12.97-14.51-48.21-44.18-103.84,6-81.19,63.19,15.26,38.53,59.35,68.17,93.76,88.34,44.66-22.88,124.75-86.08,90.83-143.93-22.2-39.42-69.85-26.08-90.43,6.92Z"/>
  <path class="cls-8" d="M206,434c48.75,32.73,156.31,105.84,202.99,139.49-75.89,65.64-144.73,142.82-217.99,210.52-6.18-110.15,2.43-221.97-1.04-332.54,1.1-9.09,4.02-23.56,16.04-17.47Z"/>
  <path class="cls-10" d="M821,432c9.9,1.01,11.97,8.67,13.03,17.47-4.02,109.26,5.25,222.22-.03,331.05-.12,2.46.72,3.27-2,1.48-29.6-31.33-61.22-61.3-92-91-41.14-39.7-82.38-79.35-124.98-117.5l205.98-141.5ZM746.66,591.24c-5.4.45-3.15,7.27-3.9,11.03-1.16,5.79-7.02,13.01-12.05,15.95-4.58,2.68-15.26,2.12-14.76,8.23.37,4.5,7.92,3.92,11.04,5.07,7.34,2.71,13.95,9.56,15.56,17.44.8,3.93-1.11,12.68,4.9,12.09s3.18-6.18,3.52-8.49c1.16-7.99,5.71-16.27,13.36-19.73,3.39-1.53,9.94-1.79,11.74-4.25,4.83-6.59-7.66-7.9-11.45-9.7-5.2-2.47-10.11-7.4-12.1-12.9-1.78-4.92,0-15.23-5.87-14.73Z"/>
  <polygon class="cls-12" points="744 462 744 366 810.06 416.49 744 462"/>
  <polygon class="cls-11" points="280 366 280 462 213.02 416.5 280 366"/>
  <path class="cls-2" d="M568,234s.5,3.01.5,3.01h-112.01s-1.48-2.01-1.48-2.01c49.9-41.38,63.14-40.44,113-1Z"/>
  <path class="cls-5" d="M832,783v-1c2.72,1.78,1.88.97,2-1.48,5.28-108.83-3.98-221.79.03-331.05-1.06-8.8-3.13-16.45-13.03-17.47,5.74-2.27,10.06,2.42,12.2,7.3.44,1.01,2.8,8.72,2.8,9.2v336c0,3.88-3.46-1.03-4-1.5Z"/>
  <path class="cls-1" d="M206,434c-12.01-6.09-14.93,8.38-16.03,17.47,3.47,110.57-5.14,222.39,1.03,332.53-.56.49-.79,2.08-1.99,2l-1.05-10.46v-319.08c.59-9.14,4.36-33.24,18.04-22.46Z"/>
  <path class="cls-7" d="M832,782v1c-32.05-27.89-61.02-62.67-92-92,30.78,29.7,62.4,59.67,92,91Z"/>
  <path class="cls-14" d="M297,294v178c-.33-.9-1.54-1.85-1.07-3.38l.07-175.12c-.05-1.17.96.53,1,.5Z"/>
  <path class="cls-15" d="M568,234l5.5,4.01h-121.99c-1.23-1.14,2.62-2.31,3.5-3.01l1.48,2h112.01s-.5-3-.5-3Z"/>
  <path class="cls-13" d="M827.99,222.01l-16.72,8.76c-10.24,7.71-16.99,19.09-20.76,31.23-7.68-22.21-17.2-29.71-37.08-39.9-.7-.36-3.37-.52-1.42-2.08.48-.38,9.28-2.63,11.67-3.84,7.5-3.8,14.74-9.58,19.13-16.87,1.6-2.67,6.75-17.31,7.7-17.31.56,0,2.93,7.82,3.64,9.37,7.27,15.73,16.85,25.65,33.85,30.66Z"/>
  <path class="cls-4" d="M602.78,675.28c16.71-1.76,34.53,9.17,40.41,25.03,3.03,8.18,5.71,26.92-7.71,26.72-13.56-.2-9.33-26.19-26.95-27.11-18.05-.94-14.41,19.72-24.61,25.49-26.98,11.03-16.81-46.51,18.86-50.13Z"/>
  <path class="cls-4" d="M414.78,675.29c15.81-1.62,30.43,8.36,37.1,22.34,3.85,8.07,8.67,27.77-4.48,29.35-15.58,1.87-10.41-27.17-29.9-27.06-19.19.11-13.35,26.89-27.98,27.12-9.07.14-10.99-9.25-10.5-16.52,1.17-17.3,18.86-33.5,35.75-35.23Z"/>
  <path class="cls-4" d="M531.64,751.64c4.28-4.28,9.6-22.61,18.92-11.7,6.24,7.31-2.33,18.86-8.04,24.08-17.43,15.95-44.35,16.14-61.41-.63-5.52-5.43-15.86-22.44-4.15-25.96,8.68-2.61,9.42,6.18,13.05,11.07,9.51,12.8,30.22,14.55,41.63,3.14Z"/>
  <path class="cls-3" d="M512.99,352c20.58-32.99,68.23-46.34,90.43-6.92,33.92,57.86-46.17,121.06-90.83,143.93-34.42-20.16-78.51-49.81-93.76-88.34-22.65-57.19,32.98-107.37,81.19-63.19,1.84,1.69,12.17,15.05,12.97,14.51Z"/>
  <path class="cls-6" d="M746.66,591.24c5.87-.49,4.09,9.82,5.87,14.73,1.99,5.5,6.89,10.44,12.1,12.9,3.79,1.8,16.28,3.11,11.45,9.7-1.8,2.46-8.35,2.72-11.74,4.25-7.65,3.45-12.2,11.73-13.36,19.73-.33,2.31,2.52,7.9-3.52,8.49s-4.1-8.15-4.9-12.09c-1.61-7.88-8.22-14.73-15.56-17.44-3.11-1.15-10.66-.57-11.04-5.07-.51-6.11,10.17-5.56,14.76-8.23,5.03-2.94,10.9-10.16,12.05-15.95.75-3.76-1.51-10.57,3.9-11.03Z"/>
</svg>