<?xml version="1.0" encoding="UTF-8"?>
<svg id="Layer_1" data-name="Layer 1" xmlns="http://www.w3.org/2000/svg" width="1024" height="1024" viewBox="0 0 1024 1024">
  <defs>
    <style>
      .cls-1 {
        fill: #1c0501;
      }

      .cls-2 {
        fill: #27150c;
      }

      .cls-3 {
        fill: #ccb1e7;
      }

      .cls-4 {
        fill: #ab91bc;
      }

      .cls-5 {
        fill: #190906;
      }

      .cls-6 {
        fill: #eacf90;
      }

      .cls-7 {
        fill: #fed87a;
      }

      .cls-8 {
        fill: #fdd99a;
      }

      .cls-9 {
        fill: #221008;
      }

      .cls-10 {
        fill: #120300;
      }

      .cls-11 {
        fill: #040101;
      }

      .cls-12 {
        fill: #b298cc;
      }

      .cls-13 {
        fill: #fed97b;
      }

      .cls-14 {
        fill: #dfc292;
      }

      .cls-15 {
        fill: #210e06;
      }

      .cls-16 {
        fill: #fdfab6;
      }

      .cls-17 {
        fill: #0a0100;
      }

      .cls-18 {
        fill: #2b1810;
      }

      .cls-19 {
        fill: #dec292;
      }

      .cls-20 {
        fill: #351a02;
      }

      .cls-21 {
        fill: #523824;
      }

      .cls-22 {
        fill: #170200;
      }

      .cls-23 {
        fill: #d9a549;
      }

      .cls-24 {
        fill: #160703;
      }

      .cls-25 {
        fill: #e9d3fd;
      }

      .cls-26 {
        fill: #321702;
      }

      .cls-27 {
        fill: #ecd6fe;
      }

      .cls-28 {
        fill: #0c0201;
      }

      .cls-29 {
        fill: #fcd99b;
      }

      .cls-30 {
        fill: #291208;
      }

      .cls-31 {
        fill: #dfc293;
      }

      .cls-32 {
        fill: #2a1205;
      }

      .cls-33 {
        fill: #110100;
      }

      .cls-34 {
        fill: #230f08;
      }

      .cls-35 {
        fill: #513a28;
      }

      .cls-36 {
        fill: #2c1200;
      }

      .cls-37 {
        fill: #090100;
      }

      .cls-38 {
        fill: #dec293;
      }

      .cls-39 {
        fill: #fef6de;
      }

      .cls-40 {
        fill: #e4cffc;
      }

      .cls-41 {
        fill: #331803;
      }

      .cls-42 {
        fill: #ac92bd;
      }

      .cls-43 {
        fill: #241109;
      }

      .cls-44 {
        fill: #292222;
      }

      .cls-45 {
        fill: #271f1e;
      }

      .cls-46 {
        fill: #292221;
      }
    </style>
  </defs>
  <path class="cls-21" d="M703,272c35.41.99,178.32-4.59,165.99,52.01,48.92.72,51.56,29.15,49.02,69.99,1.91-1.52.96-6.61.99-8.99,1.65,1.06,1,3.78,1.02,5.48.13,10.16-.02,20.36-.02,30.52-3.13,23.67-.08,49.63-1,74,.94,39.37-2.28,80.33,1,119-.09,67.92,1.3,136.33-1.49,204.01-5.65,24.35-28.08,40.13-52.51,40.99-94.21-4.11-190.64.92-285.56-1.06-25.82,41.86-106.91,42.24-136.44,1.06-94.32-.12-191.09-3.9-285,0-30.71-1.01-52.77-21.73-54.98-52.52,2.19-138.14-3.44-277.02,1.02-414.95.76-23.62-3.19-51.32,23.73-63.27,5.71-2.54,24.23-3.97,25.3-4.7.76-31.34,19.83-35.83,46.92-42.08,88.02-20.4,206.8-10.05,286.68,33.34,3.69,2.01,23.26,15.3,24.68,15.05,54.55-38.8,123.97-55.56,190.65-57.88ZM294,295c1.6-2.83,1.43-1.75-1.07-1.58-23.56,1.52-47.08,1.59-70.42,5.58l2.49,1c-12.51,3.14-38.29,4.89-47,14.5,0,0,0,429,0,429,0,.15,1.58,1.81,2.03,2.02,15.84-1.05,45.39-6.76,62.97-6.52,12.02,2.21,24.76.49,37,1,34,1.42,67.07,7.23,100.17,14.35,1.46.31,3.87,1.53,4.83-.35,34.62,8.64,86.87,26.36,114,49.5,1.5,1.28,2.18,2.88,2-.5,5.59,11.37.18-452.33,2.01-450.5-4.06,5.09,2.19,443.72-2.01,448.5l-.19-449.31c-56.06-43.97-136.76-57.24-206.81-56.69ZM704,295c12.34-2.31,25.44-.36,37.99-1.01.24-1.74-2.27-.94-3.48-.99-16.86-.69-33.69.57-50.51,1.01l3.99.99c-57.83,1.98-125.16,23.8-170,55.51,2.18,150.69-3.85,303.77,1,453.49,17.9-12.51,40.89-25,61-33,.97,2.1,3.09.32,4.37-.13,12.1-4.26,24-9.25,36.63-11.88-4.03-4.61,52.69-13.34,59-14.99,1.06,1.72,3.7,1.05,5.36.88,13.51-1.36,26.99-4.37,40.64-3.89.05-1.81-3.72-.95-4.99-.99,1.25-1.7,4.15-.99,6-1,1.06,1.65,3.78,1,5.48,1.02,16.15.17,32.98-.78,49,0,17.56.85,35.04,5.16,52.51,5.99,5.09.24,7.93,2,8.04-5.46l-.25-424.83c-1.98-6.78-29.52-12.01-36.59-13.41-34.02-6.75-70.51-8.35-105.2-7.3ZM177,743v-426h-1v426h1ZM848,743v-426h-1v426h1ZM129,363c-2.15,8.57-.87,20.84-1,30h-1c-.45-1.5,1.2-18.44-1.01-15.5v429.99s1.01-3.5,1.01-3.5h1c-.27,9.46,4.56,19.66,12.06,25.43,1.91,1.4,7.29,2.98,7.94,4.57.03.07-.87.56-1.01.98,99.3,5.74,200.85,3.73,300.01,1.03,11.28-.5,15.32,9.43,21.98,15.51,20.89,19.08,64.31,20.51,85.5,1.46,9.2-8.27,9.38-20.39,27.52-16.98,92.65,4.25,187.97-.85,281.5,1.01l-2.5-1.01c21.24-1.84,34.57-10.85,36.03-33.47,0,0,0-427.07,0-427.07,0-19.65-8.77-27.5-28.04-28.46-.97,4,1.88,442.57-1,445.99-3.66,10.28-14.98,19.21-26,19.01,0,0-4.5-1-4.5-1h-281c.33.47.61,1.42.5,2h-1c-8.28,5.8-16.66,11.59-24.47,18.03-2.21,1.82-10.39,10.8-12,11.05-2.12.33-15.17.17-16.52-.59-7.86-7.99-21.16-20.94-32.01-25.49,0,0-4-3-4-3v-1H177c-.27-1.21-5.82-2.27-7.34-3.16-7.92-4.67-12.27-12.13-14.66-20.84v-441c-11.27.86-22.88,3.6-26,16ZM782,762l4.99-.99c-30.21-.68-60.38-.79-90.48,3.02l.49.97c-30.89,4.25-61.46,12.57-90.87,22.66-1.3.56-2.55.15-2.13,2.34h234v-1c9.03,3.1,9.39-17.65,8.01-19.01-20.55-1.96-43.24-7.78-64.01-7.99ZM293,763c.56-3.03-1.53-1.92-3.45-2-15.97-.63-32.06.47-48.04,0l5.5,1.01c-22.45,3.61-46.5,2.55-69.05,8.49-.7,9.74-2.5,16.68,9.05,19.51h232c-38.41-18.14-83.83-23.45-126-27Z"/>
  <path class="cls-35" d="M764.66,109.34c4.22,4.05,6.62,17.66,9.48,24.01,5.05,11.21,13.41,21.6,23.72,28.28,6.44,4.17,19.78,7.21,21.65,14.34,3.65,13.9-12.15,15.4-21.05,21-31.51,18.01-24.24,56.6-43.85,54.99-12.09-.76-13.42-18.85-17.92-28.17-15.79-33.31-37.1-26.81-44.24-40.77-3.5-13.82,13.06-15.39,21.84-21.22,19.57-12.99,20.96-25.47,28.92-45.08,3.7-9.12,13.08-15.4,21.44-7.38ZM756.99,143c-1.56-1.96-1.73.73-2.08,1.42-5.16,14.3-17.21,28.55-31.9,33.59,14.39,8.15,27.61,23.53,32.01,38.99,1.65,2.06,1.69-.7,2-1.48,6.07-15.32,15.3-28.83,30.99-35.53-13.71-8.87-27.02-20.73-31.01-36.99Z"/>
  <path class="cls-44" d="M866,859c-95.39,3.06-192.01-4.71-287,1,90.62-4.04,193.55-3.03,287-1Z"/>
  <path class="cls-46" d="M444,859H159c93.92-3.9,190.67-.12,285,0Z"/>
  <path class="cls-45" d="M920,614c-3.29-38.68-.06-79.62-1-119h1c0,39.65.05,79.35,0,119Z"/>
  <path class="cls-37" d="M920,495h-1c.92-24.36-2.13-50.34,1-74,0,24.65,0,49.35,0,74Z"/>
  <path class="cls-10" d="M740,272h-37c11.98-.39,25.01-.33,37,0Z"/>
  <path class="cls-24" d="M919,385c-.03,2.38.92,7.48-.99,8.99.6-9.12-1.3-19.17.99-27.99.35,6.08.07,12.84,0,19Z"/>
  <path class="cls-39" d="M294,295c70.05-.55,150.75,12.72,206.81,56.69-.47,2.61.53,449.07.19,451.31-67.6-45.04-171.32-67.98-258-64-17.59-.23-47.18,5.6-62.97,6.52-.45-.22-2.03-1.87-2.03-2.03,0,0,0-429,0-429,0-.4,3.72-3.8,4.76-4.24,34.38-11.9,74.89-15,111.24-15.26ZM286.8,410.3c-8.74.29-42.15,2.35-48.14,5.86-8.43,4.94-7.57,17.68,2.08,19.61,7.58,1.52,26.56-3.29,35.73-3.8,58.37-3.26,117.51,7.48,172.16,26.99,10.1.9,14.11-8.33,9.23-16.3-48.61-26.38-115.91-32.24-171.05-32.35ZM270.8,495.3c-8.23.42-21.48,1-29.22,2.78-10.68,2.44-12.14,19.91-.84,22.69,69.69-9.96,140.54,1.64,206.82,23.26,10.31-.42,14.88-9.75,7.49-17.57-54.88-24.64-123.86-32.58-184.24-31.16ZM264.8,580.3c-8.87.48-28.49-.2-31.34,9.66-6.57,22.77,23.12,13.38,34.99,12.99,50.98-1.64,92.74,3.81,141.76,16.33,10.89,2.78,25.91,9.43,36.38,10.63,14.84,1.71,18.5-13.99,6.4-20.41-58.8-20.66-125.58-32.01-188.19-29.21Z"/>
  <path class="cls-39" d="M704,295c38.58.1,110.84-1.3,141.79,20.71,0,0,.25,424.83.25,424.83-.11,7.45-2.95,5.7-8.04,5.46-36.58-8.46-76.29-9.46-113-6-26.43.02-78.53,9.42-101,18-35.55,8.59-70.89,25.17-101,46v-453c49.36-37.35,119.37-55.66,181-56ZM705.8,410.3c-45.42,2.81-93.7,12.33-136.15,27.85-10.79,6.38-7.81,21.05,5.74,19.75,8.59-.83,23.09-7.21,32.4-9.61,53.65-13.82,98.05-19.41,153.7-15.27,7.62.57,24.87,6.15,29.39-2.64,15.41-25.89-71.76-19.47-85.08-20.08ZM706.8,517.3c-44.98,2.93-96.9,11.84-138.76,28.24-9.27,7.63-1.27,21.89,10.38,18.37,52.36-15.49,106-27.41,161.12-24.95,12.07.54,25.27,3.55,36.97,4.02,17.66.71,23.12-15.17,8.46-20.45-16.03-5.77-60.23-6.08-78.17-5.23ZM716.74,603.23c-15.18,3.46-5.94,26.19-26.04,36.97-8.95,5.62-24.96,5.56-21.22,19.83,5.1,11.42,24.17,7.21,34.4,29.6,3.99,8.62,2.64,21.85,15.63,21.47,11.43-.33,10.46-10.23,13.45-17.63,8.72-31.72,47.57-22.72,35.89-43.81-3.24-5.26-20.73-8.68-28.37-16.63-9.72-10.12-7.03-32.7-23.74-29.79Z"/>
  <path class="cls-3" d="M155,347v441c2.39,8.7,6.75,16.16,14.66,20.84,1.51.89,7.07,1.95,7.34,3.16.02.08-.94.63-1.01.98,97.92,4.26,197.58-3.33,295.01,3.02,10.84,4.56,24.14,17.52,32.01,25.5,1.35.76,14.4.92,16.52.59,1.61-.25,9.79-9.23,12-11.05,7.81-6.44,16.19-12.23,24.47-18.03l290-1c9.36-2.68,18.85-9.45,22-19,1.25,4.03,3.34-8.6,3.04-9.46,0,0-.08-433.98-.08-433.98,0,0,5.03-1.57,5.03-1.57,17.33,2.58,20.04,11.4,21.04,27.46,0,0,0,427.07,0,427.07-1.12,13.76-7.14,26.6-21.23,30.77-5,1.48-10.05,1.12-14.8,2.7h-279c-18.14-3.41-18.32,8.71-27.52,16.98-21.19,19.06-64.61,17.62-85.5-1.46-6.66-6.09-10.7-16.01-21.98-15.52-98.82-4.45-200.79,7.26-299-2-.65-1.58-6.03-3.16-7.93-4.57-5.42-4-9.52-10.92-11.07-17.43v-449c3.12-12.4,14.73-15.14,26-16Z"/>
  <path class="cls-29" d="M293,763c42.16,3.55,87.59,8.86,126,27h-232c-11.54-2.83-9.75-9.78-9.05-19.51,37.98-7.25,76.59-10.12,115.05-7.49Z"/>
  <path class="cls-8" d="M782,762c19.06.92,40.13,3.88,59,8l-.5,1c8.65-3.18,5.01,16.57-1,17,0,0-229.5,0-229.5,0,53.45-22.38,114.06-28.88,172-26Z"/>
  <path class="cls-27" d="M876,348l-5.03,1.57.08,433.98c.21,1.84-1.85,13.19-3.04,9.46,3.03-11.2-.08-433.54,1-444.01.06-.6-.12-1.9,0-1.99.27-.22,5.83.83,7,1Z"/>
  <path class="cls-40" d="M129,812c-.73-149.19-3.57-299.81,0-449v449Z"/>
  <path class="cls-1" d="M523,351v453c-3.82-147.96-.77-308.65,0-453Z"/>
  <path class="cls-32" d="M501,801c4.2-4.56-2.05-443.59,2.01-448.5-1.72-1.43,3.43,467.98-2.01,448.5Z"/>
  <path class="cls-17" d="M869,349c0,3,0,437.27,0,440v-442c-.12.1.06,1.39,0,2Z"/>
  <path class="cls-20" d="M127,393c-.98,3.5,1.89,411.56-1.01,414.5v-429.99c2.21-2.96.56,13.97,1.01,15.5Z"/>
  <rect class="cls-22" x="176" y="317" width="1" height="426"/>
  <rect class="cls-33" x="847" y="317" width="1" height="426"/>
  <path class="cls-12" d="M128,804h-1v-411h1c-1.93,136.93,1.45,274.06,0,411Z"/>
  <path class="cls-41" d="M447,836c-99.17,2.7-200.71,4.71-300.01-1.02.15-.42,1.04-.91,1.01-.98,98.21,9.26,200.18-2.45,299,2Z"/>
  <path class="cls-25" d="M179,812h2c94.35,4.11,190.96-.88,286,1l4,3c-97.44-6.35-197.09,1.24-295.01-3.02.07-.35,1.03-.9,1.01-.98h2Z"/>
  <path class="cls-16" d="M841,770c1.16.25,4.68-.32,5.01,0,1.38,1.35,1.02,22.11-8.01,19.01-77.05,1.6-155.65-2.74-232,1h-2c-1.03-3.64,19.45-7.37,23-9-.31,1.83-15.5,6.3-17,7,0,0,229.5,0,229.5,0,6.05-.44,9.61-20.18,1-17l.5-1Z"/>
  <path class="cls-25" d="M846,812l-290,1c.24,0,282.11.07,282.62.07,1.22.57,3.04-1.06,3.38-1.07,1.33-.07,2.67.05,4,0Z"/>
  <path class="cls-26" d="M861,836l2.5,1.01c-93.52-1.85-188.85,3.25-281.5-1.01h279Z"/>
  <polygon class="cls-36" points="842 812 557 812 556.5 810.99 837.5 811 842 812"/>
  <path class="cls-4" d="M467,812v1c-95.04-1.88-191.66,3.11-286-1h286Z"/>
  <path class="cls-42" d="M842,812c-3.45,3.16-280.95-.09-285,1v-1h285Z"/>
  <path class="cls-11" d="M606,790c77.32,0,154.68,0,232,0h-234,2Z"/>
  <path class="cls-6" d="M838,789v1c-77.32,0-154.68,0-232,0,76.36-3.74,154.95.6,232-1Z"/>
  <path class="cls-18" d="M838,746c-17.47-.83-34.95-5.14-52.51-5.99-16.03-.77-32.85.18-49,0-1.7-.02-4.43.63-5.48-1.02,35.66-.95,72.1-1.82,107,7Z"/>
  <path class="cls-9" d="M385,754c-.96,1.88-3.37.66-4.83.35-33.11-7.12-66.18-12.92-100.17-14.35v-1c35.26,1.23,70.85,6.48,105,15Z"/>
  <path class="cls-34" d="M697,765l-.49-.97c30.1-3.81,60.27-3.7,90.48-3.02-28.2,1.63-61.8-.58-89.99,3.99Z"/>
  <path class="cls-30" d="M225,300l-2.49-1c23.34-3.99,46.86-4.06,70.42-5.58,2.5-.16,2.67-1.25,1.07,1.58-22.1.17-47.24,1.46-69,5Z"/>
  <path class="cls-43" d="M725,740c1.27.04,5.05-.82,4.99.99-13.64-.48-27.13,2.54-40.64,3.89-1.65.17-4.3.83-5.36-.88,12.82-1.97,28.15-4.37,41-4Z"/>
  <path class="cls-5" d="M247,762l-5.5-1.01c15.98.48,32.08-.63,48.04,0,1.92.08,4.01-1.03,3.45,2-15.24-.92-30.69-1.61-46-1Z"/>
  <path class="cls-2" d="M624,758c-.03.06,1.18-.14,1,.99-12.63,2.64-24.53,7.63-36.63,11.88-1.28.45-3.4,2.22-4.37.13,12.73-5.13,26.69-9.88,40-13Z"/>
  <path class="cls-15" d="M692,295l-3.99-.99c16.82-.44,33.64-1.7,50.51-1.01,1.22.05,3.72-.75,3.48.99-16.73-.33-33.42.5-49.99,1.01Z"/>
  <path class="cls-28" d="M280,739v1c-12.24-.51-24.98,1.21-37-1,11.82-.45,25.17-.41,37,0Z"/>
  <path class="cls-13" d="M756.99,143c4,16.27,17.28,28.11,31.01,36.99-15.69,6.71-24.91,20.22-30.99,35.53-.31.79-.35,3.54-2,1.48-4.41-15.48-17.61-30.82-32.01-38.99,14.7-5.05,26.74-19.28,31.9-33.59.36-.69.53-3.38,2.08-1.42Z"/>
  <path class="cls-14" d="M264.8,580.3c62.61-2.8,129.4,8.55,188.19,29.21,12.11,6.42,8.44,22.12-6.4,20.41-10.47-1.2-25.49-7.85-36.38-10.63-49.03-12.52-90.78-17.97-141.76-16.33-11.87.38-41.56,9.77-34.99-12.99,2.84-9.86,22.47-9.18,31.34-9.66Z"/>
  <path class="cls-31" d="M270.8,495.3c60.35-1.43,129.4,6.52,184.25,31.16,7.38,7.82,2.82,17.15-7.49,17.57-66.28-21.62-137.13-33.22-206.82-23.26-11.3-2.78-9.85-20.25.84-22.69,7.75-1.77,20.99-2.35,29.22-2.78Z"/>
  <path class="cls-38" d="M286.8,410.3c55.13.11,122.45,5.98,171.05,32.35,4.88,7.98.87,17.2-9.23,16.31-54.65-19.52-113.8-30.25-172.16-26.99-9.17.51-28.14,5.32-35.73,3.8-9.65-1.93-10.51-14.67-2.08-19.61,5.99-3.51,39.4-5.56,48.14-5.86Z"/>
  <path class="cls-19" d="M706.8,517.3c17.95-.84,62.14-.54,78.17,5.23,14.66,5.28,9.2,21.16-8.46,20.45-11.71-.47-24.9-3.48-36.97-4.02-55.12-2.46-108.76,9.46-161.12,24.95-11.65,3.52-19.65-10.74-10.38-18.37,41.85-16.4,93.78-25.31,138.76-28.24Z"/>
  <path class="cls-19" d="M705.8,410.3c13.62.63,100.26-5.87,85.08,20.07-4.53,8.79-21.77,3.21-29.39,2.64-55.65-4.14-100.05,1.45-153.7,15.27-9.31,2.4-23.81,8.78-32.4,9.61-13.55,1.31-16.53-13.37-5.74-19.74,42.48-15.53,90.71-25.04,136.15-27.85Z"/>
  <path class="cls-23" d="M716.74,603.23c16.71-2.91,14.02,19.67,23.74,29.79,7.64,7.96,25.13,11.37,28.37,16.63,11.7,21.05-27.21,12.14-35.89,43.81-2.99,7.41-2.02,17.3-13.45,17.63-12.99.38-11.65-12.85-15.63-21.47-10.37-22.52-29.1-18.02-34.4-29.6-3.74-14.27,12.27-14.21,21.22-19.83,20.2-10.88,10.76-33.37,26.04-36.97ZM743,656.01c-6.06-.38-12.59-7.66-16.51-12-2.37-3-6.25-13.02-6.99-13.02-.81,0-5.76,11.29-7.99,14.02-3.51,3.93-9.48,9.8-14.51,11,2.57,3.48,16.15,12.72,18.17,19.32,8.83,22.38-.1-1.28,23.68-16,.93-.65,6.14-1.7,4.15-3.32Z"/>
  <path class="cls-7" d="M743,656.01c1.99,1.62-3.22,2.67-4.15,3.32-23.74,14.68-14.86,38.38-23.68,16-1.98-6.56-15.65-15.89-18.17-19.32,5.04-1.2,10.99-7.06,14.51-11,2.23-2.73,7.18-14.02,7.99-14.02.74,0,4.62,10.02,6.99,13.02,3.92,4.34,10.46,11.62,16.51,12Z"/>
</svg>