<?xml version="1.0" encoding="UTF-8"?>
<svg id="Layer_1" data-name="Layer 1" xmlns="http://www.w3.org/2000/svg" width="473" height="408" viewBox="0 0 473 408">
  <defs>
    <style>
      .cls-1 {
        fill: #fee37e;
      }

      .cls-2 {
        fill: #ebe3f4;
      }

      .cls-3 {
        fill: #352422;
      }

      .cls-4 {
        fill: #ebe3f5;
      }

      .cls-5 {
        fill: #3d2a26;
      }

      .cls-6 {
        fill: #312021;
      }

      .cls-7 {
        fill: #3e2a26;
      }

      .cls-8 {
        fill: #3a2826;
      }

      .cls-9 {
        fill: #3b2925;
      }

      .cls-10 {
        fill: #412e28;
      }

      .cls-11 {
        fill: #382725;
      }

      .cls-12 {
        fill: #4a3425;
      }

      .cls-13 {
        fill: #362323;
      }

      .cls-14 {
        fill: #372322;
      }

      .cls-15 {
        fill: #fcd1d4;
      }

      .cls-16 {
        fill: #564333;
      }

      .cls-17 {
        fill: #574333;
      }
    </style>
  </defs>
  <path class="cls-16" d="M95,374c-3.27-37.44,10.34-74.07,12.8-111.29-18.74-21.75-43.22-40.66-61.82-62.19-48.32-65.72,62.11-67.43,102.25-76.79,3.33-.72,4.64-3.13,6.3-5.7,15.47-23.83,31.9-80.5,51.95-97.05,57.63-37.81,73.79,68.8,98.97,101.07,38.18,12.76,150.02,5.72,111.53,73.43,0,0-67.53,67.47-67.53,67.47-.6,1.46-.5,2.96-.47,4.5.93,40.06,46.82,139.92-30.95,127.03-30.27-15.03-59.08-32.96-89.7-47.21-36.83,11.45-108.49,84.15-133.33,26.74ZM214,45c-13.15,22.74-33.97,75.06-48.66,94.84-31.76,12.02-67.77,12.47-100.64,21.37-8.32,4.17-13.28,12.54-6.7,20.8-1.67,1.64-.05,2.38.96,3.52,18.96,21.3,42.64,42.57,63.04,62.98.46.46,2.58,3.5,3,1.5,5.35,7.69,3.9,9.75,3,18l-1-2.49c.8,5.6-3.64,12.3-1,17.49-.47,3.17-.63,7.21-2,10-.02-1.09.67-3.27-.99-2.99-.84,13.12-3.48,25.88-5.73,38.8-.21,1.61-1.1,4.16.72,5.19-23.81,98.41,76.72-13.07,116-8l90.97,48.53c8.06,2.02,10.39.09,16.03-4.53.13-.1.6,1.77,2.2-1.26,4.52-8.54-1.68-20.48-1.21-29.74-1.66-.27-.97,1.91-.99,2.99-1.44-2.43-1.57-6.16-2-9,2.46-5.68-1.74-12.94-1.01-18.99-1.66-.27-.97,1.91-.99,2.99-2.45-11.19-4.35-22.66-6-34,1.8-7.25-1.47-16.69-3-24,1.05-8.39,15.81-20.1,22-26,14.07-13.41,28.52-27.03,42.5-41,.46-.46,3.5-2.58,1.5-3,24-21.76-.12-30.62-21.78-33.72-23.55-4.95-51.73-7.07-74.42-13.58-5.47-1.57-7.82-3.25-11-8-10.26-15.34-20.85-43.02-29.8-60.7l-.13-4.37c-10.41-15.11-23.08-53.65-42.87-23.63Z"/>
  <path class="cls-17" d="M427.76,232.18c16.22-1.96,6.83,24.81,26.3,37.25,6.58,4.68,17.69,5.01,18.02,15.06.37,14.42-23.07,11.28-30.57,34.52-2.62,6.97-2.09,19.51-12.1,19.92-11.21.45-10.97-14.56-13.93-21.92-7.1-21.7-34.62-18.94-29.03-36.07,1.79-5.74,19.76-11.55,25.98-21.01,5.53-8.42,4.99-26.47,15.33-27.75ZM429.98,267c-1.63-1.5-4.18,5.35-5.59,6.89-14.68,14.9-16.73,7.71-1.89,20.09,1.46,1.64,3.02,3.87,4.36,5.68.95,1.3,1.01,5.18,3.23,2.7,1.93-2.16,4.01-6.67,6.4-9.38,1.51-1.71,8.41-6.95,8.5-7.51-2.6-4.09-13.97-11.49-15.01-18.48Z"/>
  <path class="cls-16" d="M394.35,123.65c-5.51-7.39-10.85-22.03-20.44-28.06-4.1-3.21-14.07-7.09-15.46-11.53-5.2-15.88,22.69-12.24,31.32-38.78,1.92-5.47,1.68-16.6,7.97-17.99,13.8-3.05,11.53,9.79,14.76,18.71,2.99,8.24,9.9,16.09,17.17,20.83,6.27,4.09,16.1,4.87,15.38,14.66-.59,8.05-9.68,9.44-14.97,13.11-3.63,2.52-7.74,6.04-10.6,9.4-7.54,9.62-11.48,29.88-25.14,19.66ZM400.02,101.99c1.79,1.1,7.8-9.12,9.47-11,1.86-2.1,10.49-8.78,10.49-9.49-8.73-7.61-11.24-7.31-18-19.5-.9-.61-5.93,7.38-6.96,8.52-2.04,2.27-11.98,10.16-12,10.98-.02.61,4.94,3.8,6.03,4.95,2.75,2.9,10.16,15.04,10.97,15.54Z"/>
  <path class="cls-16" d="M39.71,262.21c13.86-4.16,12.7,12.59,17.26,20.32,4.82,8.17,19.07,11.45,19.05,20.97s-14.2,13.74-19.05,21.96c-4.15,7.05-2.77,18.3-13.51,18.58s-10.26-15.89-16.6-23.4c-4.77-5.64-15.71-8.33-15.71-17.15s11.47-11.81,16.28-17.58c5.44-6.52,5.5-21.68,12.28-23.71ZM53.99,304.98c.73-1.18-.46-1.75-1.06-2.42-.92-1.03-9.73-8.55-10.43-8.59-.73-.04-8.36,9.95-10.5,10.04l11.49,10.96c3.01-3.14,6.23-8.96,10.49-10Z"/>
  <path class="cls-12" d="M95,374c-2.23-7.24-1.76-13.7-1-21,1.37,3.63,1,17.03,1,21Z"/>
  <path class="cls-1" d="M251,59c9.32,16.84,30.31,80.68,46.8,82.7,22.69,6.52,50.87,8.63,74.42,13.58,7.84,1.65,24.71,4.25,29.24,10.76,6.7,9.62-1.37,16.42-7.46,22.96-14.07,15.1-30.51,28.28-44,44-6.19,5.9-20.95,17.61-22,26,.68,18.77,5.7,39.29,9,58,.56,8.18,1.46,17.26,4,25-.18,9.16,5.03,19.32,0,28-5.64,4.62-7.97,6.55-16.03,4.53,0,0-90.97-48.53-90.97-48.53-4.63-1.21-10.09-1.45-14,2-23.06,5.65-64.34,38.44-89.48,47.02-24.63,2.87-14.23-27.18-12.52-41.02,1.89-22.27,7.69-43.6,10-66,7.28-27.78-55.17-61.58-70-86-6.58-8.26-1.62-16.63,6.7-20.8,27.92-7.01,57.63-9.67,85.48-16.52,4.64-1.14,11.24-2.19,15.15-4.85,5.62-3.82,16.72-30.96,20.66-38.84,15.5-27.67,36.58-105.94,65-42Z"/>
  <path class="cls-7" d="M125,250c-.42,2-2.54-1.04-3-1.5-20.4-20.41-44.08-41.68-63.04-62.98-1.01-1.14-2.64-1.88-.96-3.52,17.47,23.08,51.09,45.1,67,68Z"/>
  <path class="cls-8" d="M350,233c13.49-15.72,29.93-28.9,44-44,2,.42-1.04,2.54-1.5,3-13.98,13.97-28.43,27.59-42.5,41Z"/>
  <path class="cls-5" d="M214,45c-9.93,15.63-19.41,38.84-28,56l28-56Z"/>
  <path class="cls-10" d="M341,370c6.17-7.83-3.25-27.77.99-30.99-.47,9.26,5.73,21.2,1.21,29.74-1.6,3.02-2.08,1.15-2.2,1.26Z"/>
  <path class="cls-9" d="M331,283c-1.02-7.01-3.82-17.43-3-24,1.53,7.31,4.8,16.75,3,24Z"/>
  <path class="cls-11" d="M118,334c-3.16-3.79,2.64-19.4,3-25-.95,8.36-1.97,16.66-3,25Z"/>
  <path class="cls-10" d="M124,293c.13,6.47-1.93,10.46-3,16,.72-6.31,1.36-12.68,2.01-18.99,1.66-.27.97,1.91.99,2.99Z"/>
  <path class="cls-3" d="M339,333c-.14-3.08-4.12-18.4-1.01-18.99-.73,6.06,3.48,13.32,1.01,18.99Z"/>
  <path class="cls-14" d="M128,268c-.55,5.03-1.26,10-2,15-2.64-5.19,1.79-11.89,1-17.49l1,2.49Z"/>
  <path class="cls-13" d="M257,73c-2.11-4.17-3.85-9.89-6-14l5.87,9.63.13,4.37Z"/>
  <path class="cls-6" d="M234,326c-4.1,1.66-9.12.9-14,2,3.91-3.45,9.37-3.21,14-2Z"/>
  <path class="cls-15" d="M429.98,267c1.06,7.01,12.42,14.38,15.01,18.48-.1.56-6.99,5.8-8.5,7.51-2.39,2.71-4.47,7.23-6.4,9.38-2.22,2.48-2.28-1.41-3.23-2.7-1.33-1.82-2.9-4.04-4.36-5.68-14.84-12.38-12.78-5.2,1.89-20.09,1.4-1.54,3.96-8.39,5.59-6.89Z"/>
  <path class="cls-2" d="M400.02,101.99c-.81-.5-8.22-12.64-10.97-15.54-1.09-1.15-6.05-4.34-6.03-4.95.03-.81,9.96-8.7,12-10.98,1.03-1.14,6.06-9.13,6.96-8.52,6.74,12.19,9.37,11.96,18,19.5,0,.71-8.63,7.39-10.49,9.49-1.67,1.88-7.68,12.1-9.47,11Z"/>
  <path class="cls-4" d="M53.99,304.98c-4.27,1.05-7.47,6.85-10.49,10l-11.49-10.96c2.14-.09,9.77-10.08,10.5-10.04.7.04,9.5,7.56,10.43,8.59.6.67,1.78,1.24,1.06,2.42Z"/>
</svg>