<?xml version="1.0" encoding="UTF-8"?>
<svg id="Layer_1" data-name="Layer 1" xmlns="http://www.w3.org/2000/svg" width="412" height="450" viewBox="0 0 412 450">
  <defs>
    <style>
      .cls-1 {
        fill: #4e3a2c;
      }

      .cls-2 {
        fill: #382624;
      }

      .cls-3 {
        fill: #392824;
      }

      .cls-4 {
        fill: #fcd0d2;
      }

      .cls-5 {
        fill: #352321;
      }

      .cls-6 {
        fill: #3d2a25;
      }

      .cls-7 {
        fill: #3b2824;
      }

      .cls-8 {
        fill: #e3da88;
      }

      .cls-9 {
        fill: #341c0f;
      }

      .cls-10 {
        fill: #301e21;
      }

      .cls-11 {
        fill: #322;
      }

      .cls-12 {
        fill: #3c2514;
      }

      .cls-13 {
        fill: #362623;
      }

      .cls-14 {
        fill: #564333;
      }

      .cls-15 {
        fill: #fee27d;
      }

      .cls-16 {
        fill: #564332;
      }
    </style>
  </defs>
  <path class="cls-14" d="M304,450c-10.51.8-22.77-5.04-32.36-9.14-22.23-9.71-44.03-23-65.32-34.64-17.52,8.8-34.27,19.15-51.97,27.64-24.27,11.64-49.13,24.53-74.27,5.55-38.13-29.99-9.11-87.44-9.3-127.7-31.35-36.57-110.97-89.37-45.11-135.53,30.86-11.98,65.33-12.47,97.29-19.71,9.82-19.66,18.12-40.11,28.51-59.49s21.68-42.09,44.48-47.52c51.96-12.38,72.01,70.53,91.49,103.6,1.46,2.48,2.32,3.89,5.29,4.71,34.57,9.61,96.68,1.8,114.13,40.87,13.94,31.23-7.09,51.37-26.35,72.37-12.71,13.85-26.74,26.67-39.3,40.69,1.95,49.26,36.94,126.6-37.21,138.29ZM167,110c-1.61.68-2.2,2.17-2.88,3.62-8.89,18.84-17.55,37.8-26.29,56.71-2.57,4.61-7.27,4.79-11.83,5.67-8.78-2.29-18.91,2.27-27.99,2.01-.27,1.66,1.91.97,2.99.99-10.87,2.53-22.02,4.01-33,6-1.03-1.82-3.59-.93-5.2-.72-6.64.86-13.51,2.39-20,4.03-.65.16-4.33.71-1.8,1.69-9.44,3.2-16.95,11.06-21,20l-.98-1.01c-1.54,3.39-1.19,18.04.99,20.01.66.6.93-1.04.99-1,6.21,5.59,19.02,24.08,26,32,6.15,6.97,12.23,13.72,19,20.5.46.46,2.58,3.5,3,1.5,5.38,5.55,21.19,18.69,22,26-2.34,10.46-4.79,22-5.88,32.65-.17,1.65-.84,4.3.88,5.35-2.26,16.21-7.86,38.23-7,54-2.95,5.44.95,11.88,4,16,27.58,37.29,82.85-15.08,114.33-26.17,7.67-2.7,9.57-2.43,17.03.32,26.35,9.7,67.52,43.64,95.06,39.76,17.73-2.49,24.39-21.7,23.46-37.28-1.51-25.17-10.55-53.33-11.84-78.16-.6-11.58,5.27-15.56,12.47-23.49,13.03-14.36,56.58-51.34,58.51-68.49,3.5-31.14-28.37-34.23-51-38.5l2.99-.99c-13.02-.73-25.72-4.57-38.64-5.89-1.65-.17-4.3-.84-5.35.88-8.04-1.32-19.74-.79-24.99-7.51-9.37-19.47-17.83-39.43-28.01-58.49-10.87-20.36-28.79-60.78-57.53-38.03-8.09,6.4-19.15,26.14-22.47,36.03Z"/>
  <path class="cls-14" d="M337,0c8.93,5.95,8.16,17.56,12.52,26.98,3.3,7.13,10.3,15.72,16.75,20.25,7,4.91,20.92,6.07,20.76,16.29-.15,9.33-11.99,10.95-18.33,14.68-7.33,4.32-14.98,12.52-18.87,20.13-3.5,6.84-6.16,27.39-11.85,29.09-16.11,4.82-15.08-16.54-19.8-27.1-4.02-9.01-11.42-17.19-19.88-22.12-6.34-3.7-18.19-5.38-18.33-14.68-.15-9.6,13.91-11.44,20.76-16.29s13.88-13.69,17.44-21.56c4-8.86,3.74-19.98,11.83-25.67h7ZM334.98,36.01c-1.71-1.4-4.48,5.96-5.75,7.72-1.69,2.36-4.25,5.75-6.21,7.79-2.54,2.65-15,11.02-15,11.98,0,1.03,12.8,10.41,15.49,13.49,3.61,4.12,7.66,9.92,9.5,15.01,5.82-7.72,10.08-15.49,17.52-21.96,1.91-1.67,9.15-5.58,9.46-6.05.56-.84-13.24-10.42-15.51-12.98-2.61-2.93-8.82-14.44-9.51-15Z"/>
  <path class="cls-15" d="M167,110c-.3.89-2.26,6.75-1.99,6.99.72.67,16.16-2.04,19.5-2.1,13.79-.22,46.04,1.26,58.53,5.57,2.82.97,5.2,4.19,8.46,4.54-.55-3.11-2.62-6.13-4-9-.49-1.02-2.48-3.41-.49-4.01,10.18,19.07,18.64,39.02,28.01,58.49,5.25,6.72,16.96,6.19,24.99,7.51,13.6,2.23,27.36,3.99,41,6,22.62,4.27,54.5,7.36,51,38.5-1.93,17.14-45.48,54.13-58.51,68.49-7.19,7.93-13.07,11.91-12.47,23.49,1.29,24.82,10.34,52.99,11.84,78.16.93,15.58-5.73,34.78-23.46,37.28-27.54,3.88-68.7-30.06-95.06-39.76-7.46-2.75-9.35-3.03-17.03-.32-31.48,11.09-86.75,63.47-114.33,26.17-9.49-21.22.34-47.62,3-70,1.29-9.25,5.86-30.21,5-38-.81-7.31-16.62-20.45-22-26-7.21-7.43-14.03-15.32-22-22-6.98-7.92-19.79-26.41-26-32-1.63-5.99-2-11.91-1-18,10.25-21.84,27.03-21.73,48-25,10.98-1.99,22.13-3.47,33-6,6.47.12,18.42-1.74,25-3,4.57-.87,9.26-1.06,11.83-5.67,8.73-18.92,17.4-37.87,26.29-56.71.68-1.45,1.26-2.94,2.88-3.62ZM139,293c6.29.81,15.68.24,20-5,20.55-10.57,16.38-58.14-8.57-61.93-40.46-6.63-46.88,60.83-11.43,66.93ZM256,291c5.85,2.59,14.83,2.73,21,1,23.88-6.68,26.25-48.32,6.34-61.84-7.16-4.86-23.31-4.88-30.67,0-19.6,13-18.47,51.2,3.33,60.83ZM199.63,294.38c-3.6-2.1-9.4-8.87-10.07-8.98-7.06-1.22-12.23,3.38-8.02,10.56,6.64,11.31,23.84,16.26,35.68,10.77,5.29-2.45,20.28-16.66,10.78-21.22-10.21-4.89-11.29,13.94-25.33,11.26-2.6-.5-2.37-1.99-3.04-2.38Z"/>
  <path class="cls-8" d="M247,112c-2,.6,0,3,.49,4.01,1.38,2.87,3.45,5.89,4,9-3.25-.36-5.64-3.57-8.46-4.54-12.49-4.31-44.74-5.79-58.53-5.57-3.34.05-18.78,2.77-19.5,2.1-.27-.25,1.7-6.1,1.99-6.99,25.71-61.54,54.63-53.08,80,2Z"/>
  <path class="cls-6" d="M300,178c1.06-1.72,3.7-1.05,5.35-.88,12.92,1.32,25.62,5.17,38.64,5.89l-2.99.99c-13.64-2.01-27.4-3.77-41-6Z"/>
  <path class="cls-2" d="M86,346c-1.72-1.05-1.05-3.7-.88-5.35,1.09-10.65,3.54-22.19,5.88-32.65.86,7.79-3.71,28.75-5,38Z"/>
  <path class="cls-7" d="M69,282c-.42,2-2.54-1.04-3-1.5-6.77-6.77-12.85-13.53-19-20.5,7.97,6.68,14.79,14.57,22,22Z"/>
  <path class="cls-13" d="M126,176c-6.58,1.26-18.53,3.12-25,3-1.09-.02-3.27.67-2.99-.99,9.09.26,19.21-4.3,27.99-2.01Z"/>
  <path class="cls-3" d="M68,185c-8.36,1.51-19.11,2.32-27,5-2.52-.98,1.16-1.52,1.8-1.69,6.49-1.64,13.36-3.17,20-4.03,1.61-.21,4.16-1.1,5.2.72Z"/>
  <path class="cls-1" d="M20,210c-1,6.09-.63,12.01,1,18-.05-.05-.32,1.6-.99,1-2.18-1.97-2.54-16.62-.99-20.01l.98,1.01Z"/>
  <path class="cls-11" d="M83,416c-3.05-4.12-6.95-10.56-4-16,.33,5.98,1.86,10.5,4,16Z"/>
  <path class="cls-4" d="M334.98,36.01c.69.56,6.9,12.07,9.51,15,2.27,2.55,16.07,12.14,15.51,12.98-.31.47-7.55,4.38-9.46,6.05-7.44,6.47-11.7,14.24-17.52,21.96-1.84-5.08-5.9-10.89-9.5-15.01-2.69-3.08-15.49-12.46-15.49-13.49,0-.96,12.46-9.33,15-11.98,1.96-2.04,4.51-5.43,6.21-7.79,1.27-1.77,4.04-9.13,5.75-7.72Z"/>
  <path class="cls-16" d="M277,292l-21-1c-21.8-9.63-22.93-47.83-3.33-60.83,7.36-4.88,23.51-4.86,30.67,0,19.91,13.51,17.54,55.15-6.34,61.84ZM268,247c-1.19,6.12-1.13,14.91,7.47,12.98,5.98-1.34,6.45-9.07,4.53-13.98s-7.84-5.46-11.57-2.02c-2.29,2.12-.4,2.84-.43,3.02Z"/>
  <path class="cls-14" d="M159,288c-6.71,3.45-12.81,3.62-20,5-35.45-6.11-29.02-73.56,11.43-66.93,24.94,3.8,29.11,51.36,8.57,61.93ZM157,244c-.04-.06,1.25-.62.09-1.43-7.41-5.16-16.86,5.65-13.06,13.45l.98-1.01c7.31,13.64,20.41,1.23,12-11Z"/>
  <path class="cls-16" d="M199.63,294.38c.67.39.44,1.88,3.04,2.38,14.03,2.68,15.12-16.15,25.33-11.26,9.5,4.56-5.48,18.77-10.78,21.22-11.84,5.49-29.04.54-35.68-10.77-4.21-7.17.96-11.78,8.02-10.56.67.12,6.47,6.89,10.07,8.98Z"/>
  <path class="cls-5" d="M159,288c-4.32,5.24-13.71,5.81-20,5,7.19-1.38,13.29-1.55,20-5Z"/>
  <path class="cls-10" d="M277,292c-6.17,1.73-15.15,1.59-21-1l21,1Z"/>
  <path class="cls-9" d="M280,246c-4.22-3.79-8.92-4.28-12,1,.04-.18-1.86-.9.43-3.02,3.72-3.44,9.61-2.98,11.57,2.02Z"/>
  <path class="cls-12" d="M157,244c-8.32-3.65-13.37,2.95-12,11l-.98,1.01c-3.8-7.79,5.66-18.61,13.06-13.45,1.16.81-.13,1.37-.09,1.43Z"/>
</svg>